G75*
%MOIN*%
%OFA0B0*%
%FSLAX25Y25*%
%IPPOS*%
%LPD*%
%AMOC8*
5,1,8,0,0,1.08239X$1,22.5*
%
%ADD10C,0.06800*%
%ADD11C,0.04146*%
%ADD12R,0.05131X0.04737*%
%ADD13OC8,0.06800*%
%ADD14R,0.08674X0.06312*%
%ADD15R,0.06312X0.05839*%
%ADD16R,0.06312X0.08477*%
%ADD17R,0.06312X0.03556*%
%ADD18C,0.05721*%
%ADD19R,0.01575X0.05512*%
%ADD20R,0.07480X0.09252*%
%ADD21C,0.01421*%
%ADD22R,0.06700X0.08700*%
%ADD23R,0.15800X0.08700*%
%ADD24R,0.03950X0.05524*%
%ADD25R,0.06800X0.03800*%
%ADD26C,0.01075*%
%ADD27C,0.04800*%
%ADD28C,0.04762*%
%ADD29OC8,0.17792*%
D10*
X0047619Y0026643D02*
X0053619Y0026643D01*
X0053619Y0036643D02*
X0047619Y0036643D01*
X0047619Y0046643D02*
X0053619Y0046643D01*
X0053619Y0056643D02*
X0047619Y0056643D01*
X0047619Y0066643D02*
X0053619Y0066643D01*
X0053619Y0076643D02*
X0047619Y0076643D01*
X0047619Y0086643D02*
X0053619Y0086643D01*
X0053619Y0096643D02*
X0047619Y0096643D01*
X0351280Y0126485D02*
X0357280Y0126485D01*
X0357280Y0136485D02*
X0351280Y0136485D01*
X0351280Y0146485D02*
X0357280Y0146485D01*
X0357280Y0156485D02*
X0351280Y0156485D01*
D11*
X0036997Y0151288D03*
X0036997Y0136328D03*
D12*
X0046091Y0122272D03*
X0052784Y0122272D03*
X0095343Y0152154D03*
X0102036Y0152154D03*
X0101643Y0165894D03*
X0094950Y0165894D03*
X0107666Y0189162D03*
X0114359Y0189162D03*
X0129123Y0195422D03*
X0135816Y0195422D03*
X0135422Y0212784D03*
X0128729Y0212784D03*
X0113375Y0205304D03*
X0106682Y0205304D03*
X0106091Y0221879D03*
X0112784Y0221879D03*
X0128729Y0230146D03*
X0135422Y0230146D03*
X0135028Y0247391D03*
X0128335Y0247391D03*
X0112784Y0239595D03*
X0106091Y0239595D03*
X0105501Y0254556D03*
X0112194Y0254556D03*
X0154123Y0247391D03*
X0160816Y0247391D03*
X0161603Y0229674D03*
X0154910Y0229674D03*
X0155107Y0212706D03*
X0161800Y0212706D03*
X0161603Y0195855D03*
X0154910Y0195855D03*
X0185422Y0193296D03*
X0192115Y0193296D03*
X0201957Y0193257D03*
X0208650Y0193257D03*
X0190934Y0079162D03*
X0184241Y0079162D03*
X0170855Y0079202D03*
X0164162Y0079202D03*
X0164950Y0062981D03*
X0171643Y0062981D03*
X0184241Y0062627D03*
X0190934Y0062627D03*
X0191328Y0048493D03*
X0184635Y0048493D03*
X0171643Y0048532D03*
X0164950Y0048532D03*
D13*
X0343532Y0215304D03*
X0343532Y0225304D03*
X0343532Y0235304D03*
X0343532Y0245304D03*
X0353532Y0245304D03*
X0353532Y0235304D03*
X0353532Y0225304D03*
X0353532Y0215304D03*
D14*
X0039674Y0194438D03*
X0039674Y0256643D03*
D15*
X0077469Y0194202D03*
D16*
X0077469Y0253198D03*
D17*
X0080894Y0234202D03*
X0080894Y0229871D03*
X0080894Y0225540D03*
X0080894Y0221209D03*
X0080894Y0216879D03*
X0080894Y0212548D03*
X0080894Y0208217D03*
X0080894Y0203887D03*
X0080894Y0199556D03*
D18*
X0038099Y0206249D03*
X0038099Y0237745D03*
D19*
X0187154Y0035265D03*
X0191091Y0035265D03*
X0195028Y0035265D03*
X0198965Y0035265D03*
X0202902Y0035265D03*
X0206839Y0035265D03*
X0210776Y0035265D03*
X0214713Y0035265D03*
D20*
X0224162Y0022469D03*
X0177706Y0022469D03*
D21*
X0122423Y0150811D02*
X0122423Y0154127D01*
X0122423Y0150811D02*
X0119107Y0150811D01*
X0119107Y0154127D01*
X0122423Y0154127D01*
X0122423Y0152231D02*
X0119107Y0152231D01*
X0119107Y0153651D02*
X0122423Y0153651D01*
X0115517Y0154127D02*
X0115517Y0150811D01*
X0112201Y0150811D01*
X0112201Y0154127D01*
X0115517Y0154127D01*
X0115517Y0152231D02*
X0112201Y0152231D01*
X0112201Y0153651D02*
X0115517Y0153651D01*
X0114769Y0164197D02*
X0114769Y0167513D01*
X0114769Y0164197D02*
X0111453Y0164197D01*
X0111453Y0167513D01*
X0114769Y0167513D01*
X0114769Y0165617D02*
X0111453Y0165617D01*
X0111453Y0167037D02*
X0114769Y0167037D01*
X0121675Y0167513D02*
X0121675Y0164197D01*
X0118359Y0164197D01*
X0118359Y0167513D01*
X0121675Y0167513D01*
X0121675Y0165617D02*
X0118359Y0165617D01*
X0118359Y0167037D02*
X0121675Y0167037D01*
D22*
X0270259Y0068928D03*
X0279259Y0068928D03*
X0288259Y0068928D03*
X0324983Y0064991D03*
X0333983Y0064991D03*
X0342983Y0064991D03*
X0291802Y0122077D03*
X0282802Y0122077D03*
X0273802Y0122077D03*
D23*
X0282902Y0146877D03*
X0279359Y0093728D03*
X0334083Y0089791D03*
D24*
X0297863Y0106524D03*
X0290776Y0106524D03*
X0271485Y0106918D03*
X0264398Y0106918D03*
X0266367Y0048650D03*
X0259280Y0048650D03*
X0289202Y0048257D03*
X0296288Y0048257D03*
X0315580Y0048650D03*
X0322666Y0048650D03*
X0341564Y0048257D03*
X0348650Y0048257D03*
D25*
X0064556Y0143906D03*
X0064556Y0158906D03*
X0044556Y0158906D03*
X0044556Y0143906D03*
D26*
X0064360Y0127279D02*
X0064360Y0124053D01*
X0064360Y0127279D02*
X0067586Y0127279D01*
X0067586Y0124053D01*
X0064360Y0124053D01*
X0064360Y0125127D02*
X0067586Y0125127D01*
X0067586Y0126201D02*
X0064360Y0126201D01*
X0064360Y0127275D02*
X0067586Y0127275D01*
X0064360Y0121279D02*
X0064360Y0118053D01*
X0064360Y0121279D02*
X0067586Y0121279D01*
X0067586Y0118053D01*
X0064360Y0118053D01*
X0064360Y0119127D02*
X0067586Y0119127D01*
X0067586Y0120201D02*
X0064360Y0120201D01*
X0064360Y0121275D02*
X0067586Y0121275D01*
D27*
X0060560Y0114989D03*
X0045796Y0105146D03*
X0075324Y0130737D03*
X0078276Y0140580D03*
X0090087Y0150914D03*
X0078276Y0158788D03*
X0113217Y0122371D03*
X0121583Y0115481D03*
X0130934Y0094812D03*
X0143729Y0079064D03*
X0150127Y0059379D03*
X0168335Y0067745D03*
X0177686Y0075127D03*
X0188513Y0074143D03*
X0196879Y0075619D03*
X0211150Y0066761D03*
X0196387Y0049536D03*
X0187528Y0041662D03*
X0179162Y0048552D03*
X0171780Y0055934D03*
X0166859Y0036249D03*
X0159969Y0024930D03*
X0155048Y0020009D03*
X0191957Y0029851D03*
X0202292Y0029851D03*
X0218532Y0035265D03*
X0222961Y0044123D03*
X0235265Y0038709D03*
X0266269Y0059871D03*
X0284477Y0075619D03*
X0294320Y0065776D03*
X0294320Y0060855D03*
X0283493Y0040678D03*
X0318926Y0055934D03*
X0318926Y0068237D03*
X0269221Y0099241D03*
X0263808Y0112528D03*
X0274635Y0114989D03*
X0284969Y0114497D03*
X0274635Y0135658D03*
X0270698Y0142548D03*
X0270698Y0149438D03*
X0267745Y0153867D03*
X0262331Y0152883D03*
X0256918Y0165186D03*
X0254950Y0176013D03*
X0261347Y0180934D03*
X0255934Y0188316D03*
X0264792Y0191761D03*
X0251505Y0201603D03*
X0244123Y0194713D03*
X0244615Y0188316D03*
X0230835Y0193237D03*
X0233788Y0201603D03*
X0228375Y0209969D03*
X0220501Y0211938D03*
X0220501Y0205048D03*
X0220993Y0216859D03*
X0209182Y0211938D03*
X0204753Y0214398D03*
X0197863Y0212430D03*
X0203769Y0201603D03*
X0196387Y0197174D03*
X0192450Y0187824D03*
X0188020Y0184379D03*
X0181131Y0184379D03*
X0174241Y0187824D03*
X0170796Y0184379D03*
X0167351Y0180934D03*
X0167351Y0170107D03*
X0162430Y0163709D03*
X0170796Y0160265D03*
X0179654Y0157804D03*
X0184576Y0157804D03*
X0189497Y0157804D03*
X0195402Y0153867D03*
X0192942Y0143532D03*
X0197863Y0143532D03*
X0207706Y0150422D03*
X0211150Y0153867D03*
X0220009Y0153867D03*
X0224930Y0155343D03*
X0224930Y0150422D03*
X0220009Y0140087D03*
X0224438Y0132213D03*
X0224930Y0120894D03*
X0220009Y0120894D03*
X0212135Y0106623D03*
X0203276Y0120402D03*
X0203276Y0131229D03*
X0191465Y0114005D03*
X0193926Y0106623D03*
X0187528Y0094812D03*
X0183099Y0092351D03*
X0166859Y0105146D03*
X0157017Y0114005D03*
X0146190Y0113020D03*
X0155048Y0127784D03*
X0150619Y0131229D03*
X0161938Y0127784D03*
X0156524Y0144024D03*
X0161938Y0145993D03*
X0158001Y0150422D03*
X0149635Y0140580D03*
X0142745Y0147469D03*
X0126997Y0153375D03*
X0128965Y0160265D03*
X0125028Y0179457D03*
X0136839Y0189300D03*
X0141761Y0188808D03*
X0143237Y0195698D03*
X0162430Y0201111D03*
X0174733Y0206524D03*
X0170796Y0214398D03*
X0165875Y0225225D03*
X0157509Y0219812D03*
X0154064Y0223257D03*
X0140284Y0233591D03*
X0149143Y0247371D03*
X0142253Y0254261D03*
X0166367Y0249339D03*
X0177686Y0252784D03*
X0184576Y0256721D03*
X0188020Y0243434D03*
X0181131Y0239989D03*
X0174241Y0239989D03*
X0188020Y0228670D03*
X0197863Y0223257D03*
X0189497Y0212430D03*
X0183099Y0209969D03*
X0178178Y0191269D03*
X0183099Y0177489D03*
X0187528Y0169615D03*
X0194910Y0170107D03*
X0200816Y0169615D03*
X0205737Y0169615D03*
X0212627Y0169615D03*
X0209182Y0179457D03*
X0205737Y0188316D03*
X0223454Y0169615D03*
X0236741Y0155343D03*
X0236741Y0141564D03*
X0246091Y0135658D03*
X0249536Y0139103D03*
X0236741Y0127784D03*
X0239694Y0123847D03*
X0238709Y0106623D03*
X0243631Y0106131D03*
X0253473Y0088906D03*
X0238709Y0082017D03*
X0238709Y0077095D03*
X0231820Y0075127D03*
X0226406Y0086938D03*
X0219517Y0088906D03*
X0185560Y0135658D03*
X0177194Y0144024D03*
X0173749Y0140580D03*
X0173749Y0147961D03*
X0184083Y0147469D03*
X0121583Y0140580D03*
X0082213Y0118926D03*
X0095993Y0098257D03*
X0100422Y0081032D03*
X0116662Y0194221D03*
X0121583Y0193729D03*
X0106328Y0212922D03*
X0118139Y0219812D03*
X0093040Y0199635D03*
X0201308Y0254753D03*
X0218532Y0260166D03*
X0227391Y0261150D03*
X0232312Y0261150D03*
X0237233Y0261150D03*
X0242154Y0261150D03*
X0248552Y0270501D03*
X0248060Y0275914D03*
X0253965Y0277391D03*
X0257902Y0270501D03*
X0263316Y0265087D03*
X0276111Y0258198D03*
X0280540Y0248847D03*
X0287430Y0248847D03*
X0294320Y0241957D03*
X0299733Y0237528D03*
X0288414Y0232607D03*
X0283985Y0230146D03*
X0290875Y0223257D03*
X0283985Y0216367D03*
X0271190Y0212430D03*
X0261839Y0208985D03*
X0266761Y0223257D03*
X0257902Y0230146D03*
X0255934Y0237036D03*
X0261839Y0239497D03*
X0269221Y0239005D03*
X0280540Y0239497D03*
X0256426Y0248847D03*
X0249536Y0249831D03*
X0243631Y0245402D03*
X0247076Y0238513D03*
X0241662Y0236544D03*
X0232804Y0241957D03*
X0224930Y0239989D03*
X0230835Y0233099D03*
X0234772Y0226702D03*
X0246583Y0225225D03*
X0240678Y0211938D03*
X0210658Y0236052D03*
X0214595Y0275914D03*
X0272174Y0277391D03*
X0283001Y0274438D03*
X0303178Y0256721D03*
X0310068Y0254753D03*
X0306623Y0212430D03*
X0303178Y0208985D03*
X0299733Y0188316D03*
X0275127Y0158296D03*
X0289891Y0153867D03*
X0294812Y0153867D03*
X0306623Y0127784D03*
X0338119Y0133690D03*
X0345009Y0135658D03*
D28*
X0317942Y0127784D03*
X0303769Y0114005D03*
X0303769Y0084083D03*
X0241202Y0146124D03*
X0244624Y0149438D03*
X0241957Y0169123D03*
X0271879Y0174241D03*
X0269123Y0183690D03*
X0326997Y0174241D03*
D29*
X0274280Y0025816D03*
X0128611Y0025816D03*
M02*
