G75*
%MOIN*%
%OFA0B0*%
%FSLAX25Y25*%
%IPPOS*%
%LPD*%
%AMOC8*
5,1,8,0,0,1.08239X$1,22.5*
%
%ADD10C,0.01600*%
%ADD11C,0.00600*%
%ADD12C,0.00400*%
%ADD13C,0.01000*%
%ADD14C,0.00800*%
%ADD15C,0.00100*%
%ADD16C,0.00500*%
%ADD17C,0.00394*%
%ADD18C,0.01200*%
%ADD19C,0.00000*%
%ADD20R,0.01800X0.03000*%
D10*
X0018729Y0013611D02*
X0018729Y0261643D01*
X0018731Y0261767D01*
X0018737Y0261890D01*
X0018746Y0262014D01*
X0018760Y0262136D01*
X0018777Y0262259D01*
X0018799Y0262381D01*
X0018824Y0262502D01*
X0018853Y0262622D01*
X0018885Y0262741D01*
X0018922Y0262860D01*
X0018962Y0262977D01*
X0019005Y0263092D01*
X0019053Y0263207D01*
X0019104Y0263319D01*
X0019158Y0263430D01*
X0019216Y0263540D01*
X0019277Y0263647D01*
X0019342Y0263753D01*
X0019410Y0263856D01*
X0019481Y0263957D01*
X0019555Y0264056D01*
X0019632Y0264153D01*
X0019713Y0264247D01*
X0019796Y0264338D01*
X0019882Y0264427D01*
X0019971Y0264513D01*
X0020062Y0264596D01*
X0020156Y0264677D01*
X0020253Y0264754D01*
X0020352Y0264828D01*
X0020453Y0264899D01*
X0020556Y0264967D01*
X0020662Y0265032D01*
X0020769Y0265093D01*
X0020879Y0265151D01*
X0020990Y0265205D01*
X0021102Y0265256D01*
X0021217Y0265304D01*
X0021332Y0265347D01*
X0021449Y0265387D01*
X0021568Y0265424D01*
X0021687Y0265456D01*
X0021807Y0265485D01*
X0021928Y0265510D01*
X0022050Y0265532D01*
X0022173Y0265549D01*
X0022295Y0265563D01*
X0022419Y0265572D01*
X0022542Y0265578D01*
X0022666Y0265580D01*
X0202981Y0265580D01*
X0202981Y0360068D01*
X0202983Y0360192D01*
X0202989Y0360315D01*
X0202998Y0360439D01*
X0203012Y0360561D01*
X0203029Y0360684D01*
X0203051Y0360806D01*
X0203076Y0360927D01*
X0203105Y0361047D01*
X0203137Y0361166D01*
X0203174Y0361285D01*
X0203214Y0361402D01*
X0203257Y0361517D01*
X0203305Y0361632D01*
X0203356Y0361744D01*
X0203410Y0361855D01*
X0203468Y0361965D01*
X0203529Y0362072D01*
X0203594Y0362178D01*
X0203662Y0362281D01*
X0203733Y0362382D01*
X0203807Y0362481D01*
X0203884Y0362578D01*
X0203965Y0362672D01*
X0204048Y0362763D01*
X0204134Y0362852D01*
X0204223Y0362938D01*
X0204314Y0363021D01*
X0204408Y0363102D01*
X0204505Y0363179D01*
X0204604Y0363253D01*
X0204705Y0363324D01*
X0204808Y0363392D01*
X0204914Y0363457D01*
X0205021Y0363518D01*
X0205131Y0363576D01*
X0205242Y0363630D01*
X0205354Y0363681D01*
X0205469Y0363729D01*
X0205584Y0363772D01*
X0205701Y0363812D01*
X0205820Y0363849D01*
X0205939Y0363881D01*
X0206059Y0363910D01*
X0206180Y0363935D01*
X0206302Y0363957D01*
X0206425Y0363974D01*
X0206547Y0363988D01*
X0206671Y0363997D01*
X0206794Y0364003D01*
X0206918Y0364005D01*
X0287627Y0364005D01*
X0287751Y0364003D01*
X0287874Y0363997D01*
X0287998Y0363988D01*
X0288120Y0363974D01*
X0288243Y0363957D01*
X0288365Y0363935D01*
X0288486Y0363910D01*
X0288606Y0363881D01*
X0288725Y0363849D01*
X0288844Y0363812D01*
X0288961Y0363772D01*
X0289076Y0363729D01*
X0289191Y0363681D01*
X0289303Y0363630D01*
X0289414Y0363576D01*
X0289524Y0363518D01*
X0289631Y0363457D01*
X0289737Y0363392D01*
X0289840Y0363324D01*
X0289941Y0363253D01*
X0290040Y0363179D01*
X0290137Y0363102D01*
X0290231Y0363021D01*
X0290322Y0362938D01*
X0290411Y0362852D01*
X0290497Y0362763D01*
X0290580Y0362672D01*
X0290661Y0362578D01*
X0290738Y0362481D01*
X0290812Y0362382D01*
X0290883Y0362281D01*
X0290951Y0362178D01*
X0291016Y0362072D01*
X0291077Y0361965D01*
X0291135Y0361855D01*
X0291189Y0361744D01*
X0291240Y0361632D01*
X0291288Y0361517D01*
X0291331Y0361402D01*
X0291371Y0361285D01*
X0291408Y0361166D01*
X0291440Y0361047D01*
X0291469Y0360927D01*
X0291494Y0360806D01*
X0291516Y0360684D01*
X0291533Y0360561D01*
X0291547Y0360439D01*
X0291556Y0360315D01*
X0291562Y0360192D01*
X0291564Y0360068D01*
X0291564Y0265580D01*
X0369123Y0265580D01*
X0369247Y0265578D01*
X0369370Y0265572D01*
X0369494Y0265563D01*
X0369616Y0265549D01*
X0369739Y0265532D01*
X0369861Y0265510D01*
X0369982Y0265485D01*
X0370102Y0265456D01*
X0370221Y0265424D01*
X0370340Y0265387D01*
X0370457Y0265347D01*
X0370572Y0265304D01*
X0370687Y0265256D01*
X0370799Y0265205D01*
X0370910Y0265151D01*
X0371020Y0265093D01*
X0371127Y0265032D01*
X0371233Y0264967D01*
X0371336Y0264899D01*
X0371437Y0264828D01*
X0371536Y0264754D01*
X0371633Y0264677D01*
X0371727Y0264596D01*
X0371818Y0264513D01*
X0371907Y0264427D01*
X0371993Y0264338D01*
X0372076Y0264247D01*
X0372157Y0264153D01*
X0372234Y0264056D01*
X0372308Y0263957D01*
X0372379Y0263856D01*
X0372447Y0263753D01*
X0372512Y0263647D01*
X0372573Y0263540D01*
X0372631Y0263430D01*
X0372685Y0263319D01*
X0372736Y0263207D01*
X0372784Y0263092D01*
X0372827Y0262977D01*
X0372867Y0262860D01*
X0372904Y0262741D01*
X0372936Y0262622D01*
X0372965Y0262502D01*
X0372990Y0262381D01*
X0373012Y0262259D01*
X0373029Y0262136D01*
X0373043Y0262014D01*
X0373052Y0261890D01*
X0373058Y0261767D01*
X0373060Y0261643D01*
X0373060Y0013611D01*
X0373058Y0013487D01*
X0373052Y0013364D01*
X0373043Y0013240D01*
X0373029Y0013118D01*
X0373012Y0012995D01*
X0372990Y0012873D01*
X0372965Y0012752D01*
X0372936Y0012632D01*
X0372904Y0012513D01*
X0372867Y0012394D01*
X0372827Y0012277D01*
X0372784Y0012162D01*
X0372736Y0012047D01*
X0372685Y0011935D01*
X0372631Y0011824D01*
X0372573Y0011714D01*
X0372512Y0011607D01*
X0372447Y0011501D01*
X0372379Y0011398D01*
X0372308Y0011297D01*
X0372234Y0011198D01*
X0372157Y0011101D01*
X0372076Y0011007D01*
X0371993Y0010916D01*
X0371907Y0010827D01*
X0371818Y0010741D01*
X0371727Y0010658D01*
X0371633Y0010577D01*
X0371536Y0010500D01*
X0371437Y0010426D01*
X0371336Y0010355D01*
X0371233Y0010287D01*
X0371127Y0010222D01*
X0371020Y0010161D01*
X0370910Y0010103D01*
X0370799Y0010049D01*
X0370687Y0009998D01*
X0370572Y0009950D01*
X0370457Y0009907D01*
X0370340Y0009867D01*
X0370221Y0009830D01*
X0370102Y0009798D01*
X0369982Y0009769D01*
X0369861Y0009744D01*
X0369739Y0009722D01*
X0369616Y0009705D01*
X0369494Y0009691D01*
X0369370Y0009682D01*
X0369247Y0009676D01*
X0369123Y0009674D01*
X0022666Y0009674D01*
X0022542Y0009676D01*
X0022419Y0009682D01*
X0022295Y0009691D01*
X0022173Y0009705D01*
X0022050Y0009722D01*
X0021928Y0009744D01*
X0021807Y0009769D01*
X0021687Y0009798D01*
X0021568Y0009830D01*
X0021449Y0009867D01*
X0021332Y0009907D01*
X0021217Y0009950D01*
X0021102Y0009998D01*
X0020990Y0010049D01*
X0020879Y0010103D01*
X0020769Y0010161D01*
X0020662Y0010222D01*
X0020556Y0010287D01*
X0020453Y0010355D01*
X0020352Y0010426D01*
X0020253Y0010500D01*
X0020156Y0010577D01*
X0020062Y0010658D01*
X0019971Y0010741D01*
X0019882Y0010827D01*
X0019796Y0010916D01*
X0019713Y0011007D01*
X0019632Y0011101D01*
X0019555Y0011198D01*
X0019481Y0011297D01*
X0019410Y0011398D01*
X0019342Y0011501D01*
X0019277Y0011607D01*
X0019216Y0011714D01*
X0019158Y0011824D01*
X0019104Y0011935D01*
X0019053Y0012047D01*
X0019005Y0012162D01*
X0018962Y0012277D01*
X0018922Y0012394D01*
X0018885Y0012513D01*
X0018853Y0012632D01*
X0018824Y0012752D01*
X0018799Y0012873D01*
X0018777Y0012995D01*
X0018760Y0013118D01*
X0018746Y0013240D01*
X0018737Y0013364D01*
X0018731Y0013487D01*
X0018729Y0013611D01*
D11*
X0059187Y0043045D02*
X0059187Y0049450D01*
X0062389Y0049450D01*
X0063457Y0048383D01*
X0063457Y0044112D01*
X0062389Y0043045D01*
X0059187Y0043045D01*
X0059974Y0040395D02*
X0063177Y0040395D01*
X0064244Y0039328D01*
X0064244Y0038260D01*
X0063177Y0037192D01*
X0059974Y0037192D01*
X0059974Y0033990D02*
X0063177Y0033990D01*
X0064244Y0035057D01*
X0064244Y0036125D01*
X0063177Y0037192D01*
X0059974Y0033990D02*
X0059974Y0040395D01*
X0065632Y0043045D02*
X0069902Y0049450D01*
X0072078Y0048383D02*
X0072078Y0044112D01*
X0073145Y0043045D01*
X0075280Y0043045D01*
X0076348Y0044112D01*
X0077135Y0040395D02*
X0072865Y0036125D01*
X0073933Y0037192D02*
X0077135Y0033990D01*
X0078230Y0030553D02*
X0077162Y0029485D01*
X0077162Y0025215D01*
X0078230Y0024147D01*
X0080365Y0024147D01*
X0081432Y0025215D01*
X0081432Y0029485D01*
X0080365Y0030553D01*
X0078230Y0030553D01*
X0074987Y0029485D02*
X0073919Y0030553D01*
X0071784Y0030553D01*
X0070717Y0029485D01*
X0070717Y0028418D01*
X0071784Y0027350D01*
X0073919Y0027350D01*
X0074987Y0026282D01*
X0074987Y0025215D01*
X0073919Y0024147D01*
X0071784Y0024147D01*
X0070717Y0025215D01*
X0068555Y0024147D02*
X0066420Y0024147D01*
X0067487Y0024147D02*
X0067487Y0030553D01*
X0066420Y0030553D02*
X0068555Y0030553D01*
X0066420Y0033990D02*
X0070690Y0033990D01*
X0072865Y0033990D02*
X0072865Y0040395D01*
X0066420Y0040395D02*
X0066420Y0033990D01*
X0064244Y0030553D02*
X0064244Y0024147D01*
X0059974Y0024147D02*
X0059974Y0030553D01*
X0062109Y0028418D01*
X0064244Y0030553D01*
X0072078Y0048383D02*
X0073145Y0049450D01*
X0075280Y0049450D01*
X0076348Y0048383D01*
X0074887Y0053675D02*
X0072751Y0053675D01*
X0071684Y0054742D01*
X0072751Y0056878D02*
X0074887Y0056878D01*
X0075954Y0055810D01*
X0075954Y0054742D01*
X0074887Y0053675D01*
X0072751Y0056878D02*
X0071684Y0057945D01*
X0071684Y0059013D01*
X0072751Y0060080D01*
X0074887Y0060080D01*
X0075954Y0059013D01*
X0074493Y0063124D02*
X0072358Y0063124D01*
X0071290Y0064191D01*
X0069115Y0064191D02*
X0069115Y0068462D01*
X0068047Y0069529D01*
X0065912Y0069529D01*
X0064845Y0068462D01*
X0064845Y0064191D01*
X0065912Y0063124D01*
X0068047Y0063124D01*
X0069115Y0064191D01*
X0071290Y0067394D02*
X0072358Y0066326D01*
X0074493Y0066326D01*
X0075561Y0065259D01*
X0075561Y0064191D01*
X0074493Y0063124D01*
X0077736Y0063124D02*
X0079871Y0063124D01*
X0078803Y0063124D02*
X0078803Y0069529D01*
X0077736Y0069529D02*
X0079871Y0069529D01*
X0075561Y0068462D02*
X0074493Y0069529D01*
X0072358Y0069529D01*
X0071290Y0068462D01*
X0071290Y0067394D01*
X0071290Y0074147D02*
X0071290Y0080553D01*
X0069115Y0079485D02*
X0068047Y0080553D01*
X0065912Y0080553D01*
X0064845Y0079485D01*
X0064845Y0075215D01*
X0065912Y0074147D01*
X0068047Y0074147D01*
X0069115Y0075215D01*
X0071290Y0076282D02*
X0075561Y0080553D01*
X0074493Y0083990D02*
X0072358Y0083990D01*
X0071290Y0085057D01*
X0069115Y0086125D02*
X0069115Y0090395D01*
X0071290Y0089328D02*
X0072358Y0090395D01*
X0074493Y0090395D01*
X0075561Y0089328D01*
X0075561Y0088260D01*
X0074493Y0087192D01*
X0075561Y0086125D01*
X0075561Y0085057D01*
X0074493Y0083990D01*
X0074493Y0087192D02*
X0073425Y0087192D01*
X0069115Y0086125D02*
X0066980Y0083990D01*
X0064845Y0086125D01*
X0064845Y0090395D01*
X0062670Y0089328D02*
X0062670Y0088260D01*
X0061602Y0087192D01*
X0062670Y0086125D01*
X0062670Y0085057D01*
X0061602Y0083990D01*
X0059467Y0083990D01*
X0058399Y0085057D01*
X0060534Y0087192D02*
X0061602Y0087192D01*
X0062670Y0089328D02*
X0061602Y0090395D01*
X0059467Y0090395D01*
X0058399Y0089328D01*
X0059467Y0094226D02*
X0061602Y0094226D01*
X0062670Y0095294D01*
X0062670Y0097429D01*
X0060534Y0097429D01*
X0058399Y0099564D02*
X0058399Y0095294D01*
X0059467Y0094226D01*
X0064845Y0094226D02*
X0064845Y0100631D01*
X0069115Y0094226D01*
X0069115Y0100631D01*
X0071290Y0100631D02*
X0074493Y0100631D01*
X0075561Y0099564D01*
X0075561Y0095294D01*
X0074493Y0094226D01*
X0071290Y0094226D01*
X0071290Y0100631D01*
X0062670Y0099564D02*
X0061602Y0100631D01*
X0059467Y0100631D01*
X0058399Y0099564D01*
X0059467Y0080553D02*
X0058399Y0079485D01*
X0058399Y0078418D01*
X0059467Y0077350D01*
X0061602Y0077350D01*
X0062670Y0076282D01*
X0062670Y0075215D01*
X0061602Y0074147D01*
X0059467Y0074147D01*
X0058399Y0075215D01*
X0058399Y0069529D02*
X0060534Y0067394D01*
X0062670Y0069529D01*
X0062670Y0063124D01*
X0061996Y0060080D02*
X0058793Y0060080D01*
X0058793Y0053675D01*
X0058793Y0055810D02*
X0061996Y0055810D01*
X0063063Y0056878D01*
X0063063Y0059013D01*
X0061996Y0060080D01*
X0065238Y0060080D02*
X0065238Y0053675D01*
X0069509Y0053675D01*
X0067374Y0056878D02*
X0065238Y0056878D01*
X0065238Y0060080D02*
X0069509Y0060080D01*
X0063063Y0053675D02*
X0060928Y0055810D01*
X0058399Y0063124D02*
X0058399Y0069529D01*
X0062670Y0079485D02*
X0061602Y0080553D01*
X0059467Y0080553D01*
X0072358Y0077350D02*
X0075561Y0074147D01*
X0096918Y0124587D02*
X0103296Y0124587D01*
X0103296Y0128131D02*
X0103296Y0132241D01*
X0103296Y0135784D02*
X0096918Y0135784D01*
X0096918Y0132241D02*
X0096918Y0131871D01*
X0096918Y0128501D02*
X0096918Y0128131D01*
X0260855Y0138414D02*
X0260855Y0140776D01*
X0265580Y0140776D02*
X0265580Y0138414D01*
X0277784Y0138808D02*
X0277784Y0141170D01*
X0282509Y0141170D02*
X0282509Y0138808D01*
X0295894Y0138808D02*
X0295894Y0141170D01*
X0300619Y0141170D02*
X0300619Y0138808D01*
X0312730Y0138540D02*
X0312730Y0137473D01*
X0313797Y0136405D01*
X0315933Y0136405D01*
X0317000Y0135338D01*
X0317000Y0134270D01*
X0315933Y0133202D01*
X0313797Y0133202D01*
X0312730Y0134270D01*
X0312730Y0138540D02*
X0313797Y0139608D01*
X0315933Y0139608D01*
X0317000Y0138540D01*
X0319175Y0139608D02*
X0319175Y0133202D01*
X0321311Y0135338D01*
X0323446Y0133202D01*
X0323446Y0139608D01*
X0325621Y0139608D02*
X0325621Y0133202D01*
X0328824Y0133202D01*
X0329891Y0134270D01*
X0329891Y0138540D01*
X0328824Y0139608D01*
X0325621Y0139608D01*
X0327756Y0143045D02*
X0327756Y0149450D01*
X0325621Y0149450D02*
X0329891Y0149450D01*
X0332066Y0148383D02*
X0332066Y0144112D01*
X0333134Y0143045D01*
X0335269Y0143045D01*
X0336337Y0144112D01*
X0338512Y0143045D02*
X0338512Y0149450D01*
X0336337Y0148383D02*
X0335269Y0149450D01*
X0333134Y0149450D01*
X0332066Y0148383D01*
X0338512Y0145180D02*
X0342782Y0149450D01*
X0339579Y0146248D02*
X0342782Y0143045D01*
X0339566Y0139608D02*
X0340634Y0138540D01*
X0340634Y0134270D01*
X0339566Y0133202D01*
X0337431Y0133202D01*
X0336363Y0134270D01*
X0336363Y0138540D01*
X0337431Y0139608D01*
X0339566Y0139608D01*
X0334202Y0139608D02*
X0332066Y0139608D01*
X0333134Y0139608D02*
X0333134Y0133202D01*
X0332066Y0133202D02*
X0334202Y0133202D01*
X0338418Y0126388D02*
X0342688Y0122118D01*
X0343756Y0123185D01*
X0343756Y0125320D01*
X0342688Y0126388D01*
X0338418Y0126388D01*
X0337350Y0125320D01*
X0337350Y0123185D01*
X0338418Y0122118D01*
X0342688Y0122118D01*
X0342688Y0119962D02*
X0343756Y0119962D01*
X0343756Y0118895D01*
X0342688Y0118895D01*
X0342688Y0119962D01*
X0343756Y0116720D02*
X0343756Y0112449D01*
X0343756Y0114585D02*
X0337350Y0114585D01*
X0339486Y0112449D01*
X0339486Y0110274D02*
X0343756Y0108139D01*
X0339486Y0106004D01*
X0340553Y0103829D02*
X0340553Y0099558D01*
X0340553Y0097383D02*
X0339486Y0096316D01*
X0339486Y0093113D01*
X0343756Y0093113D01*
X0342688Y0090938D02*
X0340553Y0090938D01*
X0339486Y0089870D01*
X0339486Y0087735D01*
X0340553Y0086667D01*
X0342688Y0086667D01*
X0343756Y0087735D01*
X0343756Y0089870D01*
X0342688Y0090938D01*
X0343756Y0084506D02*
X0343756Y0082370D01*
X0343756Y0083438D02*
X0339486Y0083438D01*
X0339486Y0082370D01*
X0339486Y0080195D02*
X0339486Y0076992D01*
X0340553Y0075925D01*
X0341621Y0076992D01*
X0341621Y0079128D01*
X0342688Y0080195D01*
X0343756Y0079128D01*
X0343756Y0075925D01*
X0343756Y0073763D02*
X0343756Y0071628D01*
X0343756Y0072695D02*
X0339486Y0072695D01*
X0339486Y0071628D01*
X0337350Y0072695D02*
X0336283Y0072695D01*
X0337350Y0069453D02*
X0341621Y0069453D01*
X0343756Y0067318D01*
X0341621Y0065182D01*
X0337350Y0065182D01*
X0340553Y0063007D02*
X0340553Y0058737D01*
X0338418Y0056562D02*
X0337350Y0055494D01*
X0337350Y0053359D01*
X0338418Y0052291D01*
X0342688Y0052291D01*
X0343756Y0053359D01*
X0343756Y0055494D01*
X0342688Y0056562D01*
X0338418Y0056562D01*
X0338418Y0050116D02*
X0339486Y0050116D01*
X0340553Y0049049D01*
X0340553Y0045846D01*
X0338418Y0043671D02*
X0337350Y0042603D01*
X0337350Y0040468D01*
X0338418Y0039400D01*
X0342688Y0039400D01*
X0343756Y0040468D01*
X0343756Y0042603D01*
X0342688Y0043671D01*
X0338418Y0043671D01*
X0337350Y0045846D02*
X0337350Y0049049D01*
X0338418Y0050116D01*
X0340553Y0049049D02*
X0341621Y0050116D01*
X0342688Y0050116D01*
X0343756Y0049049D01*
X0343756Y0045846D01*
X0337350Y0045846D01*
X0338418Y0037225D02*
X0340553Y0037225D01*
X0341621Y0036158D01*
X0341621Y0032955D01*
X0343756Y0032955D02*
X0337350Y0032955D01*
X0337350Y0036158D01*
X0338418Y0037225D01*
X0341621Y0035090D02*
X0343756Y0037225D01*
X0342688Y0030780D02*
X0340553Y0030780D01*
X0340553Y0028645D01*
X0338418Y0030780D02*
X0337350Y0029712D01*
X0337350Y0027577D01*
X0338418Y0026509D01*
X0342688Y0026509D01*
X0343756Y0027577D01*
X0343756Y0029712D01*
X0342688Y0030780D01*
X0347850Y0029712D02*
X0347850Y0027577D01*
X0348918Y0026509D01*
X0347850Y0029712D02*
X0348918Y0030780D01*
X0349986Y0030780D01*
X0354256Y0026509D01*
X0354256Y0030780D01*
X0353188Y0032955D02*
X0348918Y0037225D01*
X0353188Y0037225D01*
X0354256Y0036158D01*
X0354256Y0034023D01*
X0353188Y0032955D01*
X0348918Y0032955D01*
X0347850Y0034023D01*
X0347850Y0036158D01*
X0348918Y0037225D01*
X0349986Y0039400D02*
X0347850Y0041536D01*
X0354256Y0041536D01*
X0354256Y0043671D02*
X0354256Y0039400D01*
X0353188Y0045846D02*
X0354256Y0046914D01*
X0354256Y0049049D01*
X0353188Y0050116D01*
X0348918Y0050116D01*
X0347850Y0049049D01*
X0347850Y0046914D01*
X0348918Y0045846D01*
X0349986Y0045846D01*
X0351053Y0046914D01*
X0351053Y0050116D01*
X0348918Y0052291D02*
X0347850Y0053359D01*
X0347850Y0055494D01*
X0348918Y0056562D01*
X0353188Y0052291D01*
X0354256Y0053359D01*
X0354256Y0055494D01*
X0353188Y0056562D01*
X0348918Y0056562D01*
X0347850Y0058737D02*
X0351053Y0058737D01*
X0349986Y0060872D01*
X0349986Y0061940D01*
X0351053Y0063007D01*
X0353188Y0063007D01*
X0354256Y0061940D01*
X0354256Y0059805D01*
X0353188Y0058737D01*
X0347850Y0058737D02*
X0347850Y0063007D01*
X0348918Y0065182D02*
X0347850Y0066250D01*
X0347850Y0068385D01*
X0348918Y0069453D01*
X0349986Y0069453D01*
X0354256Y0065182D01*
X0354256Y0069453D01*
X0354256Y0071628D02*
X0349986Y0075898D01*
X0348918Y0075898D01*
X0347850Y0074831D01*
X0347850Y0072695D01*
X0348918Y0071628D01*
X0354256Y0071628D02*
X0354256Y0075898D01*
X0337350Y0083438D02*
X0336283Y0083438D01*
X0340553Y0097383D02*
X0343756Y0097383D01*
X0346868Y0113124D02*
X0345801Y0114191D01*
X0346868Y0113124D02*
X0349004Y0113124D01*
X0350071Y0114191D01*
X0350071Y0115259D01*
X0349004Y0116326D01*
X0347936Y0116326D01*
X0349004Y0116326D02*
X0350071Y0117394D01*
X0350071Y0118462D01*
X0349004Y0119529D01*
X0346868Y0119529D01*
X0345801Y0118462D01*
X0349280Y0123985D02*
X0351780Y0121485D01*
X0356780Y0121485D01*
X0359280Y0123985D01*
X0359280Y0128985D01*
X0356780Y0131485D01*
X0359280Y0133985D01*
X0359280Y0138985D01*
X0356780Y0141485D01*
X0351780Y0141485D01*
X0349280Y0138985D01*
X0349280Y0133985D01*
X0351780Y0131485D01*
X0356780Y0131485D01*
X0351780Y0131485D02*
X0349280Y0128985D01*
X0349280Y0123985D01*
X0352246Y0119529D02*
X0352246Y0115259D01*
X0354381Y0113124D01*
X0356517Y0115259D01*
X0356517Y0119529D01*
X0358692Y0118462D02*
X0359759Y0119529D01*
X0361895Y0119529D01*
X0362962Y0118462D01*
X0362962Y0117394D01*
X0361895Y0116326D01*
X0362962Y0115259D01*
X0362962Y0114191D01*
X0361895Y0113124D01*
X0359759Y0113124D01*
X0358692Y0114191D01*
X0360827Y0116326D02*
X0361895Y0116326D01*
X0356780Y0141485D02*
X0359280Y0143985D01*
X0359280Y0148985D01*
X0356780Y0151485D01*
X0359280Y0153985D01*
X0359280Y0158985D01*
X0356780Y0161485D01*
X0351780Y0161485D01*
X0349280Y0158985D01*
X0349280Y0153985D01*
X0351780Y0151485D01*
X0356780Y0151485D01*
X0351780Y0151485D02*
X0349280Y0148985D01*
X0349280Y0143985D01*
X0351780Y0141485D01*
X0351065Y0164698D02*
X0351065Y0171104D01*
X0355335Y0164698D01*
X0355335Y0171104D01*
X0357511Y0171104D02*
X0360713Y0171104D01*
X0361781Y0170036D01*
X0361781Y0165766D01*
X0360713Y0164698D01*
X0357511Y0164698D01*
X0357511Y0171104D01*
X0348890Y0170036D02*
X0347822Y0171104D01*
X0345687Y0171104D01*
X0344620Y0170036D01*
X0344620Y0165766D01*
X0345687Y0164698D01*
X0347822Y0164698D01*
X0348890Y0165766D01*
X0348890Y0167901D01*
X0346755Y0167901D01*
X0323446Y0149450D02*
X0323446Y0143045D01*
X0321311Y0145180D01*
X0319175Y0143045D01*
X0319175Y0149450D01*
X0317000Y0148383D02*
X0315933Y0149450D01*
X0313797Y0149450D01*
X0312730Y0148383D01*
X0312730Y0147315D01*
X0313797Y0146248D01*
X0315933Y0146248D01*
X0317000Y0145180D01*
X0317000Y0144112D01*
X0315933Y0143045D01*
X0313797Y0143045D01*
X0312730Y0144112D01*
X0301013Y0160461D02*
X0301013Y0162824D01*
X0296288Y0162824D02*
X0296288Y0160461D01*
X0282115Y0122272D02*
X0279753Y0122272D01*
X0279753Y0117548D02*
X0282115Y0117548D01*
X0348918Y0052291D02*
X0353188Y0052291D01*
X0267058Y0298557D02*
X0264923Y0298557D01*
X0263855Y0299624D01*
X0268125Y0303895D01*
X0268125Y0299624D01*
X0267058Y0298557D01*
X0263855Y0299624D02*
X0263855Y0303895D01*
X0264923Y0304962D01*
X0267058Y0304962D01*
X0268125Y0303895D01*
X0267058Y0309057D02*
X0264923Y0309057D01*
X0263855Y0310124D01*
X0268125Y0314395D01*
X0268125Y0310124D01*
X0267058Y0309057D01*
X0263855Y0310124D02*
X0263855Y0314395D01*
X0264923Y0315462D01*
X0267058Y0315462D01*
X0268125Y0314395D01*
X0261680Y0312259D02*
X0257410Y0312259D01*
X0260612Y0315462D01*
X0260612Y0309057D01*
X0261680Y0304962D02*
X0257410Y0304962D01*
X0255234Y0304962D02*
X0253099Y0303895D01*
X0250964Y0301759D01*
X0254167Y0301759D01*
X0255234Y0300692D01*
X0255234Y0299624D01*
X0254167Y0298557D01*
X0252032Y0298557D01*
X0250964Y0299624D01*
X0250964Y0301759D01*
X0248789Y0303895D02*
X0244519Y0299624D01*
X0244519Y0298557D01*
X0242343Y0300692D02*
X0242343Y0304962D01*
X0244519Y0304962D02*
X0248789Y0304962D01*
X0248789Y0303895D01*
X0248789Y0309057D02*
X0244519Y0309057D01*
X0248789Y0313327D01*
X0248789Y0314395D01*
X0247721Y0315462D01*
X0245586Y0315462D01*
X0244519Y0314395D01*
X0242343Y0315462D02*
X0242343Y0311192D01*
X0240208Y0309057D01*
X0238073Y0311192D01*
X0238073Y0315462D01*
X0235898Y0314395D02*
X0234830Y0315462D01*
X0232695Y0315462D01*
X0231628Y0314395D01*
X0231628Y0310124D01*
X0232695Y0309057D01*
X0234830Y0309057D01*
X0235898Y0310124D01*
X0235898Y0314395D01*
X0234830Y0304962D02*
X0232695Y0304962D01*
X0231628Y0303895D01*
X0231628Y0299624D01*
X0232695Y0298557D01*
X0234830Y0298557D01*
X0235898Y0299624D01*
X0235898Y0303895D01*
X0234830Y0304962D01*
X0238073Y0304962D02*
X0238073Y0300692D01*
X0240208Y0298557D01*
X0242343Y0300692D01*
X0250964Y0310124D02*
X0252032Y0309057D01*
X0254167Y0309057D01*
X0255234Y0310124D01*
X0255234Y0311192D01*
X0254167Y0312259D01*
X0250964Y0312259D01*
X0250964Y0310124D01*
X0250964Y0312259D02*
X0253099Y0314395D01*
X0255234Y0315462D01*
X0261680Y0304962D02*
X0261680Y0303895D01*
X0257410Y0299624D01*
X0257410Y0298557D01*
X0258511Y0353281D02*
X0257443Y0354349D01*
X0257443Y0356484D01*
X0258511Y0357551D01*
X0260646Y0357551D01*
X0261714Y0356484D01*
X0261714Y0354349D01*
X0260646Y0353281D01*
X0258511Y0353281D01*
X0255281Y0353281D02*
X0253146Y0353281D01*
X0254214Y0353281D02*
X0254214Y0357551D01*
X0253146Y0357551D01*
X0250971Y0357551D02*
X0247768Y0357551D01*
X0246701Y0356484D01*
X0247768Y0355416D01*
X0249903Y0355416D01*
X0250971Y0354349D01*
X0249903Y0353281D01*
X0246701Y0353281D01*
X0244539Y0353281D02*
X0242404Y0353281D01*
X0243471Y0353281D02*
X0243471Y0357551D01*
X0242404Y0357551D01*
X0243471Y0359687D02*
X0243471Y0360754D01*
X0240229Y0359687D02*
X0240229Y0355416D01*
X0238093Y0353281D01*
X0235958Y0355416D01*
X0235958Y0359687D01*
X0254214Y0359687D02*
X0254214Y0360754D01*
X0263889Y0357551D02*
X0263889Y0353281D01*
X0268159Y0353281D02*
X0268159Y0356484D01*
X0267091Y0357551D01*
X0263889Y0357551D01*
D12*
X0267350Y0252017D02*
X0270419Y0247413D01*
X0271954Y0248181D02*
X0272721Y0247413D01*
X0274255Y0247413D01*
X0275023Y0248181D01*
X0275023Y0248948D01*
X0274255Y0249715D01*
X0273488Y0249715D01*
X0274255Y0249715D02*
X0275023Y0250483D01*
X0275023Y0251250D01*
X0274255Y0252017D01*
X0272721Y0252017D01*
X0271954Y0251250D01*
X0270419Y0252017D02*
X0267350Y0247413D01*
X0267350Y0214183D02*
X0270419Y0209579D01*
X0271954Y0209579D02*
X0275023Y0212648D01*
X0275023Y0213415D01*
X0274255Y0214183D01*
X0272721Y0214183D01*
X0271954Y0213415D01*
X0270419Y0214183D02*
X0267350Y0209579D01*
X0271954Y0209579D02*
X0275023Y0209579D01*
X0330740Y0207915D02*
X0331608Y0208782D01*
X0333342Y0208782D01*
X0334210Y0207915D01*
X0334210Y0207048D01*
X0333342Y0206180D01*
X0334210Y0205313D01*
X0334210Y0204445D01*
X0333342Y0203578D01*
X0331608Y0203578D01*
X0330740Y0204445D01*
X0332475Y0206180D02*
X0333342Y0206180D01*
X0335897Y0205313D02*
X0337631Y0203578D01*
X0339366Y0205313D01*
X0339366Y0208782D01*
X0341053Y0207915D02*
X0341920Y0208782D01*
X0343655Y0208782D01*
X0344523Y0207915D01*
X0344523Y0207048D01*
X0343655Y0206180D01*
X0344523Y0205313D01*
X0344523Y0204445D01*
X0343655Y0203578D01*
X0341920Y0203578D01*
X0341053Y0204445D01*
X0342788Y0206180D02*
X0343655Y0206180D01*
X0338499Y0200382D02*
X0336764Y0200382D01*
X0335897Y0199515D01*
X0335897Y0198648D01*
X0336764Y0197780D01*
X0338499Y0197780D01*
X0339366Y0196913D01*
X0339366Y0196045D01*
X0338499Y0195178D01*
X0336764Y0195178D01*
X0335897Y0196045D01*
X0334210Y0196045D02*
X0333342Y0195178D01*
X0331608Y0195178D01*
X0330740Y0196045D01*
X0330740Y0199515D01*
X0331608Y0200382D01*
X0333342Y0200382D01*
X0334210Y0199515D01*
X0338499Y0200382D02*
X0339366Y0199515D01*
X0335897Y0205313D02*
X0335897Y0208782D01*
X0336764Y0191982D02*
X0335897Y0191115D01*
X0335897Y0187645D01*
X0336764Y0186778D01*
X0338499Y0186778D01*
X0339366Y0187645D01*
X0339366Y0191115D01*
X0338499Y0191982D01*
X0336764Y0191982D01*
X0334210Y0191982D02*
X0334210Y0186778D01*
X0334178Y0183582D02*
X0336780Y0183582D01*
X0337647Y0182715D01*
X0337647Y0180980D01*
X0336780Y0180113D01*
X0334178Y0180113D01*
X0335913Y0180113D02*
X0337647Y0178378D01*
X0339334Y0179245D02*
X0340202Y0178378D01*
X0341936Y0178378D01*
X0342804Y0179245D01*
X0342804Y0182715D01*
X0341936Y0183582D01*
X0340202Y0183582D01*
X0339334Y0182715D01*
X0339334Y0179245D01*
X0341069Y0180113D02*
X0342804Y0178378D01*
X0334178Y0178378D02*
X0334178Y0183582D01*
X0332475Y0183582D02*
X0330740Y0183582D01*
X0331608Y0183582D02*
X0331608Y0178378D01*
X0332475Y0178378D02*
X0330740Y0178378D01*
X0330740Y0186778D02*
X0330740Y0191982D01*
X0332475Y0190248D01*
X0334210Y0191982D01*
X0341053Y0191115D02*
X0341053Y0190248D01*
X0341920Y0189380D01*
X0343655Y0189380D01*
X0344523Y0188513D01*
X0344523Y0187645D01*
X0343655Y0186778D01*
X0341920Y0186778D01*
X0341053Y0187645D01*
X0341053Y0191115D02*
X0341920Y0191982D01*
X0343655Y0191982D01*
X0344523Y0191115D01*
X0346209Y0191982D02*
X0347944Y0191982D01*
X0347077Y0191982D02*
X0347077Y0186778D01*
X0347944Y0186778D02*
X0346209Y0186778D01*
X0354803Y0187645D02*
X0355671Y0186778D01*
X0357406Y0186778D01*
X0358273Y0187645D01*
X0358273Y0188513D01*
X0357406Y0189380D01*
X0355671Y0189380D01*
X0354803Y0190248D01*
X0354803Y0191115D01*
X0355671Y0191982D01*
X0357406Y0191982D01*
X0358273Y0191115D01*
X0359960Y0191115D02*
X0359960Y0187645D01*
X0360827Y0186778D01*
X0362562Y0186778D01*
X0363429Y0187645D01*
X0365116Y0186778D02*
X0365116Y0191982D01*
X0363429Y0191115D02*
X0362562Y0191982D01*
X0360827Y0191982D01*
X0359960Y0191115D01*
X0365116Y0188513D02*
X0368586Y0191982D01*
X0365984Y0189380D02*
X0368586Y0186778D01*
X0369421Y0183582D02*
X0368554Y0182715D01*
X0368554Y0181848D01*
X0369421Y0180980D01*
X0371156Y0180980D01*
X0372023Y0180113D01*
X0372023Y0179245D01*
X0371156Y0178378D01*
X0369421Y0178378D01*
X0368554Y0179245D01*
X0366851Y0178378D02*
X0365116Y0178378D01*
X0365984Y0178378D02*
X0365984Y0183582D01*
X0366851Y0183582D02*
X0365116Y0183582D01*
X0363429Y0183582D02*
X0361695Y0181848D01*
X0359960Y0183582D01*
X0359960Y0178378D01*
X0363429Y0178378D02*
X0363429Y0183582D01*
X0369421Y0183582D02*
X0371156Y0183582D01*
X0372023Y0182715D01*
X0373710Y0182715D02*
X0373710Y0179245D01*
X0374578Y0178378D01*
X0376312Y0178378D01*
X0377180Y0179245D01*
X0377180Y0182715D01*
X0376312Y0183582D01*
X0374578Y0183582D01*
X0373710Y0182715D01*
X0383172Y0195178D02*
X0384906Y0195178D01*
X0385774Y0196045D01*
X0387461Y0195178D02*
X0387461Y0200382D01*
X0390930Y0200382D01*
X0389195Y0197780D02*
X0387461Y0197780D01*
X0385774Y0199515D02*
X0384906Y0200382D01*
X0383172Y0200382D01*
X0382304Y0199515D01*
X0382304Y0196045D01*
X0383172Y0195178D01*
X0387461Y0195178D02*
X0390930Y0195178D01*
X0380617Y0204445D02*
X0380617Y0207915D01*
X0379750Y0208782D01*
X0377148Y0208782D01*
X0377148Y0203578D01*
X0379750Y0203578D01*
X0380617Y0204445D01*
X0375461Y0203578D02*
X0375461Y0208782D01*
X0371991Y0208782D02*
X0375461Y0203578D01*
X0371991Y0203578D02*
X0371991Y0208782D01*
X0370305Y0207915D02*
X0369437Y0208782D01*
X0367702Y0208782D01*
X0366835Y0207915D01*
X0366835Y0204445D01*
X0367702Y0203578D01*
X0369437Y0203578D01*
X0370305Y0204445D01*
X0370305Y0206180D01*
X0368570Y0206180D01*
X0260272Y0104548D02*
X0260272Y0101445D01*
X0260790Y0102996D02*
X0258721Y0102996D01*
X0260272Y0104548D01*
X0256533Y0104548D02*
X0256533Y0101445D01*
X0257567Y0101445D02*
X0255498Y0101445D01*
X0254344Y0101962D02*
X0253827Y0101445D01*
X0252793Y0101445D01*
X0252276Y0101962D01*
X0252276Y0104030D01*
X0252793Y0104548D01*
X0253827Y0104548D01*
X0254344Y0104030D01*
X0255498Y0103513D02*
X0256533Y0104548D01*
X0255892Y0088721D02*
X0255892Y0087169D01*
X0256926Y0087687D01*
X0257443Y0087687D01*
X0257960Y0087169D01*
X0257960Y0086135D01*
X0257443Y0085618D01*
X0256409Y0085618D01*
X0255892Y0086135D01*
X0254738Y0086135D02*
X0254221Y0085618D01*
X0253186Y0085618D01*
X0252669Y0086135D01*
X0252669Y0088204D01*
X0253186Y0088721D01*
X0254221Y0088721D01*
X0254738Y0088204D01*
X0255892Y0088721D02*
X0257960Y0088721D01*
X0224911Y0059249D02*
X0224911Y0058215D01*
X0224394Y0057697D01*
X0222325Y0059766D01*
X0224394Y0059766D01*
X0224911Y0059249D01*
X0224394Y0057697D02*
X0222325Y0057697D01*
X0221808Y0058215D01*
X0221808Y0059249D01*
X0222325Y0059766D01*
X0224911Y0056543D02*
X0224911Y0054475D01*
X0224911Y0055509D02*
X0221808Y0055509D01*
X0222843Y0054475D01*
X0222325Y0053320D02*
X0221808Y0052803D01*
X0221808Y0051769D01*
X0222325Y0051252D01*
X0224394Y0051252D01*
X0224911Y0051769D01*
X0224911Y0052803D01*
X0224394Y0053320D01*
X0224428Y0039220D02*
X0223911Y0038703D01*
X0223911Y0037152D01*
X0224945Y0037152D01*
X0225462Y0037669D01*
X0225462Y0038703D01*
X0224945Y0039220D01*
X0224428Y0039220D01*
X0222877Y0038186D02*
X0223911Y0037152D01*
X0222877Y0038186D02*
X0222360Y0039220D01*
X0222877Y0035998D02*
X0222360Y0035480D01*
X0222360Y0034446D01*
X0222877Y0033929D01*
X0224945Y0033929D01*
X0225462Y0034446D01*
X0225462Y0035480D01*
X0224945Y0035998D01*
X0208927Y0035795D02*
X0208410Y0036313D01*
X0208927Y0035795D02*
X0208927Y0034761D01*
X0208410Y0034244D01*
X0206341Y0034244D01*
X0205824Y0034761D01*
X0205824Y0035795D01*
X0206341Y0036313D01*
X0205824Y0037467D02*
X0205824Y0039535D01*
X0206341Y0039535D01*
X0208410Y0037467D01*
X0208927Y0037467D01*
X0208252Y0051961D02*
X0208769Y0052478D01*
X0208769Y0053512D01*
X0208252Y0054029D01*
X0208769Y0055183D02*
X0208769Y0057252D01*
X0208769Y0056218D02*
X0205667Y0056218D01*
X0206701Y0055183D01*
X0206184Y0054029D02*
X0205667Y0053512D01*
X0205667Y0052478D01*
X0206184Y0051961D01*
X0208252Y0051961D01*
X0208769Y0058406D02*
X0208769Y0060475D01*
X0208769Y0059440D02*
X0205667Y0059440D01*
X0206701Y0058406D01*
X0191761Y0058879D02*
X0189693Y0060947D01*
X0189176Y0060947D01*
X0188659Y0060430D01*
X0188659Y0059396D01*
X0189176Y0058879D01*
X0188659Y0056690D02*
X0191761Y0056690D01*
X0191761Y0055656D02*
X0191761Y0057724D01*
X0191761Y0058879D02*
X0191761Y0060947D01*
X0188659Y0056690D02*
X0189693Y0055656D01*
X0189176Y0054502D02*
X0188659Y0053984D01*
X0188659Y0052950D01*
X0189176Y0052433D01*
X0191244Y0052433D01*
X0191761Y0052950D01*
X0191761Y0053984D01*
X0191244Y0054502D01*
X0191402Y0039614D02*
X0191919Y0039097D01*
X0191919Y0038063D01*
X0191402Y0037546D01*
X0190885Y0037546D01*
X0190368Y0038063D01*
X0190368Y0039097D01*
X0190885Y0039614D01*
X0191402Y0039614D01*
X0190368Y0039097D02*
X0189850Y0039614D01*
X0189333Y0039614D01*
X0188816Y0039097D01*
X0188816Y0038063D01*
X0189333Y0037546D01*
X0189850Y0037546D01*
X0190368Y0038063D01*
X0191402Y0036391D02*
X0191919Y0035874D01*
X0191919Y0034840D01*
X0191402Y0034323D01*
X0189333Y0034323D01*
X0188816Y0034840D01*
X0188816Y0035874D01*
X0189333Y0036391D01*
X0175383Y0035795D02*
X0174866Y0036313D01*
X0175383Y0035795D02*
X0175383Y0034761D01*
X0174866Y0034244D01*
X0172798Y0034244D01*
X0172281Y0034761D01*
X0172281Y0035795D01*
X0172798Y0036313D01*
X0172798Y0037467D02*
X0173315Y0037467D01*
X0173832Y0037984D01*
X0173832Y0039535D01*
X0172798Y0039535D02*
X0172281Y0039018D01*
X0172281Y0037984D01*
X0172798Y0037467D01*
X0172798Y0039535D02*
X0174866Y0039535D01*
X0175383Y0039018D01*
X0175383Y0037984D01*
X0174866Y0037467D01*
X0174709Y0052354D02*
X0172640Y0052354D01*
X0172123Y0052871D01*
X0172123Y0053906D01*
X0172640Y0054423D01*
X0173158Y0055577D02*
X0172123Y0056611D01*
X0175226Y0056611D01*
X0175226Y0055577D02*
X0175226Y0057646D01*
X0174709Y0058800D02*
X0175226Y0059317D01*
X0175226Y0060351D01*
X0174709Y0060868D01*
X0174192Y0060868D01*
X0173675Y0060351D01*
X0173675Y0059834D01*
X0173675Y0060351D02*
X0173158Y0060868D01*
X0172640Y0060868D01*
X0172123Y0060351D01*
X0172123Y0059317D01*
X0172640Y0058800D01*
X0174709Y0054423D02*
X0175226Y0053906D01*
X0175226Y0052871D01*
X0174709Y0052354D01*
X0146946Y0064733D02*
X0146429Y0064216D01*
X0144361Y0064216D01*
X0143844Y0064733D01*
X0143844Y0065767D01*
X0144361Y0066284D01*
X0145395Y0067439D02*
X0145395Y0069507D01*
X0143844Y0068990D02*
X0145395Y0067439D01*
X0146429Y0066284D02*
X0146946Y0065767D01*
X0146946Y0064733D01*
X0146946Y0068990D02*
X0143844Y0068990D01*
X0141847Y0098846D02*
X0142364Y0099364D01*
X0142364Y0099881D01*
X0141847Y0100398D01*
X0140296Y0100398D01*
X0140296Y0099364D01*
X0140813Y0098846D01*
X0141847Y0098846D01*
X0140296Y0100398D02*
X0141330Y0101432D01*
X0142364Y0101949D01*
X0139142Y0098846D02*
X0137073Y0098846D01*
X0138107Y0098846D02*
X0138107Y0101949D01*
X0137073Y0100915D01*
X0135919Y0101432D02*
X0135402Y0101949D01*
X0134367Y0101949D01*
X0133850Y0101432D01*
X0133850Y0099364D01*
X0134367Y0098846D01*
X0135402Y0098846D01*
X0135919Y0099364D01*
X0112407Y0125609D02*
X0112407Y0127143D01*
X0112407Y0126376D02*
X0107803Y0126376D01*
X0107803Y0125609D02*
X0107803Y0127143D01*
X0108570Y0128678D02*
X0111640Y0128678D01*
X0112407Y0129445D01*
X0112407Y0130980D01*
X0111640Y0131747D01*
X0112407Y0133282D02*
X0112407Y0136351D01*
X0112407Y0134817D02*
X0107803Y0134817D01*
X0109338Y0133282D01*
X0108570Y0131747D02*
X0107803Y0130980D01*
X0107803Y0129445D01*
X0108570Y0128678D01*
X0103894Y0116201D02*
X0104412Y0115684D01*
X0102343Y0113616D01*
X0102860Y0113098D01*
X0103894Y0113098D01*
X0104412Y0113616D01*
X0104412Y0115684D01*
X0103894Y0116201D02*
X0102860Y0116201D01*
X0102343Y0115684D01*
X0102343Y0113616D01*
X0101189Y0113098D02*
X0099120Y0113098D01*
X0101189Y0115167D01*
X0101189Y0115684D01*
X0100672Y0116201D01*
X0099637Y0116201D01*
X0099120Y0115684D01*
X0097966Y0115684D02*
X0097449Y0116201D01*
X0096415Y0116201D01*
X0095898Y0115684D01*
X0095898Y0113616D01*
X0096415Y0113098D01*
X0097449Y0113098D01*
X0097966Y0113616D01*
X0078179Y0128659D02*
X0078179Y0129693D01*
X0077662Y0130210D01*
X0078179Y0131364D02*
X0076110Y0133433D01*
X0075593Y0133433D01*
X0075076Y0132916D01*
X0075076Y0131882D01*
X0075593Y0131364D01*
X0075593Y0130210D02*
X0075076Y0129693D01*
X0075076Y0128659D01*
X0075593Y0128142D01*
X0077662Y0128142D01*
X0078179Y0128659D01*
X0078179Y0131364D02*
X0078179Y0133433D01*
X0078179Y0134587D02*
X0078179Y0136656D01*
X0078179Y0135621D02*
X0075076Y0135621D01*
X0076110Y0134587D01*
X0103316Y0145556D02*
X0103833Y0145039D01*
X0104867Y0145039D01*
X0105384Y0145556D01*
X0106539Y0145039D02*
X0108607Y0145039D01*
X0107573Y0145039D02*
X0107573Y0148142D01*
X0106539Y0147108D01*
X0105384Y0147625D02*
X0104867Y0148142D01*
X0103833Y0148142D01*
X0103316Y0147625D01*
X0103316Y0145556D01*
X0109761Y0145556D02*
X0110279Y0145039D01*
X0111313Y0145039D01*
X0111830Y0145556D01*
X0111830Y0147625D01*
X0111313Y0148142D01*
X0110279Y0148142D01*
X0109761Y0147625D01*
X0109761Y0147108D01*
X0110279Y0146591D01*
X0111830Y0146591D01*
X0130701Y0154954D02*
X0131218Y0154437D01*
X0132252Y0154437D01*
X0132769Y0154954D01*
X0133924Y0154437D02*
X0135992Y0154437D01*
X0134958Y0154437D02*
X0134958Y0157540D01*
X0133924Y0156505D01*
X0132769Y0157023D02*
X0132252Y0157540D01*
X0131218Y0157540D01*
X0130701Y0157023D01*
X0130701Y0154954D01*
X0137146Y0154954D02*
X0137146Y0155471D01*
X0137663Y0155988D01*
X0138698Y0155988D01*
X0139215Y0155471D01*
X0139215Y0154954D01*
X0138698Y0154437D01*
X0137663Y0154437D01*
X0137146Y0154954D01*
X0137663Y0155988D02*
X0137146Y0156505D01*
X0137146Y0157023D01*
X0137663Y0157540D01*
X0138698Y0157540D01*
X0139215Y0157023D01*
X0139215Y0156505D01*
X0138698Y0155988D01*
X0138973Y0139429D02*
X0137939Y0138395D01*
X0136785Y0138912D02*
X0136268Y0139429D01*
X0135234Y0139429D01*
X0134717Y0138912D01*
X0134717Y0136844D01*
X0135234Y0136327D01*
X0136268Y0136327D01*
X0136785Y0136844D01*
X0137939Y0136327D02*
X0140008Y0136327D01*
X0138973Y0136327D02*
X0138973Y0139429D01*
X0141162Y0139429D02*
X0143230Y0139429D01*
X0143230Y0138912D01*
X0141162Y0136844D01*
X0141162Y0136327D01*
X0176803Y0169638D02*
X0177570Y0168870D01*
X0179105Y0168870D01*
X0179872Y0169638D01*
X0179872Y0173474D01*
X0181407Y0172707D02*
X0182174Y0173474D01*
X0183709Y0173474D01*
X0184476Y0172707D01*
X0183709Y0171172D02*
X0182174Y0171172D01*
X0181407Y0171940D01*
X0181407Y0172707D01*
X0182942Y0174242D02*
X0182942Y0168103D01*
X0183709Y0168870D02*
X0184476Y0169638D01*
X0184476Y0170405D01*
X0183709Y0171172D01*
X0183709Y0168870D02*
X0182174Y0168870D01*
X0181407Y0169638D01*
X0176803Y0169638D02*
X0176803Y0173474D01*
X0186011Y0171940D02*
X0187546Y0173474D01*
X0187546Y0168870D01*
X0189080Y0168870D02*
X0186011Y0168870D01*
X0136071Y0183222D02*
X0135554Y0182705D01*
X0134519Y0182705D01*
X0134002Y0183222D01*
X0132848Y0183222D02*
X0132331Y0182705D01*
X0131297Y0182705D01*
X0130780Y0183222D01*
X0130780Y0185290D01*
X0131297Y0185807D01*
X0132331Y0185807D01*
X0132848Y0185290D01*
X0134002Y0185290D02*
X0134519Y0185807D01*
X0135554Y0185807D01*
X0136071Y0185290D01*
X0136071Y0184773D01*
X0135554Y0184256D01*
X0136071Y0183739D01*
X0136071Y0183222D01*
X0135554Y0184256D02*
X0135036Y0184256D01*
D13*
X0171721Y0156879D02*
X0171721Y0105698D01*
X0172706Y0104713D01*
X0225855Y0104713D01*
X0226839Y0105698D01*
X0226839Y0158847D01*
X0225855Y0159831D01*
X0174674Y0159831D01*
X0171721Y0156879D01*
X0174674Y0155894D02*
X0174676Y0155956D01*
X0174682Y0156019D01*
X0174692Y0156080D01*
X0174706Y0156141D01*
X0174723Y0156201D01*
X0174744Y0156260D01*
X0174770Y0156317D01*
X0174798Y0156372D01*
X0174830Y0156426D01*
X0174866Y0156477D01*
X0174904Y0156527D01*
X0174946Y0156573D01*
X0174990Y0156617D01*
X0175038Y0156658D01*
X0175087Y0156696D01*
X0175139Y0156730D01*
X0175193Y0156761D01*
X0175249Y0156789D01*
X0175307Y0156813D01*
X0175366Y0156834D01*
X0175426Y0156850D01*
X0175487Y0156863D01*
X0175549Y0156872D01*
X0175611Y0156877D01*
X0175674Y0156878D01*
X0175736Y0156875D01*
X0175798Y0156868D01*
X0175860Y0156857D01*
X0175920Y0156842D01*
X0175980Y0156824D01*
X0176038Y0156802D01*
X0176095Y0156776D01*
X0176150Y0156746D01*
X0176203Y0156713D01*
X0176254Y0156677D01*
X0176302Y0156638D01*
X0176348Y0156595D01*
X0176391Y0156550D01*
X0176431Y0156502D01*
X0176468Y0156452D01*
X0176502Y0156399D01*
X0176533Y0156345D01*
X0176559Y0156289D01*
X0176583Y0156231D01*
X0176602Y0156171D01*
X0176618Y0156111D01*
X0176630Y0156049D01*
X0176638Y0155988D01*
X0176642Y0155925D01*
X0176642Y0155863D01*
X0176638Y0155800D01*
X0176630Y0155739D01*
X0176618Y0155677D01*
X0176602Y0155617D01*
X0176583Y0155557D01*
X0176559Y0155499D01*
X0176533Y0155443D01*
X0176502Y0155389D01*
X0176468Y0155336D01*
X0176431Y0155286D01*
X0176391Y0155238D01*
X0176348Y0155193D01*
X0176302Y0155150D01*
X0176254Y0155111D01*
X0176203Y0155075D01*
X0176150Y0155042D01*
X0176095Y0155012D01*
X0176038Y0154986D01*
X0175980Y0154964D01*
X0175920Y0154946D01*
X0175860Y0154931D01*
X0175798Y0154920D01*
X0175736Y0154913D01*
X0175674Y0154910D01*
X0175611Y0154911D01*
X0175549Y0154916D01*
X0175487Y0154925D01*
X0175426Y0154938D01*
X0175366Y0154954D01*
X0175307Y0154975D01*
X0175249Y0154999D01*
X0175193Y0155027D01*
X0175139Y0155058D01*
X0175087Y0155092D01*
X0175038Y0155130D01*
X0174990Y0155171D01*
X0174946Y0155215D01*
X0174904Y0155261D01*
X0174866Y0155311D01*
X0174830Y0155362D01*
X0174798Y0155416D01*
X0174770Y0155471D01*
X0174744Y0155528D01*
X0174723Y0155587D01*
X0174706Y0155647D01*
X0174692Y0155708D01*
X0174682Y0155769D01*
X0174676Y0155832D01*
X0174674Y0155894D01*
D14*
X0217706Y0220658D02*
X0222430Y0220658D01*
X0217706Y0220658D02*
X0217706Y0224595D01*
X0217706Y0236406D02*
X0217706Y0237981D01*
X0218887Y0237981D01*
X0275186Y0237981D01*
X0275186Y0239162D01*
X0276367Y0239162D01*
X0276367Y0241918D01*
X0217706Y0241918D01*
X0217706Y0239162D01*
X0218887Y0239162D01*
X0218887Y0237981D01*
X0217706Y0258493D02*
X0222430Y0258493D01*
X0217706Y0258493D02*
X0217706Y0262430D01*
X0217706Y0274241D02*
X0217706Y0275816D01*
X0218887Y0275816D01*
X0275186Y0275816D01*
X0275186Y0276997D01*
X0276367Y0276997D01*
X0276367Y0279753D01*
X0217706Y0279753D01*
X0217706Y0276997D01*
X0218887Y0276997D01*
X0218887Y0275816D01*
X0268887Y0276997D02*
X0270461Y0276997D01*
X0269674Y0278572D01*
X0268887Y0276997D01*
X0268976Y0277175D02*
X0270372Y0277175D01*
X0269973Y0277974D02*
X0269375Y0277974D01*
X0275186Y0275816D02*
X0276367Y0275816D01*
X0276367Y0274241D01*
X0276367Y0262430D02*
X0276367Y0258493D01*
X0271643Y0258493D01*
X0269674Y0240737D02*
X0268887Y0239162D01*
X0270461Y0239162D01*
X0269674Y0240737D01*
X0269527Y0240444D02*
X0269821Y0240444D01*
X0270220Y0239645D02*
X0269128Y0239645D01*
X0275186Y0237981D02*
X0276367Y0237981D01*
X0276367Y0236406D01*
X0276367Y0224595D02*
X0276367Y0220658D01*
X0271643Y0220658D01*
X0121170Y0075383D02*
X0109044Y0075383D01*
X0105107Y0070383D02*
X0105107Y0060501D01*
X0109044Y0055383D02*
X0121170Y0055383D01*
X0125107Y0060501D02*
X0125107Y0070265D01*
X0110107Y0065383D02*
X0110109Y0065524D01*
X0110115Y0065665D01*
X0110125Y0065805D01*
X0110139Y0065945D01*
X0110157Y0066085D01*
X0110178Y0066224D01*
X0110204Y0066363D01*
X0110233Y0066501D01*
X0110267Y0066637D01*
X0110304Y0066773D01*
X0110345Y0066908D01*
X0110390Y0067042D01*
X0110439Y0067174D01*
X0110491Y0067305D01*
X0110547Y0067434D01*
X0110607Y0067561D01*
X0110670Y0067687D01*
X0110736Y0067811D01*
X0110807Y0067934D01*
X0110880Y0068054D01*
X0110957Y0068172D01*
X0111037Y0068288D01*
X0111121Y0068401D01*
X0111207Y0068512D01*
X0111297Y0068621D01*
X0111390Y0068727D01*
X0111485Y0068830D01*
X0111584Y0068931D01*
X0111685Y0069029D01*
X0111789Y0069124D01*
X0111896Y0069216D01*
X0112005Y0069305D01*
X0112117Y0069390D01*
X0112231Y0069473D01*
X0112347Y0069553D01*
X0112466Y0069629D01*
X0112587Y0069701D01*
X0112709Y0069771D01*
X0112834Y0069836D01*
X0112960Y0069899D01*
X0113088Y0069957D01*
X0113218Y0070012D01*
X0113349Y0070064D01*
X0113482Y0070111D01*
X0113616Y0070155D01*
X0113751Y0070196D01*
X0113887Y0070232D01*
X0114024Y0070264D01*
X0114162Y0070293D01*
X0114300Y0070318D01*
X0114440Y0070338D01*
X0114580Y0070355D01*
X0114720Y0070368D01*
X0114861Y0070377D01*
X0115001Y0070382D01*
X0115142Y0070383D01*
X0115283Y0070380D01*
X0115424Y0070373D01*
X0115564Y0070362D01*
X0115704Y0070347D01*
X0115844Y0070328D01*
X0115983Y0070306D01*
X0116121Y0070279D01*
X0116259Y0070249D01*
X0116395Y0070214D01*
X0116531Y0070176D01*
X0116665Y0070134D01*
X0116799Y0070088D01*
X0116931Y0070039D01*
X0117061Y0069985D01*
X0117190Y0069928D01*
X0117317Y0069868D01*
X0117443Y0069804D01*
X0117566Y0069736D01*
X0117688Y0069665D01*
X0117808Y0069591D01*
X0117925Y0069513D01*
X0118040Y0069432D01*
X0118153Y0069348D01*
X0118264Y0069261D01*
X0118372Y0069170D01*
X0118477Y0069077D01*
X0118580Y0068980D01*
X0118680Y0068881D01*
X0118777Y0068779D01*
X0118871Y0068674D01*
X0118962Y0068567D01*
X0119050Y0068457D01*
X0119135Y0068345D01*
X0119217Y0068230D01*
X0119296Y0068113D01*
X0119371Y0067994D01*
X0119443Y0067873D01*
X0119511Y0067750D01*
X0119576Y0067625D01*
X0119638Y0067498D01*
X0119695Y0067369D01*
X0119750Y0067239D01*
X0119800Y0067108D01*
X0119847Y0066975D01*
X0119890Y0066841D01*
X0119929Y0066705D01*
X0119964Y0066569D01*
X0119996Y0066432D01*
X0120023Y0066294D01*
X0120047Y0066155D01*
X0120067Y0066015D01*
X0120083Y0065875D01*
X0120095Y0065735D01*
X0120103Y0065594D01*
X0120107Y0065453D01*
X0120107Y0065313D01*
X0120103Y0065172D01*
X0120095Y0065031D01*
X0120083Y0064891D01*
X0120067Y0064751D01*
X0120047Y0064611D01*
X0120023Y0064472D01*
X0119996Y0064334D01*
X0119964Y0064197D01*
X0119929Y0064061D01*
X0119890Y0063925D01*
X0119847Y0063791D01*
X0119800Y0063658D01*
X0119750Y0063527D01*
X0119695Y0063397D01*
X0119638Y0063268D01*
X0119576Y0063141D01*
X0119511Y0063016D01*
X0119443Y0062893D01*
X0119371Y0062772D01*
X0119296Y0062653D01*
X0119217Y0062536D01*
X0119135Y0062421D01*
X0119050Y0062309D01*
X0118962Y0062199D01*
X0118871Y0062092D01*
X0118777Y0061987D01*
X0118680Y0061885D01*
X0118580Y0061786D01*
X0118477Y0061689D01*
X0118372Y0061596D01*
X0118264Y0061505D01*
X0118153Y0061418D01*
X0118040Y0061334D01*
X0117925Y0061253D01*
X0117808Y0061175D01*
X0117688Y0061101D01*
X0117566Y0061030D01*
X0117443Y0060962D01*
X0117317Y0060898D01*
X0117190Y0060838D01*
X0117061Y0060781D01*
X0116931Y0060727D01*
X0116799Y0060678D01*
X0116665Y0060632D01*
X0116531Y0060590D01*
X0116395Y0060552D01*
X0116259Y0060517D01*
X0116121Y0060487D01*
X0115983Y0060460D01*
X0115844Y0060438D01*
X0115704Y0060419D01*
X0115564Y0060404D01*
X0115424Y0060393D01*
X0115283Y0060386D01*
X0115142Y0060383D01*
X0115001Y0060384D01*
X0114861Y0060389D01*
X0114720Y0060398D01*
X0114580Y0060411D01*
X0114440Y0060428D01*
X0114300Y0060448D01*
X0114162Y0060473D01*
X0114024Y0060502D01*
X0113887Y0060534D01*
X0113751Y0060570D01*
X0113616Y0060611D01*
X0113482Y0060655D01*
X0113349Y0060702D01*
X0113218Y0060754D01*
X0113088Y0060809D01*
X0112960Y0060867D01*
X0112834Y0060930D01*
X0112709Y0060995D01*
X0112587Y0061065D01*
X0112466Y0061137D01*
X0112347Y0061213D01*
X0112231Y0061293D01*
X0112117Y0061376D01*
X0112005Y0061461D01*
X0111896Y0061550D01*
X0111789Y0061642D01*
X0111685Y0061737D01*
X0111584Y0061835D01*
X0111485Y0061936D01*
X0111390Y0062039D01*
X0111297Y0062145D01*
X0111207Y0062254D01*
X0111121Y0062365D01*
X0111037Y0062478D01*
X0110957Y0062594D01*
X0110880Y0062712D01*
X0110807Y0062832D01*
X0110736Y0062955D01*
X0110670Y0063079D01*
X0110607Y0063205D01*
X0110547Y0063332D01*
X0110491Y0063461D01*
X0110439Y0063592D01*
X0110390Y0063724D01*
X0110345Y0063858D01*
X0110304Y0063993D01*
X0110267Y0064129D01*
X0110233Y0064265D01*
X0110204Y0064403D01*
X0110178Y0064542D01*
X0110157Y0064681D01*
X0110139Y0064821D01*
X0110125Y0064961D01*
X0110115Y0065101D01*
X0110109Y0065242D01*
X0110107Y0065383D01*
X0094556Y0156131D02*
X0094556Y0157706D01*
X0089438Y0157706D01*
X0089438Y0163217D01*
X0094556Y0163217D02*
X0094556Y0157706D01*
X0089438Y0157706D02*
X0089438Y0156131D01*
D15*
X0087947Y0156224D02*
X0087947Y0156975D01*
X0087697Y0157225D01*
X0086696Y0157225D01*
X0086446Y0156975D01*
X0086446Y0156224D01*
X0087947Y0156224D01*
X0087947Y0157697D02*
X0087947Y0158698D01*
X0087947Y0158198D02*
X0086446Y0158198D01*
X0086946Y0157697D01*
X0059838Y0155917D02*
X0059338Y0155666D01*
X0058837Y0155166D01*
X0059588Y0155166D01*
X0059838Y0154916D01*
X0059838Y0154666D01*
X0059588Y0154415D01*
X0059088Y0154415D01*
X0058837Y0154666D01*
X0058837Y0155166D01*
X0058365Y0155416D02*
X0058365Y0155666D01*
X0058115Y0155917D01*
X0057614Y0155917D01*
X0057364Y0155666D01*
X0056892Y0155666D02*
X0056892Y0155166D01*
X0056641Y0154916D01*
X0055891Y0154916D01*
X0056391Y0154916D02*
X0056892Y0154415D01*
X0057364Y0154415D02*
X0058365Y0155416D01*
X0058365Y0154415D02*
X0057364Y0154415D01*
X0056892Y0155666D02*
X0056641Y0155917D01*
X0055891Y0155917D01*
X0055891Y0154415D01*
X0055694Y0141822D02*
X0056445Y0141822D01*
X0056695Y0141572D01*
X0056695Y0141072D01*
X0056445Y0140821D01*
X0055694Y0140821D01*
X0055694Y0140321D02*
X0055694Y0141822D01*
X0056194Y0140821D02*
X0056695Y0140321D01*
X0057167Y0140321D02*
X0058168Y0141322D01*
X0058168Y0141572D01*
X0057918Y0141822D01*
X0057417Y0141822D01*
X0057167Y0141572D01*
X0057167Y0140321D02*
X0058168Y0140321D01*
X0058641Y0140321D02*
X0058641Y0140571D01*
X0059641Y0141572D01*
X0059641Y0141822D01*
X0058641Y0141822D01*
X0058891Y0128003D02*
X0058641Y0127753D01*
X0058641Y0127503D01*
X0058891Y0127253D01*
X0059641Y0127253D01*
X0059641Y0127753D02*
X0059391Y0128003D01*
X0058891Y0128003D01*
X0058168Y0127753D02*
X0057918Y0128003D01*
X0057417Y0128003D01*
X0057167Y0127753D01*
X0056695Y0127753D02*
X0056695Y0127253D01*
X0056445Y0127002D01*
X0055694Y0127002D01*
X0055694Y0126502D02*
X0055694Y0128003D01*
X0056445Y0128003D01*
X0056695Y0127753D01*
X0056194Y0127002D02*
X0056695Y0126502D01*
X0057167Y0126502D02*
X0058168Y0127503D01*
X0058168Y0127753D01*
X0058641Y0126752D02*
X0058891Y0126502D01*
X0059391Y0126502D01*
X0059641Y0126752D01*
X0059641Y0127753D01*
X0058168Y0126502D02*
X0057167Y0126502D01*
X0094885Y0090485D02*
X0095636Y0090485D01*
X0095886Y0090235D01*
X0095886Y0089734D01*
X0095636Y0089484D01*
X0094885Y0089484D01*
X0094885Y0088984D02*
X0094885Y0090485D01*
X0095386Y0089484D02*
X0095886Y0088984D01*
X0096359Y0088984D02*
X0096359Y0089234D01*
X0097360Y0090235D01*
X0097360Y0090485D01*
X0096359Y0090485D01*
X0111907Y0073934D02*
X0111657Y0073684D01*
X0111657Y0073434D01*
X0111907Y0073183D01*
X0112408Y0073183D01*
X0112658Y0072933D01*
X0112658Y0072683D01*
X0112408Y0072433D01*
X0111907Y0072433D01*
X0111657Y0072683D01*
X0111907Y0073934D02*
X0112408Y0073934D01*
X0112658Y0073684D01*
X0113130Y0073434D02*
X0113631Y0073934D01*
X0113631Y0072433D01*
X0114131Y0072433D02*
X0113130Y0072433D01*
X0025609Y0167358D02*
X0025609Y0168859D01*
X0024859Y0168109D01*
X0025860Y0168109D01*
X0024386Y0167608D02*
X0024386Y0168859D01*
X0023385Y0168859D02*
X0023385Y0167608D01*
X0023636Y0167358D01*
X0024136Y0167358D01*
X0024386Y0167608D01*
X0055103Y0172604D02*
X0055103Y0174106D01*
X0055854Y0174106D01*
X0056104Y0173855D01*
X0056104Y0173355D01*
X0055854Y0173105D01*
X0055103Y0173105D01*
X0055604Y0173105D02*
X0056104Y0172604D01*
X0056577Y0172604D02*
X0057578Y0173605D01*
X0057578Y0173855D01*
X0057327Y0174106D01*
X0056827Y0174106D01*
X0056577Y0173855D01*
X0056577Y0172604D02*
X0057578Y0172604D01*
X0058050Y0172855D02*
X0058050Y0173105D01*
X0058300Y0173355D01*
X0058801Y0173355D01*
X0059051Y0173105D01*
X0059051Y0172855D01*
X0058801Y0172604D01*
X0058300Y0172604D01*
X0058050Y0172855D01*
X0058300Y0173355D02*
X0058050Y0173605D01*
X0058050Y0173855D01*
X0058300Y0174106D01*
X0058801Y0174106D01*
X0059051Y0173855D01*
X0059051Y0173605D01*
X0058801Y0173355D01*
X0183389Y0195795D02*
X0183389Y0197296D01*
X0184140Y0197296D01*
X0184390Y0197046D01*
X0184390Y0196546D01*
X0184140Y0196295D01*
X0183389Y0196295D01*
X0183890Y0196295D02*
X0184390Y0195795D01*
X0184863Y0195795D02*
X0185863Y0195795D01*
X0186336Y0195795D02*
X0187337Y0195795D01*
X0186836Y0195795D02*
X0186836Y0197296D01*
X0186336Y0196796D01*
X0185363Y0197296D02*
X0185363Y0195795D01*
X0184863Y0196796D02*
X0185363Y0197296D01*
X0201500Y0197476D02*
X0202250Y0197476D01*
X0202500Y0197727D01*
X0202500Y0198227D01*
X0202250Y0198477D01*
X0201500Y0198477D01*
X0201500Y0196976D01*
X0202000Y0197476D02*
X0202500Y0196976D01*
X0202973Y0196976D02*
X0203974Y0196976D01*
X0203473Y0196976D02*
X0203473Y0198477D01*
X0202973Y0197977D01*
X0204446Y0198227D02*
X0204696Y0198477D01*
X0205197Y0198477D01*
X0205447Y0198227D01*
X0204446Y0197226D01*
X0204696Y0196976D01*
X0205197Y0196976D01*
X0205447Y0197226D01*
X0205447Y0198227D01*
X0204446Y0198227D02*
X0204446Y0197226D01*
X0258666Y0160416D02*
X0258916Y0160667D01*
X0259166Y0160667D01*
X0259417Y0160416D01*
X0259667Y0160667D01*
X0259917Y0160667D01*
X0260167Y0160416D01*
X0260167Y0159916D01*
X0259917Y0159666D01*
X0260167Y0159193D02*
X0259667Y0158693D01*
X0259667Y0158943D02*
X0259667Y0158193D01*
X0260167Y0158193D02*
X0258666Y0158193D01*
X0258666Y0158943D01*
X0258916Y0159193D01*
X0259417Y0159193D01*
X0259667Y0158943D01*
X0258916Y0159666D02*
X0258666Y0159916D01*
X0258666Y0160416D01*
X0259417Y0160416D02*
X0259417Y0160166D01*
X0275595Y0160810D02*
X0276346Y0160059D01*
X0276346Y0161060D01*
X0277096Y0160810D02*
X0275595Y0160810D01*
X0275845Y0159587D02*
X0276346Y0159587D01*
X0276596Y0159337D01*
X0276596Y0158586D01*
X0277096Y0158586D02*
X0275595Y0158586D01*
X0275595Y0159337D01*
X0275845Y0159587D01*
X0276596Y0159087D02*
X0277096Y0159587D01*
X0283695Y0142567D02*
X0283445Y0142316D01*
X0283445Y0141816D01*
X0283695Y0141566D01*
X0283946Y0141566D01*
X0284196Y0141816D01*
X0284196Y0142567D01*
X0284696Y0142567D02*
X0283695Y0142567D01*
X0284696Y0142567D02*
X0284946Y0142316D01*
X0284946Y0141816D01*
X0284696Y0141566D01*
X0284946Y0141093D02*
X0284946Y0140092D01*
X0283946Y0141093D01*
X0283695Y0141093D01*
X0283445Y0140843D01*
X0283445Y0140343D01*
X0283695Y0140092D01*
X0283695Y0139620D02*
X0283445Y0139370D01*
X0283445Y0138869D01*
X0283695Y0138619D01*
X0284696Y0138619D01*
X0284946Y0138869D01*
X0284946Y0139370D01*
X0284696Y0139620D01*
X0281681Y0124712D02*
X0280930Y0123961D01*
X0281931Y0123961D01*
X0281681Y0123210D02*
X0281681Y0124712D01*
X0280458Y0124461D02*
X0280208Y0124712D01*
X0279707Y0124712D01*
X0279457Y0124461D01*
X0278985Y0124461D02*
X0278734Y0124712D01*
X0278234Y0124712D01*
X0277984Y0124461D01*
X0277984Y0123460D01*
X0278234Y0123210D01*
X0278734Y0123210D01*
X0278985Y0123460D01*
X0279457Y0123210D02*
X0280458Y0124211D01*
X0280458Y0124461D01*
X0280458Y0123210D02*
X0279457Y0123210D01*
X0259917Y0136895D02*
X0259667Y0136645D01*
X0258666Y0136645D01*
X0258416Y0136895D01*
X0258416Y0137396D01*
X0258666Y0137646D01*
X0258666Y0138119D02*
X0258416Y0138369D01*
X0258416Y0138869D01*
X0258666Y0139119D01*
X0258916Y0139119D01*
X0259917Y0138119D01*
X0259917Y0139119D01*
X0259667Y0139592D02*
X0259917Y0139842D01*
X0259917Y0140342D01*
X0259667Y0140593D01*
X0259417Y0140593D01*
X0259167Y0140342D01*
X0259167Y0139592D01*
X0259667Y0139592D01*
X0259167Y0139592D02*
X0258666Y0140092D01*
X0258416Y0140593D01*
X0259667Y0137646D02*
X0259917Y0137396D01*
X0259917Y0136895D01*
X0301555Y0138869D02*
X0301806Y0138619D01*
X0302806Y0138619D01*
X0303057Y0138869D01*
X0303057Y0139370D01*
X0302806Y0139620D01*
X0303057Y0140092D02*
X0302056Y0141093D01*
X0301806Y0141093D01*
X0301555Y0140843D01*
X0301555Y0140343D01*
X0301806Y0140092D01*
X0301806Y0139620D02*
X0301555Y0139370D01*
X0301555Y0138869D01*
X0303057Y0140092D02*
X0303057Y0141093D01*
X0302806Y0141566D02*
X0303057Y0141816D01*
X0303057Y0142316D01*
X0302806Y0142567D01*
X0302306Y0142567D01*
X0302056Y0142316D01*
X0302056Y0142066D01*
X0302306Y0141566D01*
X0301555Y0141566D01*
X0301555Y0142567D01*
X0302199Y0160273D02*
X0303200Y0160273D01*
X0303450Y0160523D01*
X0303450Y0161023D01*
X0303200Y0161274D01*
X0303450Y0161746D02*
X0302450Y0162747D01*
X0302199Y0162747D01*
X0301949Y0162497D01*
X0301949Y0161996D01*
X0302199Y0161746D01*
X0302199Y0161274D02*
X0301949Y0161023D01*
X0301949Y0160523D01*
X0302199Y0160273D01*
X0303450Y0161746D02*
X0303450Y0162747D01*
X0303200Y0163219D02*
X0303450Y0163469D01*
X0303450Y0163970D01*
X0303200Y0164220D01*
X0302950Y0164220D01*
X0302700Y0163970D01*
X0302700Y0163720D01*
X0302700Y0163970D02*
X0302450Y0164220D01*
X0302199Y0164220D01*
X0301949Y0163970D01*
X0301949Y0163469D01*
X0302199Y0163219D01*
D16*
X0342326Y0132144D02*
X0346830Y0132144D01*
X0346830Y0130643D02*
X0346830Y0133645D01*
X0343828Y0130643D02*
X0342326Y0132144D01*
X0343077Y0129042D02*
X0344578Y0129042D01*
X0345329Y0128291D01*
X0345329Y0126039D01*
X0346830Y0126039D02*
X0342326Y0126039D01*
X0342326Y0128291D01*
X0343077Y0129042D01*
X0342326Y0124438D02*
X0342326Y0122936D01*
X0342326Y0123687D02*
X0346080Y0123687D01*
X0346830Y0122936D01*
X0346830Y0122186D01*
X0346080Y0121435D01*
X0262576Y0100245D02*
X0262576Y0095245D01*
X0251576Y0095245D01*
X0251576Y0100245D01*
X0262576Y0100245D01*
X0262969Y0084418D02*
X0251969Y0084418D01*
X0251969Y0079418D01*
X0262969Y0079418D01*
X0262969Y0084418D01*
X0231111Y0061552D02*
X0231111Y0050552D01*
X0226111Y0050552D01*
X0226111Y0061552D01*
X0231111Y0061552D01*
X0214969Y0062261D02*
X0214969Y0051261D01*
X0209969Y0051261D01*
X0209969Y0062261D01*
X0214969Y0062261D01*
X0197961Y0062733D02*
X0197961Y0051733D01*
X0192961Y0051733D01*
X0192961Y0062733D01*
X0197961Y0062733D01*
X0181426Y0062654D02*
X0181426Y0051654D01*
X0176426Y0051654D01*
X0176426Y0062654D01*
X0181426Y0062654D01*
X0181583Y0044544D02*
X0176583Y0044544D01*
X0176583Y0033544D01*
X0181583Y0033544D01*
X0181583Y0044544D01*
X0193119Y0044623D02*
X0193119Y0033623D01*
X0198119Y0033623D01*
X0198119Y0044623D01*
X0193119Y0044623D01*
X0210127Y0044544D02*
X0210127Y0033544D01*
X0215127Y0033544D01*
X0215127Y0044544D01*
X0210127Y0044544D01*
X0226662Y0044229D02*
X0226662Y0033229D01*
X0231662Y0033229D01*
X0231662Y0044229D01*
X0226662Y0044229D01*
X0142646Y0059961D02*
X0137646Y0059961D01*
X0137646Y0070961D01*
X0142646Y0070961D01*
X0142646Y0059961D01*
X0144150Y0092646D02*
X0133150Y0092646D01*
X0133150Y0097646D01*
X0144150Y0097646D01*
X0144150Y0092646D01*
X0145146Y0104792D02*
X0133335Y0104792D01*
X0133335Y0123296D01*
X0145146Y0123296D01*
X0145146Y0104792D01*
X0145017Y0130127D02*
X0134017Y0130127D01*
X0134017Y0135127D01*
X0145017Y0135127D01*
X0145017Y0130127D01*
X0141001Y0148237D02*
X0130001Y0148237D01*
X0130001Y0153237D01*
X0141001Y0153237D01*
X0141001Y0148237D01*
X0141013Y0157745D02*
X0133926Y0157745D01*
X0133926Y0171131D01*
X0141013Y0171131D01*
X0141013Y0157745D01*
X0141080Y0176505D02*
X0130080Y0176505D01*
X0130080Y0181505D01*
X0141080Y0181505D01*
X0141080Y0176505D01*
X0113284Y0154339D02*
X0113284Y0149339D01*
X0102284Y0149339D01*
X0102284Y0154339D01*
X0113284Y0154339D01*
X0084379Y0138442D02*
X0084379Y0127442D01*
X0079379Y0127442D01*
X0079379Y0138442D01*
X0084379Y0138442D01*
X0095198Y0111898D02*
X0095198Y0106898D01*
X0106198Y0106898D01*
X0106198Y0111898D01*
X0095198Y0111898D01*
D17*
X0045186Y0175934D02*
X0038887Y0175934D01*
X0038887Y0179083D01*
X0045186Y0179083D01*
X0045186Y0175934D01*
X0200580Y0073729D02*
X0200580Y0070580D01*
X0206879Y0070580D01*
X0206879Y0073729D01*
X0200580Y0073729D01*
D18*
X0040146Y0128060D02*
X0040146Y0131997D01*
X0040146Y0128060D02*
X0036209Y0128060D01*
X0024398Y0128060D02*
X0020461Y0128060D01*
X0040146Y0155619D02*
X0040146Y0159556D01*
X0040075Y0159528D02*
X0036209Y0159528D01*
X0036209Y0159556D01*
X0024398Y0159556D02*
X0020461Y0159556D01*
D19*
X0035815Y0150108D02*
X0038175Y0150108D01*
X0035324Y0151288D02*
X0035326Y0151369D01*
X0035332Y0151451D01*
X0035342Y0151532D01*
X0035356Y0151612D01*
X0035373Y0151691D01*
X0035395Y0151770D01*
X0035420Y0151847D01*
X0035449Y0151924D01*
X0035482Y0151998D01*
X0035519Y0152071D01*
X0035558Y0152142D01*
X0035602Y0152211D01*
X0035648Y0152278D01*
X0035698Y0152342D01*
X0035751Y0152404D01*
X0035807Y0152464D01*
X0035865Y0152520D01*
X0035927Y0152574D01*
X0035991Y0152625D01*
X0036057Y0152672D01*
X0036125Y0152716D01*
X0036196Y0152757D01*
X0036268Y0152794D01*
X0036343Y0152828D01*
X0036418Y0152858D01*
X0036496Y0152884D01*
X0036574Y0152907D01*
X0036653Y0152925D01*
X0036733Y0152940D01*
X0036814Y0152951D01*
X0036895Y0152958D01*
X0036977Y0152961D01*
X0037058Y0152960D01*
X0037139Y0152955D01*
X0037220Y0152946D01*
X0037301Y0152933D01*
X0037381Y0152916D01*
X0037459Y0152896D01*
X0037537Y0152871D01*
X0037614Y0152843D01*
X0037689Y0152811D01*
X0037762Y0152776D01*
X0037833Y0152737D01*
X0037903Y0152694D01*
X0037970Y0152649D01*
X0038036Y0152600D01*
X0038098Y0152548D01*
X0038158Y0152492D01*
X0038215Y0152434D01*
X0038270Y0152374D01*
X0038321Y0152310D01*
X0038369Y0152245D01*
X0038414Y0152177D01*
X0038456Y0152107D01*
X0038494Y0152035D01*
X0038529Y0151961D01*
X0038560Y0151886D01*
X0038587Y0151809D01*
X0038610Y0151731D01*
X0038630Y0151652D01*
X0038646Y0151572D01*
X0038658Y0151491D01*
X0038666Y0151410D01*
X0038670Y0151329D01*
X0038670Y0151247D01*
X0038666Y0151166D01*
X0038658Y0151085D01*
X0038646Y0151004D01*
X0038630Y0150924D01*
X0038610Y0150845D01*
X0038587Y0150767D01*
X0038560Y0150690D01*
X0038529Y0150615D01*
X0038494Y0150541D01*
X0038456Y0150469D01*
X0038414Y0150399D01*
X0038369Y0150331D01*
X0038321Y0150266D01*
X0038270Y0150202D01*
X0038215Y0150142D01*
X0038158Y0150084D01*
X0038098Y0150028D01*
X0038036Y0149976D01*
X0037970Y0149927D01*
X0037903Y0149882D01*
X0037834Y0149839D01*
X0037762Y0149800D01*
X0037689Y0149765D01*
X0037614Y0149733D01*
X0037537Y0149705D01*
X0037459Y0149680D01*
X0037381Y0149660D01*
X0037301Y0149643D01*
X0037220Y0149630D01*
X0037139Y0149621D01*
X0037058Y0149616D01*
X0036977Y0149615D01*
X0036895Y0149618D01*
X0036814Y0149625D01*
X0036733Y0149636D01*
X0036653Y0149651D01*
X0036574Y0149669D01*
X0036496Y0149692D01*
X0036418Y0149718D01*
X0036343Y0149748D01*
X0036268Y0149782D01*
X0036196Y0149819D01*
X0036125Y0149860D01*
X0036057Y0149904D01*
X0035991Y0149951D01*
X0035927Y0150002D01*
X0035865Y0150056D01*
X0035807Y0150112D01*
X0035751Y0150172D01*
X0035698Y0150234D01*
X0035648Y0150298D01*
X0035602Y0150365D01*
X0035558Y0150434D01*
X0035519Y0150505D01*
X0035482Y0150578D01*
X0035449Y0150652D01*
X0035420Y0150729D01*
X0035395Y0150806D01*
X0035373Y0150885D01*
X0035356Y0150964D01*
X0035342Y0151044D01*
X0035332Y0151125D01*
X0035326Y0151207D01*
X0035324Y0151288D01*
X0035324Y0136328D02*
X0035326Y0136409D01*
X0035332Y0136491D01*
X0035342Y0136572D01*
X0035356Y0136652D01*
X0035373Y0136731D01*
X0035395Y0136810D01*
X0035420Y0136887D01*
X0035449Y0136964D01*
X0035482Y0137038D01*
X0035519Y0137111D01*
X0035558Y0137182D01*
X0035602Y0137251D01*
X0035648Y0137318D01*
X0035698Y0137382D01*
X0035751Y0137444D01*
X0035807Y0137504D01*
X0035865Y0137560D01*
X0035927Y0137614D01*
X0035991Y0137665D01*
X0036057Y0137712D01*
X0036125Y0137756D01*
X0036196Y0137797D01*
X0036268Y0137834D01*
X0036343Y0137868D01*
X0036418Y0137898D01*
X0036496Y0137924D01*
X0036574Y0137947D01*
X0036653Y0137965D01*
X0036733Y0137980D01*
X0036814Y0137991D01*
X0036895Y0137998D01*
X0036977Y0138001D01*
X0037058Y0138000D01*
X0037139Y0137995D01*
X0037220Y0137986D01*
X0037301Y0137973D01*
X0037381Y0137956D01*
X0037459Y0137936D01*
X0037537Y0137911D01*
X0037614Y0137883D01*
X0037689Y0137851D01*
X0037762Y0137816D01*
X0037833Y0137777D01*
X0037903Y0137734D01*
X0037970Y0137689D01*
X0038036Y0137640D01*
X0038098Y0137588D01*
X0038158Y0137532D01*
X0038215Y0137474D01*
X0038270Y0137414D01*
X0038321Y0137350D01*
X0038369Y0137285D01*
X0038414Y0137217D01*
X0038456Y0137147D01*
X0038494Y0137075D01*
X0038529Y0137001D01*
X0038560Y0136926D01*
X0038587Y0136849D01*
X0038610Y0136771D01*
X0038630Y0136692D01*
X0038646Y0136612D01*
X0038658Y0136531D01*
X0038666Y0136450D01*
X0038670Y0136369D01*
X0038670Y0136287D01*
X0038666Y0136206D01*
X0038658Y0136125D01*
X0038646Y0136044D01*
X0038630Y0135964D01*
X0038610Y0135885D01*
X0038587Y0135807D01*
X0038560Y0135730D01*
X0038529Y0135655D01*
X0038494Y0135581D01*
X0038456Y0135509D01*
X0038414Y0135439D01*
X0038369Y0135371D01*
X0038321Y0135306D01*
X0038270Y0135242D01*
X0038215Y0135182D01*
X0038158Y0135124D01*
X0038098Y0135068D01*
X0038036Y0135016D01*
X0037970Y0134967D01*
X0037903Y0134922D01*
X0037834Y0134879D01*
X0037762Y0134840D01*
X0037689Y0134805D01*
X0037614Y0134773D01*
X0037537Y0134745D01*
X0037459Y0134720D01*
X0037381Y0134700D01*
X0037301Y0134683D01*
X0037220Y0134670D01*
X0037139Y0134661D01*
X0037058Y0134656D01*
X0036977Y0134655D01*
X0036895Y0134658D01*
X0036814Y0134665D01*
X0036733Y0134676D01*
X0036653Y0134691D01*
X0036574Y0134709D01*
X0036496Y0134732D01*
X0036418Y0134758D01*
X0036343Y0134788D01*
X0036268Y0134822D01*
X0036196Y0134859D01*
X0036125Y0134900D01*
X0036057Y0134944D01*
X0035991Y0134991D01*
X0035927Y0135042D01*
X0035865Y0135096D01*
X0035807Y0135152D01*
X0035751Y0135212D01*
X0035698Y0135274D01*
X0035648Y0135338D01*
X0035602Y0135405D01*
X0035558Y0135474D01*
X0035519Y0135545D01*
X0035482Y0135618D01*
X0035449Y0135692D01*
X0035420Y0135769D01*
X0035395Y0135846D01*
X0035373Y0135925D01*
X0035356Y0136004D01*
X0035342Y0136084D01*
X0035332Y0136165D01*
X0035326Y0136247D01*
X0035324Y0136328D01*
X0035638Y0206249D02*
X0035640Y0206348D01*
X0035646Y0206447D01*
X0035656Y0206546D01*
X0035670Y0206644D01*
X0035688Y0206741D01*
X0035710Y0206838D01*
X0035735Y0206934D01*
X0035765Y0207028D01*
X0035798Y0207122D01*
X0035835Y0207214D01*
X0035876Y0207304D01*
X0035920Y0207393D01*
X0035968Y0207479D01*
X0036019Y0207564D01*
X0036074Y0207647D01*
X0036132Y0207727D01*
X0036193Y0207805D01*
X0036257Y0207881D01*
X0036324Y0207954D01*
X0036394Y0208024D01*
X0036467Y0208091D01*
X0036543Y0208155D01*
X0036621Y0208216D01*
X0036701Y0208274D01*
X0036784Y0208329D01*
X0036868Y0208380D01*
X0036955Y0208428D01*
X0037044Y0208472D01*
X0037134Y0208513D01*
X0037226Y0208550D01*
X0037320Y0208583D01*
X0037414Y0208613D01*
X0037510Y0208638D01*
X0037607Y0208660D01*
X0037704Y0208678D01*
X0037802Y0208692D01*
X0037901Y0208702D01*
X0038000Y0208708D01*
X0038099Y0208710D01*
X0038198Y0208708D01*
X0038297Y0208702D01*
X0038396Y0208692D01*
X0038494Y0208678D01*
X0038591Y0208660D01*
X0038688Y0208638D01*
X0038784Y0208613D01*
X0038878Y0208583D01*
X0038972Y0208550D01*
X0039064Y0208513D01*
X0039154Y0208472D01*
X0039243Y0208428D01*
X0039329Y0208380D01*
X0039414Y0208329D01*
X0039497Y0208274D01*
X0039577Y0208216D01*
X0039655Y0208155D01*
X0039731Y0208091D01*
X0039804Y0208024D01*
X0039874Y0207954D01*
X0039941Y0207881D01*
X0040005Y0207805D01*
X0040066Y0207727D01*
X0040124Y0207647D01*
X0040179Y0207564D01*
X0040230Y0207480D01*
X0040278Y0207393D01*
X0040322Y0207304D01*
X0040363Y0207214D01*
X0040400Y0207122D01*
X0040433Y0207028D01*
X0040463Y0206934D01*
X0040488Y0206838D01*
X0040510Y0206741D01*
X0040528Y0206644D01*
X0040542Y0206546D01*
X0040552Y0206447D01*
X0040558Y0206348D01*
X0040560Y0206249D01*
X0040558Y0206150D01*
X0040552Y0206051D01*
X0040542Y0205952D01*
X0040528Y0205854D01*
X0040510Y0205757D01*
X0040488Y0205660D01*
X0040463Y0205564D01*
X0040433Y0205470D01*
X0040400Y0205376D01*
X0040363Y0205284D01*
X0040322Y0205194D01*
X0040278Y0205105D01*
X0040230Y0205019D01*
X0040179Y0204934D01*
X0040124Y0204851D01*
X0040066Y0204771D01*
X0040005Y0204693D01*
X0039941Y0204617D01*
X0039874Y0204544D01*
X0039804Y0204474D01*
X0039731Y0204407D01*
X0039655Y0204343D01*
X0039577Y0204282D01*
X0039497Y0204224D01*
X0039414Y0204169D01*
X0039330Y0204118D01*
X0039243Y0204070D01*
X0039154Y0204026D01*
X0039064Y0203985D01*
X0038972Y0203948D01*
X0038878Y0203915D01*
X0038784Y0203885D01*
X0038688Y0203860D01*
X0038591Y0203838D01*
X0038494Y0203820D01*
X0038396Y0203806D01*
X0038297Y0203796D01*
X0038198Y0203790D01*
X0038099Y0203788D01*
X0038000Y0203790D01*
X0037901Y0203796D01*
X0037802Y0203806D01*
X0037704Y0203820D01*
X0037607Y0203838D01*
X0037510Y0203860D01*
X0037414Y0203885D01*
X0037320Y0203915D01*
X0037226Y0203948D01*
X0037134Y0203985D01*
X0037044Y0204026D01*
X0036955Y0204070D01*
X0036869Y0204118D01*
X0036784Y0204169D01*
X0036701Y0204224D01*
X0036621Y0204282D01*
X0036543Y0204343D01*
X0036467Y0204407D01*
X0036394Y0204474D01*
X0036324Y0204544D01*
X0036257Y0204617D01*
X0036193Y0204693D01*
X0036132Y0204771D01*
X0036074Y0204851D01*
X0036019Y0204934D01*
X0035968Y0205018D01*
X0035920Y0205105D01*
X0035876Y0205194D01*
X0035835Y0205284D01*
X0035798Y0205376D01*
X0035765Y0205470D01*
X0035735Y0205564D01*
X0035710Y0205660D01*
X0035688Y0205757D01*
X0035670Y0205854D01*
X0035656Y0205952D01*
X0035646Y0206051D01*
X0035640Y0206150D01*
X0035638Y0206249D01*
X0035638Y0237745D02*
X0035640Y0237844D01*
X0035646Y0237943D01*
X0035656Y0238042D01*
X0035670Y0238140D01*
X0035688Y0238237D01*
X0035710Y0238334D01*
X0035735Y0238430D01*
X0035765Y0238524D01*
X0035798Y0238618D01*
X0035835Y0238710D01*
X0035876Y0238800D01*
X0035920Y0238889D01*
X0035968Y0238975D01*
X0036019Y0239060D01*
X0036074Y0239143D01*
X0036132Y0239223D01*
X0036193Y0239301D01*
X0036257Y0239377D01*
X0036324Y0239450D01*
X0036394Y0239520D01*
X0036467Y0239587D01*
X0036543Y0239651D01*
X0036621Y0239712D01*
X0036701Y0239770D01*
X0036784Y0239825D01*
X0036868Y0239876D01*
X0036955Y0239924D01*
X0037044Y0239968D01*
X0037134Y0240009D01*
X0037226Y0240046D01*
X0037320Y0240079D01*
X0037414Y0240109D01*
X0037510Y0240134D01*
X0037607Y0240156D01*
X0037704Y0240174D01*
X0037802Y0240188D01*
X0037901Y0240198D01*
X0038000Y0240204D01*
X0038099Y0240206D01*
X0038198Y0240204D01*
X0038297Y0240198D01*
X0038396Y0240188D01*
X0038494Y0240174D01*
X0038591Y0240156D01*
X0038688Y0240134D01*
X0038784Y0240109D01*
X0038878Y0240079D01*
X0038972Y0240046D01*
X0039064Y0240009D01*
X0039154Y0239968D01*
X0039243Y0239924D01*
X0039329Y0239876D01*
X0039414Y0239825D01*
X0039497Y0239770D01*
X0039577Y0239712D01*
X0039655Y0239651D01*
X0039731Y0239587D01*
X0039804Y0239520D01*
X0039874Y0239450D01*
X0039941Y0239377D01*
X0040005Y0239301D01*
X0040066Y0239223D01*
X0040124Y0239143D01*
X0040179Y0239060D01*
X0040230Y0238976D01*
X0040278Y0238889D01*
X0040322Y0238800D01*
X0040363Y0238710D01*
X0040400Y0238618D01*
X0040433Y0238524D01*
X0040463Y0238430D01*
X0040488Y0238334D01*
X0040510Y0238237D01*
X0040528Y0238140D01*
X0040542Y0238042D01*
X0040552Y0237943D01*
X0040558Y0237844D01*
X0040560Y0237745D01*
X0040558Y0237646D01*
X0040552Y0237547D01*
X0040542Y0237448D01*
X0040528Y0237350D01*
X0040510Y0237253D01*
X0040488Y0237156D01*
X0040463Y0237060D01*
X0040433Y0236966D01*
X0040400Y0236872D01*
X0040363Y0236780D01*
X0040322Y0236690D01*
X0040278Y0236601D01*
X0040230Y0236515D01*
X0040179Y0236430D01*
X0040124Y0236347D01*
X0040066Y0236267D01*
X0040005Y0236189D01*
X0039941Y0236113D01*
X0039874Y0236040D01*
X0039804Y0235970D01*
X0039731Y0235903D01*
X0039655Y0235839D01*
X0039577Y0235778D01*
X0039497Y0235720D01*
X0039414Y0235665D01*
X0039330Y0235614D01*
X0039243Y0235566D01*
X0039154Y0235522D01*
X0039064Y0235481D01*
X0038972Y0235444D01*
X0038878Y0235411D01*
X0038784Y0235381D01*
X0038688Y0235356D01*
X0038591Y0235334D01*
X0038494Y0235316D01*
X0038396Y0235302D01*
X0038297Y0235292D01*
X0038198Y0235286D01*
X0038099Y0235284D01*
X0038000Y0235286D01*
X0037901Y0235292D01*
X0037802Y0235302D01*
X0037704Y0235316D01*
X0037607Y0235334D01*
X0037510Y0235356D01*
X0037414Y0235381D01*
X0037320Y0235411D01*
X0037226Y0235444D01*
X0037134Y0235481D01*
X0037044Y0235522D01*
X0036955Y0235566D01*
X0036869Y0235614D01*
X0036784Y0235665D01*
X0036701Y0235720D01*
X0036621Y0235778D01*
X0036543Y0235839D01*
X0036467Y0235903D01*
X0036394Y0235970D01*
X0036324Y0236040D01*
X0036257Y0236113D01*
X0036193Y0236189D01*
X0036132Y0236267D01*
X0036074Y0236347D01*
X0036019Y0236430D01*
X0035968Y0236514D01*
X0035920Y0236601D01*
X0035876Y0236690D01*
X0035835Y0236780D01*
X0035798Y0236872D01*
X0035765Y0236966D01*
X0035735Y0237060D01*
X0035710Y0237156D01*
X0035688Y0237253D01*
X0035670Y0237350D01*
X0035656Y0237448D01*
X0035646Y0237547D01*
X0035640Y0237646D01*
X0035638Y0237745D01*
D20*
X0055973Y0177154D03*
X0056761Y0158965D03*
X0056564Y0144871D03*
X0056564Y0131052D03*
M02*
