G75*
%MOIN*%
%OFA0B0*%
%FSLAX25Y25*%
%IPPOS*%
%LPD*%
%AMOC8*
5,1,8,0,0,1.08239X$1,22.5*
%
%ADD10R,0.05906X0.01181*%
%ADD11R,0.01181X0.05906*%
%ADD12R,0.05906X0.01378*%
%ADD13R,0.04724X0.02362*%
%ADD14R,0.03268X0.02480*%
%ADD15C,0.00875*%
%ADD16R,0.02362X0.03150*%
%ADD17R,0.07087X0.05118*%
%ADD18R,0.07874X0.06693*%
%ADD19C,0.06000*%
%ADD20R,0.05512X0.01575*%
%ADD21R,0.07000X0.46000*%
%ADD22R,0.04331X0.03937*%
%ADD23R,0.06000X0.03000*%
%ADD24OC8,0.06000*%
%ADD25R,0.01181X0.05118*%
%ADD26R,0.07087X0.08661*%
%ADD27R,0.04724X0.03150*%
%ADD28R,0.03150X0.04724*%
%ADD29R,0.03937X0.04331*%
%ADD30C,0.01000*%
%ADD31C,0.04000*%
%ADD32C,0.01600*%
%ADD33C,0.03962*%
%ADD34OC8,0.16992*%
D10*
X0167784Y0108650D03*
X0167784Y0110619D03*
X0167784Y0112587D03*
X0167784Y0114556D03*
X0167784Y0116524D03*
X0167784Y0118493D03*
X0167784Y0120461D03*
X0167784Y0122430D03*
X0167784Y0124398D03*
X0167784Y0126367D03*
X0167784Y0128335D03*
X0167784Y0130304D03*
X0167784Y0132272D03*
X0167784Y0134241D03*
X0167784Y0136209D03*
X0167784Y0138178D03*
X0167784Y0140146D03*
X0167784Y0142115D03*
X0167784Y0144083D03*
X0167784Y0146052D03*
X0167784Y0148020D03*
X0167784Y0149989D03*
X0167784Y0151957D03*
X0167784Y0153926D03*
X0167784Y0155894D03*
X0230776Y0155894D03*
X0230776Y0153926D03*
X0230776Y0151957D03*
X0230776Y0149989D03*
X0230776Y0146052D03*
X0230776Y0144083D03*
X0230776Y0142115D03*
X0230776Y0140146D03*
X0230776Y0138178D03*
X0230776Y0136209D03*
X0230776Y0134241D03*
X0230776Y0132272D03*
X0230776Y0130304D03*
X0230776Y0126367D03*
X0230776Y0124398D03*
X0230776Y0122430D03*
X0230776Y0120461D03*
X0230776Y0118493D03*
X0230776Y0116524D03*
X0230776Y0114556D03*
X0230776Y0112587D03*
X0230776Y0110619D03*
X0230776Y0108650D03*
D11*
X0222902Y0100776D03*
X0220934Y0100776D03*
X0218965Y0100776D03*
X0216997Y0100776D03*
X0215028Y0100776D03*
X0213060Y0100776D03*
X0211091Y0100776D03*
X0209123Y0100776D03*
X0207154Y0100776D03*
X0205186Y0100776D03*
X0203217Y0100776D03*
X0201249Y0100776D03*
X0199280Y0100776D03*
X0197312Y0100776D03*
X0195343Y0100776D03*
X0193375Y0100776D03*
X0191406Y0100776D03*
X0189438Y0100776D03*
X0187469Y0100776D03*
X0185501Y0100776D03*
X0183532Y0100776D03*
X0181564Y0100776D03*
X0179595Y0100776D03*
X0177627Y0100776D03*
X0175658Y0100776D03*
X0175658Y0163769D03*
X0177627Y0163769D03*
X0179595Y0163769D03*
X0181564Y0163769D03*
X0183532Y0163769D03*
X0185501Y0163769D03*
X0187469Y0163769D03*
X0189438Y0163769D03*
X0191406Y0163769D03*
X0193375Y0163769D03*
X0195343Y0163769D03*
X0197312Y0163769D03*
X0199280Y0163769D03*
X0201249Y0163769D03*
X0203217Y0163769D03*
X0205186Y0163769D03*
X0207154Y0163769D03*
X0209123Y0163769D03*
X0211091Y0163769D03*
X0213060Y0163769D03*
X0215028Y0163769D03*
X0216997Y0163769D03*
X0218965Y0163769D03*
X0220934Y0163769D03*
X0222902Y0163769D03*
D12*
X0230776Y0148020D03*
X0230776Y0128335D03*
D13*
X0104635Y0126446D03*
X0104635Y0133926D03*
X0095580Y0133926D03*
X0095580Y0130186D03*
X0095580Y0126446D03*
D14*
X0091997Y0155146D03*
X0091997Y0164202D03*
D15*
X0103471Y0153152D02*
X0106097Y0153152D01*
X0106097Y0150526D01*
X0103471Y0150526D01*
X0103471Y0153152D01*
X0103471Y0151400D02*
X0106097Y0151400D01*
X0106097Y0152274D02*
X0103471Y0152274D01*
X0103471Y0153148D02*
X0106097Y0153148D01*
X0109471Y0153152D02*
X0112097Y0153152D01*
X0112097Y0150526D01*
X0109471Y0150526D01*
X0109471Y0153152D01*
X0109471Y0151400D02*
X0112097Y0151400D01*
X0112097Y0152274D02*
X0109471Y0152274D01*
X0109471Y0153148D02*
X0112097Y0153148D01*
X0131188Y0149424D02*
X0133814Y0149424D01*
X0131188Y0149424D02*
X0131188Y0152050D01*
X0133814Y0152050D01*
X0133814Y0149424D01*
X0133814Y0150298D02*
X0131188Y0150298D01*
X0131188Y0151172D02*
X0133814Y0151172D01*
X0133814Y0152046D02*
X0131188Y0152046D01*
X0137188Y0149424D02*
X0139814Y0149424D01*
X0137188Y0149424D02*
X0137188Y0152050D01*
X0139814Y0152050D01*
X0139814Y0149424D01*
X0139814Y0150298D02*
X0137188Y0150298D01*
X0137188Y0151172D02*
X0139814Y0151172D01*
X0139814Y0152046D02*
X0137188Y0152046D01*
X0137830Y0131314D02*
X0135204Y0131314D01*
X0135204Y0133940D01*
X0137830Y0133940D01*
X0137830Y0131314D01*
X0137830Y0132188D02*
X0135204Y0132188D01*
X0135204Y0133062D02*
X0137830Y0133062D01*
X0137830Y0133936D02*
X0135204Y0133936D01*
X0141204Y0131314D02*
X0143830Y0131314D01*
X0141204Y0131314D02*
X0141204Y0133940D01*
X0143830Y0133940D01*
X0143830Y0131314D01*
X0143830Y0132188D02*
X0141204Y0132188D01*
X0141204Y0133062D02*
X0143830Y0133062D01*
X0143830Y0133936D02*
X0141204Y0133936D01*
X0105011Y0108085D02*
X0102385Y0108085D01*
X0102385Y0110711D01*
X0105011Y0110711D01*
X0105011Y0108085D01*
X0105011Y0108959D02*
X0102385Y0108959D01*
X0102385Y0109833D02*
X0105011Y0109833D01*
X0105011Y0110707D02*
X0102385Y0110707D01*
X0099011Y0108085D02*
X0096385Y0108085D01*
X0096385Y0110711D01*
X0099011Y0110711D01*
X0099011Y0108085D01*
X0099011Y0108959D02*
X0096385Y0108959D01*
X0096385Y0109833D02*
X0099011Y0109833D01*
X0099011Y0110707D02*
X0096385Y0110707D01*
X0083192Y0128629D02*
X0083192Y0131255D01*
X0083192Y0128629D02*
X0080566Y0128629D01*
X0080566Y0131255D01*
X0083192Y0131255D01*
X0083192Y0129503D02*
X0080566Y0129503D01*
X0080566Y0130377D02*
X0083192Y0130377D01*
X0083192Y0131251D02*
X0080566Y0131251D01*
X0083192Y0134629D02*
X0083192Y0137255D01*
X0083192Y0134629D02*
X0080566Y0134629D01*
X0080566Y0137255D01*
X0083192Y0137255D01*
X0083192Y0135503D02*
X0080566Y0135503D01*
X0080566Y0136377D02*
X0083192Y0136377D01*
X0083192Y0137251D02*
X0080566Y0137251D01*
X0131267Y0177692D02*
X0133893Y0177692D01*
X0131267Y0177692D02*
X0131267Y0180318D01*
X0133893Y0180318D01*
X0133893Y0177692D01*
X0133893Y0178566D02*
X0131267Y0178566D01*
X0131267Y0179440D02*
X0133893Y0179440D01*
X0133893Y0180314D02*
X0131267Y0180314D01*
X0137267Y0177692D02*
X0139893Y0177692D01*
X0137267Y0177692D02*
X0137267Y0180318D01*
X0139893Y0180318D01*
X0139893Y0177692D01*
X0139893Y0178566D02*
X0137267Y0178566D01*
X0137267Y0179440D02*
X0139893Y0179440D01*
X0139893Y0180314D02*
X0137267Y0180314D01*
X0136963Y0093833D02*
X0134337Y0093833D01*
X0134337Y0096459D01*
X0136963Y0096459D01*
X0136963Y0093833D01*
X0136963Y0094707D02*
X0134337Y0094707D01*
X0134337Y0095581D02*
X0136963Y0095581D01*
X0136963Y0096455D02*
X0134337Y0096455D01*
X0140337Y0093833D02*
X0142963Y0093833D01*
X0140337Y0093833D02*
X0140337Y0096459D01*
X0142963Y0096459D01*
X0142963Y0093833D01*
X0142963Y0094707D02*
X0140337Y0094707D01*
X0140337Y0095581D02*
X0142963Y0095581D01*
X0142963Y0096455D02*
X0140337Y0096455D01*
X0138833Y0069774D02*
X0138833Y0067148D01*
X0138833Y0069774D02*
X0141459Y0069774D01*
X0141459Y0067148D01*
X0138833Y0067148D01*
X0138833Y0068022D02*
X0141459Y0068022D01*
X0141459Y0068896D02*
X0138833Y0068896D01*
X0138833Y0069770D02*
X0141459Y0069770D01*
X0138833Y0063774D02*
X0138833Y0061148D01*
X0138833Y0063774D02*
X0141459Y0063774D01*
X0141459Y0061148D01*
X0138833Y0061148D01*
X0138833Y0062022D02*
X0141459Y0062022D01*
X0141459Y0062896D02*
X0138833Y0062896D01*
X0138833Y0063770D02*
X0141459Y0063770D01*
X0180239Y0061467D02*
X0180239Y0058841D01*
X0177613Y0058841D01*
X0177613Y0061467D01*
X0180239Y0061467D01*
X0180239Y0059715D02*
X0177613Y0059715D01*
X0177613Y0060589D02*
X0180239Y0060589D01*
X0180239Y0061463D02*
X0177613Y0061463D01*
X0180239Y0055467D02*
X0180239Y0052841D01*
X0177613Y0052841D01*
X0177613Y0055467D01*
X0180239Y0055467D01*
X0180239Y0053715D02*
X0177613Y0053715D01*
X0177613Y0054589D02*
X0180239Y0054589D01*
X0180239Y0055463D02*
X0177613Y0055463D01*
X0180396Y0043357D02*
X0180396Y0040731D01*
X0177770Y0040731D01*
X0177770Y0043357D01*
X0180396Y0043357D01*
X0180396Y0041605D02*
X0177770Y0041605D01*
X0177770Y0042479D02*
X0180396Y0042479D01*
X0180396Y0043353D02*
X0177770Y0043353D01*
X0180396Y0037357D02*
X0180396Y0034731D01*
X0177770Y0034731D01*
X0177770Y0037357D01*
X0180396Y0037357D01*
X0180396Y0035605D02*
X0177770Y0035605D01*
X0177770Y0036479D02*
X0180396Y0036479D01*
X0180396Y0037353D02*
X0177770Y0037353D01*
X0196932Y0037436D02*
X0196932Y0034810D01*
X0194306Y0034810D01*
X0194306Y0037436D01*
X0196932Y0037436D01*
X0196932Y0035684D02*
X0194306Y0035684D01*
X0194306Y0036558D02*
X0196932Y0036558D01*
X0196932Y0037432D02*
X0194306Y0037432D01*
X0196932Y0040810D02*
X0196932Y0043436D01*
X0196932Y0040810D02*
X0194306Y0040810D01*
X0194306Y0043436D01*
X0196932Y0043436D01*
X0196932Y0041684D02*
X0194306Y0041684D01*
X0194306Y0042558D02*
X0196932Y0042558D01*
X0196932Y0043432D02*
X0194306Y0043432D01*
X0196774Y0052920D02*
X0196774Y0055546D01*
X0196774Y0052920D02*
X0194148Y0052920D01*
X0194148Y0055546D01*
X0196774Y0055546D01*
X0196774Y0053794D02*
X0194148Y0053794D01*
X0194148Y0054668D02*
X0196774Y0054668D01*
X0196774Y0055542D02*
X0194148Y0055542D01*
X0196774Y0058920D02*
X0196774Y0061546D01*
X0196774Y0058920D02*
X0194148Y0058920D01*
X0194148Y0061546D01*
X0196774Y0061546D01*
X0196774Y0059794D02*
X0194148Y0059794D01*
X0194148Y0060668D02*
X0196774Y0060668D01*
X0196774Y0061542D02*
X0194148Y0061542D01*
X0213782Y0061074D02*
X0213782Y0058448D01*
X0211156Y0058448D01*
X0211156Y0061074D01*
X0213782Y0061074D01*
X0213782Y0059322D02*
X0211156Y0059322D01*
X0211156Y0060196D02*
X0213782Y0060196D01*
X0213782Y0061070D02*
X0211156Y0061070D01*
X0213782Y0055074D02*
X0213782Y0052448D01*
X0211156Y0052448D01*
X0211156Y0055074D01*
X0213782Y0055074D01*
X0213782Y0053322D02*
X0211156Y0053322D01*
X0211156Y0054196D02*
X0213782Y0054196D01*
X0213782Y0055070D02*
X0211156Y0055070D01*
X0213940Y0043357D02*
X0213940Y0040731D01*
X0211314Y0040731D01*
X0211314Y0043357D01*
X0213940Y0043357D01*
X0213940Y0041605D02*
X0211314Y0041605D01*
X0211314Y0042479D02*
X0213940Y0042479D01*
X0213940Y0043353D02*
X0211314Y0043353D01*
X0213940Y0037357D02*
X0213940Y0034731D01*
X0211314Y0034731D01*
X0211314Y0037357D01*
X0213940Y0037357D01*
X0213940Y0035605D02*
X0211314Y0035605D01*
X0211314Y0036479D02*
X0213940Y0036479D01*
X0213940Y0037353D02*
X0211314Y0037353D01*
X0230475Y0037042D02*
X0230475Y0034416D01*
X0227849Y0034416D01*
X0227849Y0037042D01*
X0230475Y0037042D01*
X0230475Y0035290D02*
X0227849Y0035290D01*
X0227849Y0036164D02*
X0230475Y0036164D01*
X0230475Y0037038D02*
X0227849Y0037038D01*
X0230475Y0040416D02*
X0230475Y0043042D01*
X0230475Y0040416D02*
X0227849Y0040416D01*
X0227849Y0043042D01*
X0230475Y0043042D01*
X0230475Y0041290D02*
X0227849Y0041290D01*
X0227849Y0042164D02*
X0230475Y0042164D01*
X0230475Y0043038D02*
X0227849Y0043038D01*
X0229924Y0051739D02*
X0229924Y0054365D01*
X0229924Y0051739D02*
X0227298Y0051739D01*
X0227298Y0054365D01*
X0229924Y0054365D01*
X0229924Y0052613D02*
X0227298Y0052613D01*
X0227298Y0053487D02*
X0229924Y0053487D01*
X0229924Y0054361D02*
X0227298Y0054361D01*
X0229924Y0057739D02*
X0229924Y0060365D01*
X0229924Y0057739D02*
X0227298Y0057739D01*
X0227298Y0060365D01*
X0229924Y0060365D01*
X0229924Y0058613D02*
X0227298Y0058613D01*
X0227298Y0059487D02*
X0229924Y0059487D01*
X0229924Y0060361D02*
X0227298Y0060361D01*
X0253156Y0080605D02*
X0255782Y0080605D01*
X0253156Y0080605D02*
X0253156Y0083231D01*
X0255782Y0083231D01*
X0255782Y0080605D01*
X0255782Y0081479D02*
X0253156Y0081479D01*
X0253156Y0082353D02*
X0255782Y0082353D01*
X0255782Y0083227D02*
X0253156Y0083227D01*
X0259156Y0080605D02*
X0261782Y0080605D01*
X0259156Y0080605D02*
X0259156Y0083231D01*
X0261782Y0083231D01*
X0261782Y0080605D01*
X0261782Y0081479D02*
X0259156Y0081479D01*
X0259156Y0082353D02*
X0261782Y0082353D01*
X0261782Y0083227D02*
X0259156Y0083227D01*
X0258763Y0096432D02*
X0261389Y0096432D01*
X0258763Y0096432D02*
X0258763Y0099058D01*
X0261389Y0099058D01*
X0261389Y0096432D01*
X0261389Y0097306D02*
X0258763Y0097306D01*
X0258763Y0098180D02*
X0261389Y0098180D01*
X0261389Y0099054D02*
X0258763Y0099054D01*
X0255389Y0096432D02*
X0252763Y0096432D01*
X0252763Y0099058D01*
X0255389Y0099058D01*
X0255389Y0096432D01*
X0255389Y0097306D02*
X0252763Y0097306D01*
X0252763Y0098180D02*
X0255389Y0098180D01*
X0255389Y0099054D02*
X0252763Y0099054D01*
D16*
X0207076Y0072154D03*
X0200383Y0072154D03*
X0045383Y0177509D03*
X0038690Y0177509D03*
D17*
X0137469Y0169359D03*
X0137469Y0159517D03*
D18*
X0139241Y0121328D03*
X0139241Y0106761D03*
D19*
X0053619Y0096643D02*
X0047619Y0096643D01*
X0047619Y0086643D02*
X0053619Y0086643D01*
X0053619Y0076643D02*
X0047619Y0076643D01*
X0047619Y0066643D02*
X0053619Y0066643D01*
X0053619Y0056643D02*
X0047619Y0056643D01*
X0047619Y0046643D02*
X0053619Y0046643D01*
X0053619Y0036643D02*
X0047619Y0036643D01*
X0047619Y0026643D02*
X0053619Y0026643D01*
X0351280Y0126485D02*
X0357280Y0126485D01*
X0357280Y0136485D02*
X0351280Y0136485D01*
X0351280Y0146485D02*
X0357280Y0146485D01*
X0357280Y0156485D02*
X0351280Y0156485D01*
D20*
X0038965Y0148926D03*
X0038965Y0146367D03*
X0038965Y0143808D03*
X0038965Y0141249D03*
X0038965Y0138690D03*
D21*
X0028335Y0143808D03*
D22*
X0053217Y0144871D03*
X0059910Y0144871D03*
X0060107Y0158965D03*
X0053414Y0158965D03*
X0052627Y0177154D03*
X0059320Y0177154D03*
X0059910Y0131052D03*
X0053217Y0131052D03*
X0094989Y0085934D03*
X0101682Y0085934D03*
X0183493Y0192745D03*
X0190186Y0192745D03*
X0201603Y0193926D03*
X0208296Y0193926D03*
D23*
X0125107Y0072883D03*
X0125107Y0057883D03*
X0105107Y0057883D03*
X0105107Y0072883D03*
D24*
X0343532Y0215304D03*
X0343532Y0225304D03*
X0343532Y0235304D03*
X0343532Y0245304D03*
X0353532Y0245304D03*
X0353532Y0235304D03*
X0353532Y0225304D03*
X0353532Y0215304D03*
D25*
X0269674Y0217706D03*
X0267706Y0217706D03*
X0265737Y0217706D03*
X0263769Y0217706D03*
X0261800Y0217706D03*
X0259831Y0217706D03*
X0257863Y0217706D03*
X0255894Y0217706D03*
X0253926Y0217706D03*
X0251957Y0217706D03*
X0249989Y0217706D03*
X0248020Y0217706D03*
X0246052Y0217706D03*
X0244083Y0217706D03*
X0242115Y0217706D03*
X0240146Y0217706D03*
X0238178Y0217706D03*
X0236209Y0217706D03*
X0234241Y0217706D03*
X0232272Y0217706D03*
X0230304Y0217706D03*
X0228335Y0217706D03*
X0226367Y0217706D03*
X0224398Y0217706D03*
X0224398Y0255540D03*
X0226367Y0255540D03*
X0228335Y0255540D03*
X0230304Y0255540D03*
X0232272Y0255540D03*
X0234241Y0255540D03*
X0236209Y0255540D03*
X0238178Y0255540D03*
X0240146Y0255540D03*
X0242115Y0255540D03*
X0244083Y0255540D03*
X0246052Y0255540D03*
X0248020Y0255540D03*
X0249989Y0255540D03*
X0251957Y0255540D03*
X0253926Y0255540D03*
X0255894Y0255540D03*
X0257863Y0255540D03*
X0259831Y0255540D03*
X0261800Y0255540D03*
X0263769Y0255540D03*
X0265737Y0255540D03*
X0267706Y0255540D03*
X0269674Y0255540D03*
D26*
X0277154Y0268335D03*
X0277154Y0230501D03*
X0216918Y0230501D03*
X0216918Y0268335D03*
D27*
X0298650Y0165186D03*
X0298650Y0158099D03*
X0298257Y0143532D03*
X0298257Y0136446D03*
X0280146Y0136446D03*
X0280146Y0143532D03*
X0263217Y0143139D03*
X0263217Y0136052D03*
D28*
X0277391Y0119910D03*
X0284477Y0119910D03*
D29*
X0280146Y0158690D03*
X0280146Y0165383D03*
X0263217Y0164989D03*
X0263217Y0158296D03*
D30*
X0263316Y0158296D01*
X0267745Y0153867D01*
X0270698Y0152153D02*
X0270698Y0149438D01*
X0271190Y0149930D01*
X0270698Y0152153D02*
X0271045Y0152500D01*
X0271045Y0165927D01*
X0277784Y0172666D01*
X0277784Y0203867D01*
X0272666Y0208985D01*
X0267745Y0208985D01*
X0267745Y0217351D01*
X0267706Y0217706D01*
X0265776Y0217843D02*
X0265737Y0217706D01*
X0265776Y0217843D02*
X0265776Y0222272D01*
X0266761Y0223257D01*
X0263808Y0220796D02*
X0263808Y0217843D01*
X0263769Y0217706D01*
X0261839Y0217351D02*
X0261800Y0217706D01*
X0261839Y0217351D02*
X0261839Y0212922D01*
X0261839Y0208985D01*
X0259871Y0210954D02*
X0261839Y0212922D01*
X0259871Y0214398D02*
X0257902Y0212430D01*
X0257902Y0191269D01*
X0259379Y0189792D01*
X0259379Y0186839D01*
X0257902Y0185363D01*
X0257902Y0178965D01*
X0254950Y0176013D01*
X0261347Y0180934D02*
X0261347Y0190776D01*
X0259871Y0192253D01*
X0259871Y0210954D01*
X0259871Y0214398D02*
X0259871Y0217351D01*
X0259831Y0217706D01*
X0259871Y0217843D01*
X0259871Y0227194D01*
X0261347Y0228670D01*
X0261347Y0234083D01*
X0265776Y0238513D01*
X0265776Y0255245D01*
X0265737Y0255540D01*
X0263808Y0255737D02*
X0263808Y0258690D01*
X0264792Y0259674D01*
X0272666Y0259674D01*
X0272666Y0236052D01*
X0272174Y0235560D01*
X0272174Y0216367D01*
X0274635Y0213906D01*
X0274635Y0210954D01*
X0272666Y0208985D01*
X0271190Y0212430D02*
X0269713Y0213906D01*
X0269713Y0217351D01*
X0269674Y0217706D01*
X0263808Y0220796D02*
X0263316Y0221288D01*
X0263316Y0233099D01*
X0269221Y0239005D01*
X0261839Y0239497D02*
X0261839Y0255245D01*
X0261800Y0255540D01*
X0261839Y0255737D01*
X0261839Y0263611D01*
X0263316Y0265087D01*
X0259871Y0267548D02*
X0261347Y0269024D01*
X0261347Y0274930D01*
X0255442Y0280835D01*
X0221977Y0280835D01*
X0221977Y0241957D01*
X0221485Y0241465D01*
X0221485Y0236052D01*
X0221977Y0235560D01*
X0221977Y0217843D01*
X0220993Y0216859D01*
X0217056Y0220304D02*
X0210658Y0226702D01*
X0210658Y0236052D01*
X0207213Y0248847D02*
X0218532Y0260166D01*
X0227391Y0261150D02*
X0228375Y0260166D01*
X0228375Y0255737D01*
X0228335Y0255540D01*
X0226406Y0255245D02*
X0226367Y0255540D01*
X0226406Y0255245D02*
X0226406Y0239989D01*
X0224930Y0239989D01*
X0226406Y0239989D02*
X0226406Y0217843D01*
X0226367Y0217706D01*
X0228335Y0217706D02*
X0228375Y0217351D01*
X0228375Y0209969D01*
X0226898Y0205540D02*
X0220501Y0211938D01*
X0220501Y0205048D02*
X0219024Y0203572D01*
X0219024Y0164202D01*
X0218965Y0163769D01*
X0217056Y0164202D02*
X0216997Y0163769D01*
X0217056Y0164202D02*
X0217056Y0220304D01*
X0207213Y0216859D02*
X0207213Y0248847D01*
X0201308Y0254753D02*
X0201308Y0203572D01*
X0203276Y0201603D01*
X0203769Y0201603D01*
X0203769Y0193729D01*
X0201800Y0193729D01*
X0201603Y0193926D01*
X0201308Y0193729D01*
X0197863Y0193729D01*
X0197863Y0173060D01*
X0199339Y0171583D01*
X0199339Y0171091D01*
X0200816Y0169615D01*
X0195894Y0171091D02*
X0195894Y0196682D01*
X0196387Y0197174D01*
X0190481Y0192745D02*
X0190186Y0192745D01*
X0189989Y0193237D01*
X0189989Y0212430D01*
X0189497Y0212430D01*
X0189989Y0212430D02*
X0189989Y0226702D01*
X0188020Y0228670D01*
X0188020Y0243434D01*
X0181131Y0239989D02*
X0178178Y0237036D01*
X0178178Y0191269D01*
X0177686Y0190776D01*
X0177686Y0164202D01*
X0177627Y0163769D01*
X0175717Y0163709D02*
X0175658Y0163769D01*
X0175225Y0164202D01*
X0175225Y0186839D01*
X0174241Y0187824D01*
X0170796Y0184379D02*
X0170796Y0214398D01*
X0174241Y0207017D02*
X0174241Y0239989D01*
X0181131Y0239989D02*
X0181131Y0260166D01*
X0205245Y0260166D01*
X0208690Y0263611D01*
X0208690Y0270009D01*
X0214595Y0275914D01*
X0232312Y0261150D02*
X0232312Y0255737D01*
X0232272Y0255540D01*
X0230343Y0255245D02*
X0230304Y0255540D01*
X0230343Y0255245D02*
X0230343Y0252292D01*
X0229359Y0251308D01*
X0229359Y0233099D01*
X0230835Y0233099D01*
X0229359Y0233099D02*
X0229359Y0224241D01*
X0230343Y0223257D01*
X0230343Y0217843D01*
X0230304Y0217706D01*
X0232272Y0217706D02*
X0232312Y0217351D01*
X0232312Y0203080D01*
X0233788Y0201603D01*
X0226898Y0205540D02*
X0226898Y0159280D01*
X0220501Y0159280D01*
X0216564Y0155343D01*
X0216564Y0114497D01*
X0230343Y0114497D01*
X0230776Y0114556D01*
X0230835Y0116465D02*
X0230776Y0116524D01*
X0230835Y0116465D02*
X0250028Y0116465D01*
X0250028Y0069221D01*
X0282017Y0037233D01*
X0315481Y0037233D01*
X0315481Y0106131D01*
X0341564Y0132213D01*
X0341564Y0207017D01*
X0348946Y0214398D01*
X0348946Y0230639D01*
X0353375Y0235068D01*
X0353532Y0235304D01*
X0358296Y0240481D02*
X0358296Y0160757D01*
X0354359Y0156820D01*
X0354280Y0156485D01*
X0346977Y0137627D02*
X0346977Y0208493D01*
X0353375Y0214891D01*
X0353532Y0215304D01*
X0343532Y0225225D02*
X0343532Y0225304D01*
X0343532Y0225225D02*
X0339103Y0220796D01*
X0339103Y0134674D01*
X0338119Y0133690D01*
X0345009Y0135658D02*
X0346977Y0137627D01*
X0353867Y0126308D02*
X0354280Y0126485D01*
X0353867Y0126308D02*
X0353867Y0103178D01*
X0318926Y0068237D01*
X0318926Y0055934D01*
X0294320Y0060855D02*
X0284969Y0070206D01*
X0284969Y0075619D01*
X0284477Y0075619D01*
X0284969Y0075619D02*
X0284969Y0114497D01*
X0299487Y0129015D01*
X0286446Y0142056D01*
X0286446Y0155343D01*
X0287430Y0156328D01*
X0287430Y0231623D01*
X0288414Y0232607D01*
X0283985Y0230146D02*
X0283985Y0273454D01*
X0283001Y0274438D01*
X0272174Y0277391D02*
X0272174Y0263119D01*
X0272666Y0262627D01*
X0274635Y0262627D01*
X0274635Y0259674D01*
X0276111Y0258198D01*
X0280540Y0248847D02*
X0280540Y0239497D01*
X0287430Y0243926D02*
X0287430Y0248847D01*
X0287430Y0243926D02*
X0291859Y0239497D01*
X0291859Y0224241D01*
X0290875Y0223257D01*
X0283985Y0216367D02*
X0283985Y0162233D01*
X0280540Y0158788D01*
X0280146Y0158690D01*
X0276603Y0158296D02*
X0276603Y0161741D01*
X0280048Y0165186D01*
X0280146Y0165383D01*
X0276603Y0158296D02*
X0275127Y0158296D01*
X0276603Y0158296D02*
X0276603Y0146977D01*
X0280048Y0143532D01*
X0280146Y0143532D01*
X0280048Y0143040D01*
X0283985Y0139103D01*
X0283985Y0120402D01*
X0284477Y0119910D01*
X0284477Y0119418D01*
X0272666Y0107607D01*
X0272666Y0097765D01*
X0260855Y0085954D01*
X0260363Y0085954D01*
X0260363Y0097272D01*
X0260076Y0097745D01*
X0260363Y0097765D01*
X0261347Y0098749D01*
X0261347Y0112528D01*
X0263808Y0112528D01*
X0261347Y0112528D02*
X0261347Y0134182D01*
X0263217Y0136052D01*
X0259379Y0138119D02*
X0261347Y0140087D01*
X0267253Y0140087D01*
X0267253Y0147961D01*
X0262331Y0152883D01*
X0258887Y0147469D02*
X0263217Y0143139D01*
X0258887Y0147469D02*
X0258887Y0160757D01*
X0262824Y0164694D01*
X0263217Y0164989D01*
X0263316Y0165186D01*
X0264792Y0166662D01*
X0264792Y0191761D01*
X0269123Y0183690D02*
X0269123Y0176997D01*
X0271879Y0174241D01*
X0256918Y0165186D02*
X0256918Y0120402D01*
X0230835Y0120402D01*
X0230776Y0120461D01*
X0230835Y0124339D02*
X0230776Y0124398D01*
X0230835Y0124339D02*
X0239694Y0124339D01*
X0239694Y0123847D01*
X0236741Y0126308D02*
X0236741Y0127784D01*
X0236741Y0126308D02*
X0230835Y0126308D01*
X0230776Y0126367D01*
X0230343Y0128276D02*
X0230776Y0128335D01*
X0230343Y0128276D02*
X0224930Y0128276D01*
X0224930Y0120894D01*
X0220009Y0120894D02*
X0220009Y0134674D01*
X0222961Y0137627D01*
X0222961Y0138119D01*
X0230343Y0138119D01*
X0230776Y0138178D01*
X0230343Y0140087D02*
X0230776Y0140146D01*
X0230343Y0140087D02*
X0220009Y0140087D01*
X0224438Y0136150D02*
X0224438Y0132213D01*
X0224438Y0136150D02*
X0230343Y0136150D01*
X0230776Y0136209D01*
X0230776Y0134241D02*
X0230835Y0134182D01*
X0240186Y0134182D01*
X0240186Y0140468D01*
X0243243Y0143525D01*
X0243919Y0143525D01*
X0244320Y0143926D01*
X0244530Y0143926D01*
X0245606Y0145002D01*
X0245606Y0148456D01*
X0244624Y0149438D01*
X0241957Y0152981D02*
X0241957Y0169123D01*
X0230835Y0156328D02*
X0230776Y0155894D01*
X0230835Y0156328D02*
X0230835Y0193237D01*
X0240678Y0187331D02*
X0240678Y0211938D01*
X0240146Y0217706D02*
X0240186Y0217843D01*
X0240186Y0236544D01*
X0241662Y0236544D01*
X0240186Y0236544D02*
X0240186Y0255245D01*
X0240146Y0255540D01*
X0238217Y0255737D02*
X0238178Y0255540D01*
X0238217Y0255245D01*
X0238217Y0217843D01*
X0238178Y0217706D01*
X0236249Y0217843D02*
X0236209Y0217706D01*
X0236249Y0217843D02*
X0236249Y0226702D01*
X0234772Y0226702D01*
X0236249Y0226702D02*
X0236249Y0255245D01*
X0236209Y0255540D01*
X0234280Y0255245D02*
X0234241Y0255540D01*
X0234280Y0255245D02*
X0234280Y0241957D01*
X0232804Y0241957D01*
X0234280Y0241957D02*
X0234280Y0231623D01*
X0231328Y0228670D01*
X0231328Y0225225D01*
X0234280Y0222272D01*
X0234280Y0217843D01*
X0234241Y0217706D01*
X0242115Y0217706D02*
X0242154Y0217843D01*
X0242154Y0220796D01*
X0246583Y0225225D01*
X0250028Y0223749D02*
X0248060Y0221780D01*
X0248060Y0217843D01*
X0248020Y0217706D01*
X0244123Y0217351D02*
X0244083Y0217706D01*
X0244123Y0217351D02*
X0244123Y0194713D01*
X0244615Y0188316D02*
X0249705Y0183226D01*
X0249705Y0143532D01*
X0248576Y0142403D01*
X0248169Y0142403D01*
X0246091Y0140325D01*
X0246091Y0135658D01*
X0242646Y0132213D02*
X0242646Y0140383D01*
X0243989Y0141725D01*
X0244946Y0141725D01*
X0247905Y0144684D01*
X0247905Y0182480D01*
X0246006Y0184379D01*
X0243631Y0184379D01*
X0240678Y0187331D01*
X0255934Y0188316D02*
X0255934Y0217351D01*
X0255894Y0217706D01*
X0253965Y0217843D02*
X0253926Y0217706D01*
X0253965Y0217843D02*
X0253965Y0220796D01*
X0254457Y0221288D01*
X0254457Y0235560D01*
X0255934Y0237036D01*
X0252489Y0236052D02*
X0252489Y0247863D01*
X0252981Y0248355D01*
X0252981Y0251308D01*
X0251997Y0252292D01*
X0251997Y0255245D01*
X0251957Y0255540D01*
X0251997Y0255737D01*
X0251997Y0271977D01*
X0248060Y0275914D01*
X0248552Y0270501D02*
X0250028Y0269024D01*
X0250028Y0255737D01*
X0249989Y0255540D01*
X0248060Y0255245D02*
X0248060Y0252292D01*
X0249782Y0250570D01*
X0249536Y0250324D01*
X0249536Y0249831D01*
X0249782Y0250570D02*
X0250520Y0249831D01*
X0250520Y0237036D01*
X0250028Y0236544D01*
X0250028Y0223749D01*
X0251997Y0217843D02*
X0251957Y0217706D01*
X0251997Y0217843D02*
X0251997Y0235560D01*
X0252489Y0236052D01*
X0247076Y0238513D02*
X0247076Y0246879D01*
X0246091Y0247863D01*
X0246091Y0255245D01*
X0246052Y0255540D01*
X0244123Y0255245D02*
X0244083Y0255540D01*
X0244123Y0255245D02*
X0244123Y0245894D01*
X0243631Y0245402D01*
X0242115Y0255540D02*
X0242154Y0255737D01*
X0242154Y0261150D01*
X0238217Y0260166D02*
X0238217Y0255737D01*
X0238217Y0260166D02*
X0237233Y0261150D01*
X0248020Y0255540D02*
X0248060Y0255245D01*
X0253926Y0255540D02*
X0253965Y0255737D01*
X0253965Y0277391D01*
X0257902Y0270501D02*
X0257902Y0255737D01*
X0257863Y0255540D01*
X0255934Y0255245D02*
X0255894Y0255540D01*
X0255934Y0255245D02*
X0255934Y0249339D01*
X0256426Y0248847D01*
X0259831Y0255540D02*
X0259871Y0255737D01*
X0259871Y0267548D01*
X0263808Y0255737D02*
X0263769Y0255540D01*
X0257902Y0230146D02*
X0257902Y0217843D01*
X0257863Y0217706D01*
X0251505Y0201603D02*
X0251505Y0141072D01*
X0249536Y0139103D01*
X0242646Y0132213D02*
X0230835Y0132213D01*
X0230776Y0132272D01*
X0230835Y0142056D02*
X0230776Y0142115D01*
X0230835Y0142056D02*
X0236741Y0142056D01*
X0236741Y0141564D01*
X0234280Y0144024D02*
X0235265Y0145009D01*
X0239104Y0145009D01*
X0239595Y0144517D01*
X0241202Y0146124D01*
X0238808Y0149831D02*
X0241957Y0152981D01*
X0238808Y0149831D02*
X0230934Y0149831D01*
X0230776Y0149989D01*
X0230835Y0151898D02*
X0230776Y0151957D01*
X0230835Y0151898D02*
X0234280Y0151898D01*
X0235265Y0152883D01*
X0235265Y0153867D01*
X0236741Y0155343D01*
X0230776Y0153926D02*
X0230343Y0153867D01*
X0224930Y0153867D01*
X0224930Y0155343D01*
X0221485Y0152391D02*
X0221485Y0148946D01*
X0224438Y0145993D01*
X0230343Y0145993D01*
X0230776Y0146052D01*
X0230343Y0147961D02*
X0230776Y0148020D01*
X0230343Y0147961D02*
X0227391Y0147961D01*
X0224930Y0150422D01*
X0221485Y0152391D02*
X0220009Y0153867D01*
X0214595Y0150422D02*
X0214595Y0113513D01*
X0222961Y0105146D01*
X0226406Y0105146D01*
X0226406Y0086938D01*
X0222961Y0085461D02*
X0222961Y0100717D01*
X0222902Y0100776D01*
X0220993Y0100717D02*
X0220934Y0100776D01*
X0220993Y0100717D02*
X0220993Y0090383D01*
X0219517Y0088906D01*
X0222961Y0085461D02*
X0214103Y0085461D01*
X0200816Y0072174D01*
X0200383Y0072154D01*
X0200324Y0072174D01*
X0196879Y0075619D01*
X0196387Y0075619D01*
X0196387Y0070698D01*
X0187036Y0070698D01*
X0179654Y0078080D01*
X0179654Y0100717D01*
X0179595Y0100776D01*
X0179654Y0101209D01*
X0179654Y0120402D01*
X0172272Y0120402D01*
X0172272Y0134674D01*
X0172765Y0134674D01*
X0177194Y0139103D01*
X0177194Y0144024D01*
X0177194Y0149438D01*
X0175717Y0150914D01*
X0175717Y0163709D01*
X0179595Y0163769D02*
X0179654Y0164202D01*
X0179654Y0182902D01*
X0181131Y0184379D01*
X0184576Y0182902D02*
X0184576Y0192253D01*
X0183493Y0192745D01*
X0184576Y0192745D01*
X0184576Y0209969D01*
X0183099Y0209969D01*
X0184576Y0209969D02*
X0184576Y0256721D01*
X0177686Y0252784D02*
X0164891Y0252784D01*
X0150619Y0238513D01*
X0150619Y0159772D01*
X0156524Y0153867D01*
X0156524Y0151898D01*
X0158001Y0150422D01*
X0161938Y0145993D02*
X0167351Y0145993D01*
X0167784Y0146052D01*
X0167843Y0147961D02*
X0167784Y0148020D01*
X0167843Y0147961D02*
X0173749Y0147961D01*
X0173749Y0142056D02*
X0167843Y0142056D01*
X0167784Y0142115D01*
X0167784Y0140146D02*
X0167351Y0140087D01*
X0156524Y0140087D01*
X0156524Y0144024D01*
X0152095Y0138119D02*
X0151111Y0137135D01*
X0136347Y0137135D01*
X0136347Y0146977D01*
X0132902Y0150422D01*
X0132501Y0150737D01*
X0132410Y0150914D01*
X0132410Y0178965D01*
X0132580Y0179005D01*
X0132902Y0179457D01*
X0141761Y0188316D01*
X0141761Y0188808D01*
X0136839Y0189300D02*
X0143237Y0195698D01*
X0138580Y0179005D02*
X0138316Y0178965D01*
X0137824Y0178473D01*
X0137824Y0169615D01*
X0137469Y0169359D01*
X0137824Y0169123D01*
X0146190Y0160757D01*
X0146190Y0144024D01*
X0149635Y0140580D01*
X0152095Y0138119D02*
X0167351Y0138119D01*
X0167784Y0138178D01*
X0167784Y0136209D02*
X0167843Y0136150D01*
X0172272Y0136150D01*
X0172272Y0134674D01*
X0167784Y0134241D02*
X0167351Y0134182D01*
X0152587Y0134182D01*
X0152095Y0134674D01*
X0142745Y0134674D01*
X0142745Y0132706D01*
X0142517Y0132627D01*
X0142253Y0132213D01*
X0139300Y0129261D01*
X0139300Y0121387D01*
X0139241Y0121328D01*
X0146190Y0113020D02*
X0139792Y0106623D01*
X0139241Y0106761D01*
X0139300Y0106623D01*
X0139300Y0097272D01*
X0141269Y0095304D01*
X0141650Y0095146D01*
X0135855Y0094812D02*
X0135650Y0095146D01*
X0135363Y0095304D01*
X0133887Y0096780D01*
X0133887Y0129753D01*
X0136347Y0132213D01*
X0136517Y0132627D01*
X0136347Y0132706D01*
X0136347Y0137135D01*
X0142745Y0147469D02*
X0138316Y0151898D01*
X0138501Y0150737D01*
X0138316Y0150914D01*
X0137824Y0151406D01*
X0137824Y0159280D01*
X0137469Y0159517D01*
X0128965Y0160265D02*
X0128965Y0155343D01*
X0126997Y0153375D01*
X0125028Y0150422D02*
X0123552Y0151898D01*
X0123552Y0173060D01*
X0128965Y0178473D01*
X0128965Y0222272D01*
X0140284Y0233591D01*
X0154064Y0223257D02*
X0154064Y0159280D01*
X0163414Y0149930D01*
X0167351Y0149930D01*
X0167784Y0149989D01*
X0167351Y0151898D02*
X0164398Y0151898D01*
X0158985Y0157312D01*
X0158985Y0219812D01*
X0157509Y0219812D01*
X0158985Y0219812D02*
X0158985Y0241957D01*
X0166367Y0249339D01*
X0149143Y0247371D02*
X0142253Y0254261D01*
X0165875Y0225225D02*
X0165875Y0182410D01*
X0167351Y0180934D01*
X0162430Y0175028D02*
X0162430Y0201111D01*
X0174241Y0207017D02*
X0174733Y0206524D01*
X0190481Y0192745D02*
X0192450Y0190776D01*
X0192450Y0187824D01*
X0188020Y0184379D02*
X0191465Y0180934D01*
X0191465Y0164202D01*
X0191406Y0163769D01*
X0189497Y0163709D02*
X0189438Y0163769D01*
X0189497Y0163709D02*
X0189497Y0157804D01*
X0185560Y0158788D02*
X0184576Y0157804D01*
X0185560Y0158788D02*
X0185560Y0163709D01*
X0185501Y0163769D01*
X0183591Y0164202D02*
X0183532Y0163769D01*
X0183591Y0164202D02*
X0183591Y0173060D01*
X0186544Y0176013D01*
X0186544Y0180934D01*
X0184576Y0182902D01*
X0183099Y0177489D02*
X0181623Y0176013D01*
X0181623Y0164202D01*
X0181564Y0163769D01*
X0187469Y0163769D02*
X0187528Y0164202D01*
X0187528Y0169615D01*
X0194910Y0170107D02*
X0195894Y0171091D01*
X0195343Y0163769D02*
X0195402Y0163709D01*
X0195402Y0153867D01*
X0199339Y0145009D02*
X0197863Y0143532D01*
X0199339Y0145009D02*
X0199339Y0163709D01*
X0199280Y0163769D01*
X0201249Y0163769D02*
X0201308Y0163709D01*
X0201308Y0134182D01*
X0199831Y0132706D01*
X0199831Y0118926D01*
X0212135Y0106623D01*
X0203276Y0120402D02*
X0207706Y0124831D01*
X0207706Y0150422D01*
X0211150Y0153867D02*
X0214595Y0150422D01*
X0215028Y0163769D02*
X0215087Y0164202D01*
X0215087Y0167154D01*
X0212627Y0169615D01*
X0209182Y0164202D02*
X0209123Y0163769D01*
X0209182Y0164202D02*
X0209182Y0179457D01*
X0205737Y0183394D02*
X0212135Y0189792D01*
X0212135Y0208985D01*
X0209182Y0211938D01*
X0204753Y0214398D02*
X0207213Y0216859D01*
X0197863Y0212430D02*
X0197863Y0223257D01*
X0208296Y0193926D02*
X0208198Y0193729D01*
X0205737Y0191269D01*
X0205737Y0188316D01*
X0205737Y0183394D02*
X0205737Y0169615D01*
X0203217Y0163769D02*
X0203276Y0163709D01*
X0203276Y0131229D01*
X0192942Y0143532D02*
X0192942Y0115481D01*
X0191465Y0114005D01*
X0189005Y0116465D02*
X0188020Y0115481D01*
X0188020Y0112528D01*
X0193926Y0106623D01*
X0197312Y0100776D02*
X0197371Y0100717D01*
X0197371Y0083001D01*
X0188513Y0074143D01*
X0177686Y0075127D02*
X0177686Y0100717D01*
X0177627Y0100776D01*
X0177686Y0101209D01*
X0177686Y0118434D01*
X0167843Y0118434D01*
X0167784Y0118493D01*
X0167843Y0120402D02*
X0167784Y0120461D01*
X0167843Y0120402D02*
X0172272Y0120402D01*
X0167784Y0122430D02*
X0167351Y0122371D01*
X0163906Y0122371D01*
X0163414Y0121879D01*
X0163414Y0029851D01*
X0163414Y0021485D01*
X0158493Y0021485D01*
X0156524Y0023454D01*
X0156524Y0041170D01*
X0046780Y0041170D01*
X0042843Y0045107D01*
X0042843Y0058887D01*
X0050225Y0066269D01*
X0050619Y0066643D01*
X0058099Y0055442D02*
X0058099Y0054457D01*
X0050717Y0047076D01*
X0050619Y0046643D01*
X0058099Y0055442D02*
X0106820Y0104162D01*
X0106820Y0115973D01*
X0113217Y0122371D01*
X0116662Y0120402D02*
X0116662Y0194221D01*
X0121583Y0193729D02*
X0121583Y0140580D01*
X0125028Y0150422D02*
X0125028Y0100717D01*
X0130934Y0094812D01*
X0135855Y0094812D02*
X0143237Y0087430D01*
X0143237Y0079064D01*
X0143729Y0079064D01*
X0143237Y0079064D02*
X0143237Y0065776D01*
X0140284Y0062824D01*
X0140146Y0062461D01*
X0139792Y0062331D01*
X0125520Y0062331D01*
X0125520Y0057902D01*
X0125107Y0057883D01*
X0125028Y0057902D01*
X0105343Y0057902D01*
X0105107Y0057883D01*
X0100422Y0054950D02*
X0100422Y0075619D01*
X0100668Y0075865D01*
X0096977Y0079556D01*
X0096977Y0083493D01*
X0095009Y0085461D01*
X0094989Y0085934D01*
X0100422Y0084477D02*
X0100422Y0081032D01*
X0100422Y0084477D02*
X0101406Y0085461D01*
X0101682Y0085934D01*
X0100668Y0075865D02*
X0103375Y0073158D01*
X0104851Y0073158D01*
X0105107Y0072883D01*
X0105343Y0073158D01*
X0125028Y0073158D01*
X0125107Y0072883D01*
X0125520Y0072666D01*
X0125520Y0068729D01*
X0139792Y0068729D01*
X0140146Y0068461D01*
X0150127Y0059379D02*
X0150127Y0130737D01*
X0150619Y0131229D01*
X0155048Y0127784D02*
X0153572Y0126308D01*
X0153572Y0057902D01*
X0150619Y0054950D01*
X0100422Y0054950D01*
X0095993Y0098257D02*
X0078769Y0115481D01*
X0078769Y0132706D01*
X0081721Y0135658D01*
X0081879Y0135942D01*
X0081721Y0136150D01*
X0081721Y0162233D01*
X0074339Y0162233D01*
X0059576Y0176997D01*
X0059320Y0177154D01*
X0052627Y0177154D02*
X0052194Y0177489D01*
X0045796Y0177489D01*
X0045383Y0177509D01*
X0045107Y0171091D02*
X0038690Y0177509D01*
X0045107Y0171091D02*
X0045107Y0149438D01*
X0039477Y0149438D01*
X0038965Y0148926D01*
X0039280Y0146682D02*
X0046288Y0146682D01*
X0053414Y0153808D01*
X0053414Y0158965D01*
X0060107Y0158965D02*
X0060560Y0158788D01*
X0078276Y0158788D01*
X0090087Y0153375D02*
X0090087Y0150914D01*
X0090087Y0153375D02*
X0091564Y0154851D01*
X0091997Y0155146D01*
X0092056Y0164202D02*
X0091997Y0164202D01*
X0092056Y0164202D02*
X0104359Y0151898D01*
X0104784Y0151839D01*
X0104851Y0151406D01*
X0104851Y0134182D01*
X0104635Y0133926D01*
X0106820Y0130245D02*
X0099438Y0130245D01*
X0099438Y0124831D01*
X0090826Y0116219D01*
X0097469Y0109576D01*
X0097698Y0109398D01*
X0103698Y0109398D02*
X0103867Y0109576D01*
X0104359Y0110068D01*
X0104359Y0126308D01*
X0104635Y0126446D01*
X0106820Y0130245D02*
X0108788Y0132213D01*
X0108788Y0149438D01*
X0110757Y0151406D01*
X0110784Y0151839D01*
X0095501Y0135658D02*
X0091564Y0135658D01*
X0091564Y0126800D01*
X0095501Y0126800D01*
X0095580Y0126446D01*
X0095580Y0130186D02*
X0095993Y0130245D01*
X0099438Y0130245D01*
X0095580Y0133926D02*
X0095501Y0134182D01*
X0095501Y0135658D01*
X0091564Y0135658D02*
X0082213Y0135658D01*
X0081879Y0135942D01*
X0081879Y0129942D02*
X0082213Y0129753D01*
X0082213Y0124831D01*
X0084920Y0122125D01*
X0082213Y0119418D01*
X0082213Y0118926D01*
X0084920Y0122125D02*
X0090826Y0116219D01*
X0075324Y0130737D02*
X0060068Y0130737D01*
X0059910Y0131052D01*
X0053217Y0131052D02*
X0043020Y0141249D01*
X0038965Y0141249D01*
X0038847Y0138808D02*
X0028572Y0138808D01*
X0028572Y0135658D01*
X0049241Y0114989D01*
X0060560Y0114989D01*
X0049241Y0114989D02*
X0049241Y0097765D01*
X0050225Y0096780D01*
X0050619Y0096643D01*
X0042843Y0094320D02*
X0050225Y0086938D01*
X0050619Y0086643D01*
X0042843Y0094320D02*
X0042843Y0102194D01*
X0045796Y0105146D01*
X0038965Y0138690D02*
X0038847Y0138808D01*
X0038965Y0143808D02*
X0039398Y0144024D01*
X0042351Y0144024D01*
X0042843Y0144517D01*
X0053178Y0144517D01*
X0053217Y0144871D01*
X0059910Y0144871D02*
X0060068Y0144517D01*
X0078276Y0144517D01*
X0078276Y0140580D01*
X0039280Y0146682D02*
X0038965Y0146367D01*
X0028572Y0143532D02*
X0028572Y0138808D01*
X0028572Y0143532D02*
X0028335Y0143808D01*
X0093040Y0199635D02*
X0106328Y0212922D01*
X0118139Y0219812D02*
X0125028Y0212922D01*
X0125028Y0179457D01*
X0162430Y0175028D02*
X0167351Y0170107D01*
X0162430Y0163709D02*
X0167351Y0158788D01*
X0167351Y0156328D01*
X0167784Y0155894D01*
X0167784Y0153926D02*
X0167843Y0153867D01*
X0171288Y0153867D01*
X0172272Y0154851D01*
X0172272Y0158788D01*
X0170796Y0160265D01*
X0167784Y0151957D02*
X0167351Y0151898D01*
X0173749Y0142056D02*
X0173749Y0140580D01*
X0180639Y0135658D02*
X0180639Y0156820D01*
X0179654Y0157804D01*
X0184083Y0147469D02*
X0189005Y0142548D01*
X0189005Y0116465D01*
X0185560Y0101209D02*
X0185501Y0100776D01*
X0185560Y0101209D02*
X0185560Y0135658D01*
X0183591Y0132706D02*
X0180639Y0135658D01*
X0183591Y0132706D02*
X0183591Y0101209D01*
X0183532Y0100776D01*
X0181623Y0100717D02*
X0181564Y0100776D01*
X0181623Y0100717D02*
X0181623Y0093828D01*
X0183099Y0092351D01*
X0187528Y0094812D02*
X0187528Y0100717D01*
X0187469Y0100776D01*
X0172765Y0114989D02*
X0172765Y0067253D01*
X0179162Y0060855D01*
X0178926Y0060154D01*
X0179162Y0060363D01*
X0195402Y0060363D01*
X0195461Y0060233D01*
X0195894Y0060363D01*
X0195894Y0060855D01*
X0203522Y0068483D01*
X0212135Y0059871D01*
X0212469Y0059761D01*
X0212627Y0059379D01*
X0228375Y0059379D01*
X0228611Y0059052D01*
X0228375Y0053473D02*
X0228611Y0053052D01*
X0228375Y0053473D02*
X0212627Y0053473D01*
X0212469Y0053761D01*
X0212135Y0053965D01*
X0204261Y0053965D01*
X0204261Y0036249D01*
X0195894Y0036249D01*
X0195619Y0036123D01*
X0195402Y0036249D01*
X0179162Y0036249D01*
X0179083Y0036044D01*
X0178670Y0036249D01*
X0166859Y0036249D01*
X0163414Y0029851D02*
X0191957Y0029851D01*
X0202292Y0029851D02*
X0188020Y0015580D01*
X0155048Y0015580D01*
X0155048Y0020009D01*
X0155048Y0015580D02*
X0050717Y0015580D01*
X0050717Y0026406D01*
X0050619Y0026643D01*
X0121583Y0115481D02*
X0116662Y0120402D01*
X0157017Y0114005D02*
X0158493Y0115481D01*
X0158493Y0132213D01*
X0167351Y0132213D01*
X0167784Y0132272D01*
X0167784Y0130304D02*
X0167351Y0130245D01*
X0161938Y0130245D01*
X0161938Y0127784D01*
X0160954Y0124339D02*
X0160954Y0025914D01*
X0159969Y0024930D01*
X0179083Y0042044D02*
X0179162Y0042646D01*
X0168335Y0053473D01*
X0168335Y0067745D01*
X0171780Y0055934D02*
X0179162Y0048552D01*
X0178670Y0049536D01*
X0196387Y0049536D01*
X0195894Y0053965D02*
X0195461Y0054233D01*
X0195402Y0054457D01*
X0179162Y0054457D01*
X0178926Y0054154D01*
X0179162Y0042154D02*
X0179083Y0042044D01*
X0179162Y0042154D02*
X0187528Y0042154D01*
X0187528Y0041662D01*
X0187528Y0042154D02*
X0195402Y0042154D01*
X0195619Y0042123D01*
X0204261Y0036249D02*
X0212135Y0036249D01*
X0212627Y0036044D01*
X0212627Y0035757D01*
X0218532Y0035757D01*
X0218532Y0035265D01*
X0218532Y0035757D02*
X0228867Y0035757D01*
X0229162Y0035729D01*
X0229162Y0041729D02*
X0228867Y0042646D01*
X0231820Y0045599D01*
X0231820Y0075127D01*
X0238709Y0077095D02*
X0247076Y0085461D01*
X0247076Y0109576D01*
X0241662Y0109576D01*
X0238709Y0106623D01*
X0243631Y0106131D02*
X0238709Y0101209D01*
X0238709Y0082017D01*
X0230343Y0085954D02*
X0230343Y0108591D01*
X0230776Y0108650D01*
X0230835Y0110560D02*
X0230776Y0110619D01*
X0230835Y0110560D02*
X0235265Y0110560D01*
X0235265Y0038709D01*
X0229162Y0041729D02*
X0228867Y0042154D01*
X0222961Y0042154D01*
X0222961Y0044123D01*
X0222961Y0042154D02*
X0212627Y0042154D01*
X0212627Y0042044D01*
X0204261Y0053965D02*
X0195894Y0053965D01*
X0203522Y0068483D02*
X0206721Y0071682D01*
X0207076Y0072154D01*
X0211150Y0066761D02*
X0230343Y0085954D01*
X0253473Y0088906D02*
X0253473Y0083001D01*
X0254457Y0082017D01*
X0254469Y0081918D01*
X0260363Y0082017D02*
X0260363Y0085954D01*
X0260363Y0082017D02*
X0260469Y0081918D01*
X0260855Y0081524D01*
X0260855Y0065284D01*
X0266269Y0059871D01*
X0266269Y0057902D01*
X0283493Y0040678D01*
X0294320Y0065776D02*
X0310068Y0081524D01*
X0310068Y0254753D01*
X0303178Y0256721D02*
X0303178Y0208985D01*
X0306623Y0212430D02*
X0306623Y0127784D01*
X0302686Y0132213D02*
X0299487Y0129015D01*
X0302686Y0132213D02*
X0302686Y0161249D01*
X0298749Y0165186D01*
X0298650Y0165186D01*
X0298650Y0158099D02*
X0298257Y0157804D01*
X0298257Y0153867D01*
X0294812Y0153867D01*
X0298257Y0153867D02*
X0298257Y0143532D01*
X0294320Y0140580D02*
X0298257Y0136643D01*
X0298257Y0136446D01*
X0294320Y0140580D02*
X0294320Y0149438D01*
X0289891Y0153867D01*
X0289891Y0154359D01*
X0294320Y0158788D01*
X0294320Y0241957D01*
X0299733Y0237528D02*
X0298257Y0236052D01*
X0298257Y0189792D01*
X0299733Y0188316D01*
X0326997Y0174241D02*
X0326997Y0136839D01*
X0317942Y0127784D01*
X0303769Y0114005D02*
X0303769Y0084083D01*
X0269221Y0099241D02*
X0269221Y0141072D01*
X0270698Y0142548D01*
X0275127Y0136643D02*
X0280048Y0136643D01*
X0280146Y0136446D01*
X0275127Y0136643D02*
X0274635Y0136150D01*
X0274635Y0135658D01*
X0259379Y0138119D02*
X0259379Y0102686D01*
X0254457Y0097765D01*
X0254076Y0097745D01*
X0274635Y0114989D02*
X0274635Y0117450D01*
X0277095Y0119910D01*
X0277391Y0119910D01*
X0234280Y0144024D02*
X0230835Y0144024D01*
X0230776Y0144083D01*
X0222902Y0163769D02*
X0222961Y0164202D01*
X0223454Y0164694D01*
X0223454Y0169615D01*
X0167784Y0124398D02*
X0167351Y0124339D01*
X0160954Y0124339D01*
X0167784Y0116524D02*
X0167843Y0116465D01*
X0167843Y0114989D01*
X0167784Y0114556D01*
X0168335Y0114989D01*
X0172765Y0114989D01*
X0167784Y0108650D02*
X0167351Y0108591D01*
X0166859Y0108099D01*
X0166859Y0105146D01*
X0353532Y0245304D02*
X0353867Y0244910D01*
X0358296Y0240481D01*
D31*
X0310068Y0254753D03*
X0303178Y0256721D03*
X0294320Y0241957D03*
X0299733Y0237528D03*
X0288414Y0232607D03*
X0283985Y0230146D03*
X0290875Y0223257D03*
X0283985Y0216367D03*
X0271190Y0212430D03*
X0261839Y0208985D03*
X0251505Y0201603D03*
X0244123Y0194713D03*
X0244615Y0188316D03*
X0255934Y0188316D03*
X0261347Y0180934D03*
X0254950Y0176013D03*
X0256918Y0165186D03*
X0262331Y0152883D03*
X0267745Y0153867D03*
X0270698Y0149438D03*
X0270698Y0142548D03*
X0274635Y0135658D03*
X0274635Y0114989D03*
X0284969Y0114497D03*
X0269221Y0099241D03*
X0263808Y0112528D03*
X0243631Y0106131D03*
X0238709Y0106623D03*
X0239694Y0123847D03*
X0236741Y0127784D03*
X0246091Y0135658D03*
X0249536Y0139103D03*
X0236741Y0141564D03*
X0236741Y0155343D03*
X0224930Y0155343D03*
X0224930Y0150422D03*
X0220009Y0153867D03*
X0211150Y0153867D03*
X0207706Y0150422D03*
X0197863Y0143532D03*
X0192942Y0143532D03*
X0184083Y0147469D03*
X0177194Y0144024D03*
X0173749Y0140580D03*
X0173749Y0147961D03*
X0179654Y0157804D03*
X0184576Y0157804D03*
X0189497Y0157804D03*
X0195402Y0153867D03*
X0194910Y0170107D03*
X0200816Y0169615D03*
X0205737Y0169615D03*
X0212627Y0169615D03*
X0209182Y0179457D03*
X0205737Y0188316D03*
X0196387Y0197174D03*
X0203769Y0201603D03*
X0209182Y0211938D03*
X0204753Y0214398D03*
X0197863Y0212430D03*
X0189497Y0212430D03*
X0183099Y0209969D03*
X0174733Y0206524D03*
X0170796Y0214398D03*
X0165875Y0225225D03*
X0157509Y0219812D03*
X0154064Y0223257D03*
X0140284Y0233591D03*
X0149143Y0247371D03*
X0142253Y0254261D03*
X0166367Y0249339D03*
X0177686Y0252784D03*
X0184576Y0256721D03*
X0188020Y0243434D03*
X0181131Y0239989D03*
X0174241Y0239989D03*
X0188020Y0228670D03*
X0197863Y0223257D03*
X0210658Y0236052D03*
X0224930Y0239989D03*
X0232804Y0241957D03*
X0230835Y0233099D03*
X0234772Y0226702D03*
X0246583Y0225225D03*
X0241662Y0236544D03*
X0247076Y0238513D03*
X0243631Y0245402D03*
X0249536Y0249831D03*
X0256426Y0248847D03*
X0261839Y0239497D03*
X0255934Y0237036D03*
X0257902Y0230146D03*
X0266761Y0223257D03*
X0269221Y0239005D03*
X0280540Y0239497D03*
X0280540Y0248847D03*
X0287430Y0248847D03*
X0276111Y0258198D03*
X0263316Y0265087D03*
X0257902Y0270501D03*
X0253965Y0277391D03*
X0248060Y0275914D03*
X0248552Y0270501D03*
X0242154Y0261150D03*
X0237233Y0261150D03*
X0232312Y0261150D03*
X0227391Y0261150D03*
X0218532Y0260166D03*
X0214595Y0275914D03*
X0201308Y0254753D03*
X0220993Y0216859D03*
X0220501Y0211938D03*
X0220501Y0205048D03*
X0228375Y0209969D03*
X0233788Y0201603D03*
X0240678Y0211938D03*
X0230835Y0193237D03*
X0223454Y0169615D03*
X0220009Y0140087D03*
X0224438Y0132213D03*
X0224930Y0120894D03*
X0220009Y0120894D03*
X0212135Y0106623D03*
X0203276Y0120402D03*
X0203276Y0131229D03*
X0191465Y0114005D03*
X0193926Y0106623D03*
X0187528Y0094812D03*
X0183099Y0092351D03*
X0166859Y0105146D03*
X0157017Y0114005D03*
X0146190Y0113020D03*
X0155048Y0127784D03*
X0150619Y0131229D03*
X0161938Y0127784D03*
X0156524Y0144024D03*
X0161938Y0145993D03*
X0158001Y0150422D03*
X0149635Y0140580D03*
X0142745Y0147469D03*
X0126997Y0153375D03*
X0128965Y0160265D03*
X0125028Y0179457D03*
X0136839Y0189300D03*
X0141761Y0188808D03*
X0143237Y0195698D03*
X0162430Y0201111D03*
X0174241Y0187824D03*
X0170796Y0184379D03*
X0167351Y0180934D03*
X0167351Y0170107D03*
X0162430Y0163709D03*
X0170796Y0160265D03*
X0187528Y0169615D03*
X0183099Y0177489D03*
X0181131Y0184379D03*
X0188020Y0184379D03*
X0192450Y0187824D03*
X0178178Y0191269D03*
X0185560Y0135658D03*
X0219517Y0088906D03*
X0226406Y0086938D03*
X0231820Y0075127D03*
X0238709Y0077095D03*
X0238709Y0082017D03*
X0253473Y0088906D03*
X0284477Y0075619D03*
X0294320Y0065776D03*
X0294320Y0060855D03*
X0283493Y0040678D03*
X0266269Y0059871D03*
X0235265Y0038709D03*
X0222961Y0044123D03*
X0218532Y0035265D03*
X0202292Y0029851D03*
X0191957Y0029851D03*
X0187528Y0041662D03*
X0179162Y0048552D03*
X0171780Y0055934D03*
X0168335Y0067745D03*
X0177686Y0075127D03*
X0188513Y0074143D03*
X0196879Y0075619D03*
X0211150Y0066761D03*
X0196387Y0049536D03*
X0166859Y0036249D03*
X0159969Y0024930D03*
X0155048Y0020009D03*
X0150127Y0059379D03*
X0143729Y0079064D03*
X0130934Y0094812D03*
X0121583Y0115481D03*
X0113217Y0122371D03*
X0121583Y0140580D03*
X0090087Y0150914D03*
X0078276Y0158788D03*
X0078276Y0140580D03*
X0075324Y0130737D03*
X0082213Y0118926D03*
X0060560Y0114989D03*
X0045796Y0105146D03*
X0095993Y0098257D03*
X0100422Y0081032D03*
X0116662Y0194221D03*
X0121583Y0193729D03*
X0106328Y0212922D03*
X0118139Y0219812D03*
X0093040Y0199635D03*
X0264792Y0191761D03*
X0275127Y0158296D03*
X0289891Y0153867D03*
X0294812Y0153867D03*
X0306623Y0127784D03*
X0338119Y0133690D03*
X0345009Y0135658D03*
X0299733Y0188316D03*
X0303178Y0208985D03*
X0306623Y0212430D03*
X0283001Y0274438D03*
X0272174Y0277391D03*
X0318926Y0068237D03*
X0318926Y0055934D03*
D32*
X0024329Y0015274D02*
X0024329Y0119080D01*
X0024598Y0119008D01*
X0027535Y0119008D01*
X0027535Y0143008D01*
X0029135Y0143008D01*
X0029135Y0119008D01*
X0032072Y0119008D01*
X0032530Y0119131D01*
X0032941Y0119368D01*
X0033276Y0119703D01*
X0033513Y0120113D01*
X0033635Y0120571D01*
X0033635Y0130713D01*
X0035709Y0129854D01*
X0038284Y0129854D01*
X0040664Y0130840D01*
X0042485Y0132661D01*
X0043470Y0135040D01*
X0043470Y0137474D01*
X0043521Y0137665D01*
X0043521Y0137778D01*
X0049452Y0131847D01*
X0049452Y0128421D01*
X0050389Y0127483D01*
X0056045Y0127483D01*
X0056564Y0128002D01*
X0057082Y0127483D01*
X0062738Y0127483D01*
X0063676Y0128421D01*
X0063676Y0128637D01*
X0072332Y0128637D01*
X0073284Y0127685D01*
X0074608Y0127137D01*
X0076040Y0127137D01*
X0076669Y0127397D01*
X0076669Y0114611D01*
X0077899Y0113381D01*
X0092393Y0098887D01*
X0092393Y0097541D01*
X0092941Y0096217D01*
X0093954Y0095205D01*
X0094617Y0094930D01*
X0057934Y0058246D01*
X0057519Y0059248D01*
X0056225Y0060542D01*
X0054534Y0061243D01*
X0048169Y0061243D01*
X0048969Y0062043D01*
X0054534Y0062043D01*
X0056225Y0062743D01*
X0057519Y0064037D01*
X0058219Y0065728D01*
X0058219Y0067558D01*
X0057519Y0069248D01*
X0056225Y0070542D01*
X0054534Y0071243D01*
X0046704Y0071243D01*
X0045013Y0070542D01*
X0043719Y0069248D01*
X0043019Y0067558D01*
X0043019Y0065728D01*
X0043719Y0064037D01*
X0044371Y0063385D01*
X0041973Y0060987D01*
X0040743Y0059756D01*
X0040743Y0044237D01*
X0044680Y0040300D01*
X0044726Y0040255D01*
X0043719Y0039248D01*
X0043019Y0037558D01*
X0043019Y0035728D01*
X0043719Y0034037D01*
X0045013Y0032743D01*
X0046704Y0032043D01*
X0054534Y0032043D01*
X0056225Y0032743D01*
X0057519Y0034037D01*
X0058219Y0035728D01*
X0058219Y0037558D01*
X0057592Y0039070D01*
X0154424Y0039070D01*
X0154424Y0023609D01*
X0154332Y0023609D01*
X0153009Y0023061D01*
X0151996Y0022048D01*
X0151448Y0020725D01*
X0151448Y0019293D01*
X0151996Y0017969D01*
X0152286Y0017680D01*
X0134753Y0017680D01*
X0138707Y0021634D01*
X0138707Y0029998D01*
X0132793Y0035912D01*
X0124429Y0035912D01*
X0118515Y0029998D01*
X0118515Y0021634D01*
X0122469Y0017680D01*
X0052817Y0017680D01*
X0052817Y0022043D01*
X0054534Y0022043D01*
X0056225Y0022743D01*
X0057519Y0024037D01*
X0058219Y0025728D01*
X0058219Y0027558D01*
X0057519Y0029248D01*
X0056225Y0030542D01*
X0054534Y0031243D01*
X0046704Y0031243D01*
X0045013Y0030542D01*
X0043719Y0029248D01*
X0043019Y0027558D01*
X0043019Y0025728D01*
X0043719Y0024037D01*
X0045013Y0022743D01*
X0046704Y0022043D01*
X0048617Y0022043D01*
X0048617Y0015274D01*
X0024329Y0015274D01*
X0024329Y0016068D02*
X0048617Y0016068D01*
X0048617Y0017667D02*
X0024329Y0017667D01*
X0024329Y0019265D02*
X0048617Y0019265D01*
X0048617Y0020864D02*
X0024329Y0020864D01*
X0024329Y0022462D02*
X0045691Y0022462D01*
X0043709Y0024061D02*
X0024329Y0024061D01*
X0024329Y0025659D02*
X0043047Y0025659D01*
X0043019Y0027258D02*
X0024329Y0027258D01*
X0024329Y0028856D02*
X0043557Y0028856D01*
X0044926Y0030455D02*
X0024329Y0030455D01*
X0024329Y0032053D02*
X0046678Y0032053D01*
X0044104Y0033652D02*
X0024329Y0033652D01*
X0024329Y0035250D02*
X0043217Y0035250D01*
X0043019Y0036849D02*
X0024329Y0036849D01*
X0024329Y0038447D02*
X0043387Y0038447D01*
X0044517Y0040046D02*
X0024329Y0040046D01*
X0024329Y0041644D02*
X0043336Y0041644D01*
X0041738Y0043243D02*
X0024329Y0043243D01*
X0024329Y0044841D02*
X0040743Y0044841D01*
X0040743Y0046440D02*
X0024329Y0046440D01*
X0024329Y0048038D02*
X0040743Y0048038D01*
X0040743Y0049637D02*
X0024329Y0049637D01*
X0024329Y0051235D02*
X0040743Y0051235D01*
X0040743Y0052834D02*
X0024329Y0052834D01*
X0024329Y0054432D02*
X0040743Y0054432D01*
X0040743Y0056031D02*
X0024329Y0056031D01*
X0024329Y0057629D02*
X0040743Y0057629D01*
X0040743Y0059228D02*
X0024329Y0059228D01*
X0024329Y0060826D02*
X0041813Y0060826D01*
X0043412Y0062425D02*
X0024329Y0062425D01*
X0024329Y0064023D02*
X0043733Y0064023D01*
X0043063Y0065622D02*
X0024329Y0065622D01*
X0024329Y0067220D02*
X0043019Y0067220D01*
X0043541Y0068819D02*
X0024329Y0068819D01*
X0024329Y0070417D02*
X0044888Y0070417D01*
X0045013Y0072743D02*
X0046704Y0072043D01*
X0054534Y0072043D01*
X0056225Y0072743D01*
X0057519Y0074037D01*
X0058219Y0075728D01*
X0058219Y0077558D01*
X0057519Y0079248D01*
X0056225Y0080542D01*
X0054534Y0081243D01*
X0046704Y0081243D01*
X0045013Y0080542D01*
X0043719Y0079248D01*
X0043019Y0077558D01*
X0043019Y0075728D01*
X0043719Y0074037D01*
X0045013Y0072743D01*
X0044142Y0073614D02*
X0024329Y0073614D01*
X0024329Y0072016D02*
X0071704Y0072016D01*
X0073302Y0073614D02*
X0057096Y0073614D01*
X0058006Y0075213D02*
X0074901Y0075213D01*
X0076499Y0076811D02*
X0058219Y0076811D01*
X0057866Y0078410D02*
X0078098Y0078410D01*
X0079696Y0080009D02*
X0056758Y0080009D01*
X0056225Y0082743D02*
X0057519Y0084037D01*
X0058219Y0085728D01*
X0058219Y0087558D01*
X0057519Y0089248D01*
X0056225Y0090542D01*
X0054534Y0091243D01*
X0048890Y0091243D01*
X0048290Y0091843D01*
X0050419Y0091843D01*
X0050419Y0096442D01*
X0050819Y0096442D01*
X0050819Y0091843D01*
X0053997Y0091843D01*
X0054743Y0091961D01*
X0055461Y0092194D01*
X0056135Y0092537D01*
X0056746Y0092981D01*
X0057280Y0093516D01*
X0057724Y0094127D01*
X0058067Y0094800D01*
X0058301Y0095519D01*
X0058419Y0096265D01*
X0058419Y0096442D01*
X0050819Y0096442D01*
X0050819Y0096843D01*
X0050419Y0096843D01*
X0050419Y0101443D01*
X0047241Y0101443D01*
X0046495Y0101324D01*
X0045776Y0101091D01*
X0045103Y0100748D01*
X0044943Y0100632D01*
X0044943Y0101324D01*
X0045166Y0101546D01*
X0046512Y0101546D01*
X0047835Y0102095D01*
X0048848Y0103107D01*
X0049396Y0104430D01*
X0049396Y0105863D01*
X0048848Y0107186D01*
X0047835Y0108198D01*
X0046512Y0108746D01*
X0045080Y0108746D01*
X0043757Y0108198D01*
X0042744Y0107186D01*
X0042196Y0105863D01*
X0042196Y0104516D01*
X0041973Y0104294D01*
X0040743Y0103064D01*
X0040743Y0093450D01*
X0044332Y0089861D01*
X0043719Y0089248D01*
X0043019Y0087558D01*
X0043019Y0085728D01*
X0043719Y0084037D01*
X0045013Y0082743D01*
X0046704Y0082043D01*
X0054534Y0082043D01*
X0056225Y0082743D01*
X0056687Y0083206D02*
X0082893Y0083206D01*
X0084492Y0084804D02*
X0057836Y0084804D01*
X0058219Y0086403D02*
X0086090Y0086403D01*
X0087689Y0088001D02*
X0058035Y0088001D01*
X0057167Y0089600D02*
X0089287Y0089600D01*
X0090886Y0091198D02*
X0054641Y0091198D01*
X0056492Y0092797D02*
X0092484Y0092797D01*
X0094083Y0094395D02*
X0057861Y0094395D01*
X0058376Y0095994D02*
X0093165Y0095994D01*
X0092393Y0097592D02*
X0058328Y0097592D01*
X0058301Y0097767D02*
X0058067Y0098485D01*
X0057724Y0099158D01*
X0057280Y0099770D01*
X0056746Y0100304D01*
X0056135Y0100748D01*
X0055461Y0101091D01*
X0054743Y0101324D01*
X0053997Y0101443D01*
X0050819Y0101443D01*
X0050819Y0096843D01*
X0058419Y0096843D01*
X0058419Y0097020D01*
X0058301Y0097767D01*
X0057701Y0099191D02*
X0092089Y0099191D01*
X0090491Y0100789D02*
X0056054Y0100789D01*
X0050819Y0100789D02*
X0050419Y0100789D01*
X0050419Y0099191D02*
X0050819Y0099191D01*
X0050819Y0097592D02*
X0050419Y0097592D01*
X0050419Y0096843D02*
X0044943Y0096843D01*
X0044943Y0096442D01*
X0050419Y0096442D01*
X0050419Y0096843D01*
X0050419Y0095994D02*
X0050819Y0095994D01*
X0050819Y0094395D02*
X0050419Y0094395D01*
X0050419Y0092797D02*
X0050819Y0092797D01*
X0044071Y0089600D02*
X0024329Y0089600D01*
X0024329Y0091198D02*
X0042995Y0091198D01*
X0041397Y0092797D02*
X0024329Y0092797D01*
X0024329Y0094395D02*
X0040743Y0094395D01*
X0040743Y0095994D02*
X0024329Y0095994D01*
X0024329Y0097592D02*
X0040743Y0097592D01*
X0040743Y0099191D02*
X0024329Y0099191D01*
X0024329Y0100789D02*
X0040743Y0100789D01*
X0040743Y0102388D02*
X0024329Y0102388D01*
X0024329Y0103986D02*
X0041666Y0103986D01*
X0042196Y0105585D02*
X0024329Y0105585D01*
X0024329Y0107183D02*
X0042743Y0107183D01*
X0048849Y0107183D02*
X0084097Y0107183D01*
X0085695Y0105585D02*
X0049396Y0105585D01*
X0049212Y0103986D02*
X0087294Y0103986D01*
X0088892Y0102388D02*
X0048128Y0102388D01*
X0045184Y0100789D02*
X0044943Y0100789D01*
X0043203Y0088001D02*
X0024329Y0088001D01*
X0024329Y0086403D02*
X0043019Y0086403D01*
X0043401Y0084804D02*
X0024329Y0084804D01*
X0024329Y0083206D02*
X0044550Y0083206D01*
X0044480Y0080009D02*
X0024329Y0080009D01*
X0024329Y0081607D02*
X0081295Y0081607D01*
X0070105Y0070417D02*
X0056349Y0070417D01*
X0057696Y0068819D02*
X0068507Y0068819D01*
X0066908Y0067220D02*
X0058219Y0067220D01*
X0058175Y0065622D02*
X0065310Y0065622D01*
X0063711Y0064023D02*
X0057505Y0064023D01*
X0055457Y0062425D02*
X0062113Y0062425D01*
X0060514Y0060826D02*
X0055539Y0060826D01*
X0057527Y0059228D02*
X0058916Y0059228D01*
X0043232Y0075213D02*
X0024329Y0075213D01*
X0024329Y0076811D02*
X0043019Y0076811D01*
X0043372Y0078410D02*
X0024329Y0078410D01*
X0024329Y0108782D02*
X0082498Y0108782D01*
X0080900Y0110380D02*
X0024329Y0110380D01*
X0024329Y0111979D02*
X0079301Y0111979D01*
X0077702Y0113577D02*
X0024329Y0113577D01*
X0024329Y0115176D02*
X0076669Y0115176D01*
X0076669Y0116774D02*
X0024329Y0116774D01*
X0024329Y0118373D02*
X0076669Y0118373D01*
X0076669Y0119971D02*
X0033431Y0119971D01*
X0033635Y0121570D02*
X0076669Y0121570D01*
X0076669Y0123168D02*
X0033635Y0123168D01*
X0033635Y0124767D02*
X0076669Y0124767D01*
X0076669Y0126365D02*
X0033635Y0126365D01*
X0033635Y0127964D02*
X0049909Y0127964D01*
X0049452Y0129562D02*
X0033635Y0129562D01*
X0029135Y0129562D02*
X0027535Y0129562D01*
X0027535Y0127964D02*
X0029135Y0127964D01*
X0029135Y0126365D02*
X0027535Y0126365D01*
X0027535Y0124767D02*
X0029135Y0124767D01*
X0029135Y0123168D02*
X0027535Y0123168D01*
X0027535Y0121570D02*
X0029135Y0121570D01*
X0029135Y0119971D02*
X0027535Y0119971D01*
X0027535Y0131161D02*
X0029135Y0131161D01*
X0029135Y0132759D02*
X0027535Y0132759D01*
X0027535Y0134358D02*
X0029135Y0134358D01*
X0029135Y0135956D02*
X0027535Y0135956D01*
X0027535Y0137555D02*
X0029135Y0137555D01*
X0029135Y0139153D02*
X0027535Y0139153D01*
X0027535Y0140752D02*
X0029135Y0140752D01*
X0029135Y0142350D02*
X0027535Y0142350D01*
X0029135Y0143008D02*
X0029135Y0144608D01*
X0027535Y0144608D01*
X0027535Y0168608D01*
X0024598Y0168608D01*
X0024329Y0168536D01*
X0024329Y0259980D01*
X0183035Y0259980D01*
X0182536Y0259773D01*
X0181524Y0258760D01*
X0180976Y0257437D01*
X0180976Y0256005D01*
X0181524Y0254682D01*
X0182476Y0253730D01*
X0182476Y0213569D01*
X0182383Y0213569D01*
X0181060Y0213021D01*
X0180047Y0212009D01*
X0179499Y0210685D01*
X0179499Y0209253D01*
X0180047Y0207930D01*
X0181060Y0206917D01*
X0182383Y0206369D01*
X0182476Y0206369D01*
X0182476Y0196313D01*
X0180665Y0196313D01*
X0179728Y0195376D01*
X0179728Y0190114D01*
X0180665Y0189176D01*
X0182476Y0189176D01*
X0182476Y0187718D01*
X0181847Y0187979D01*
X0180415Y0187979D01*
X0179091Y0187431D01*
X0178079Y0186418D01*
X0177531Y0185095D01*
X0177531Y0183663D01*
X0177554Y0183606D01*
X0177554Y0168521D01*
X0177325Y0168521D01*
X0177325Y0185862D01*
X0177841Y0187108D01*
X0177841Y0188540D01*
X0177293Y0189863D01*
X0176280Y0190876D01*
X0174957Y0191424D01*
X0173525Y0191424D01*
X0172896Y0191163D01*
X0172896Y0203389D01*
X0174017Y0202924D01*
X0175449Y0202924D01*
X0176772Y0203472D01*
X0177785Y0204485D01*
X0178333Y0205808D01*
X0178333Y0207240D01*
X0177785Y0208564D01*
X0176772Y0209576D01*
X0176341Y0209755D01*
X0176341Y0236998D01*
X0177293Y0237950D01*
X0177841Y0239273D01*
X0177841Y0240705D01*
X0177293Y0242028D01*
X0176280Y0243041D01*
X0174957Y0243589D01*
X0173525Y0243589D01*
X0172202Y0243041D01*
X0171189Y0242028D01*
X0170641Y0240705D01*
X0170641Y0239273D01*
X0171189Y0237950D01*
X0172141Y0236998D01*
X0172141Y0217738D01*
X0171512Y0217998D01*
X0170080Y0217998D01*
X0168757Y0217450D01*
X0167975Y0216668D01*
X0167975Y0222234D01*
X0168927Y0223186D01*
X0169475Y0224509D01*
X0169475Y0225941D01*
X0168927Y0227264D01*
X0167914Y0228277D01*
X0166591Y0228825D01*
X0165159Y0228825D01*
X0163836Y0228277D01*
X0162823Y0227264D01*
X0162275Y0225941D01*
X0162275Y0224509D01*
X0162823Y0223186D01*
X0163775Y0222234D01*
X0163775Y0204451D01*
X0163146Y0204711D01*
X0161714Y0204711D01*
X0161085Y0204451D01*
X0161085Y0219039D01*
X0161109Y0219096D01*
X0161109Y0220528D01*
X0161085Y0220585D01*
X0161085Y0241088D01*
X0165737Y0245739D01*
X0167083Y0245739D01*
X0168406Y0246287D01*
X0169419Y0247300D01*
X0169967Y0248623D01*
X0169967Y0250055D01*
X0169706Y0250684D01*
X0174695Y0250684D01*
X0175647Y0249732D01*
X0176970Y0249184D01*
X0178402Y0249184D01*
X0179725Y0249732D01*
X0180738Y0250745D01*
X0181286Y0252068D01*
X0181286Y0253500D01*
X0180738Y0254823D01*
X0179725Y0255836D01*
X0178402Y0256384D01*
X0176970Y0256384D01*
X0175647Y0255836D01*
X0174695Y0254884D01*
X0164021Y0254884D01*
X0162791Y0253654D01*
X0148519Y0239382D01*
X0148519Y0158903D01*
X0149749Y0157672D01*
X0154424Y0152997D01*
X0154424Y0151195D01*
X0154401Y0151138D01*
X0154401Y0149706D01*
X0154949Y0148383D01*
X0155737Y0147595D01*
X0154485Y0147076D01*
X0153472Y0146064D01*
X0152924Y0144740D01*
X0152924Y0143308D01*
X0153472Y0141985D01*
X0154424Y0141033D01*
X0154424Y0139218D01*
X0155655Y0137987D01*
X0163031Y0137987D01*
X0163031Y0137350D01*
X0163154Y0136893D01*
X0163231Y0136759D01*
X0163231Y0136282D01*
X0153457Y0136282D01*
X0152965Y0136774D01*
X0141875Y0136774D01*
X0141078Y0135977D01*
X0140360Y0135977D01*
X0139648Y0135264D01*
X0139619Y0135313D01*
X0139203Y0135730D01*
X0138693Y0136024D01*
X0138124Y0136177D01*
X0136592Y0136177D01*
X0136592Y0132702D01*
X0136442Y0132702D01*
X0136442Y0136177D01*
X0134909Y0136177D01*
X0134340Y0136024D01*
X0133830Y0135730D01*
X0133414Y0135313D01*
X0133119Y0134803D01*
X0132967Y0134234D01*
X0132967Y0132702D01*
X0136441Y0132702D01*
X0136441Y0132552D01*
X0132967Y0132552D01*
X0132967Y0131020D01*
X0133119Y0130451D01*
X0133414Y0129940D01*
X0133830Y0129524D01*
X0134340Y0129229D01*
X0134909Y0129077D01*
X0136442Y0129077D01*
X0136442Y0132552D01*
X0136592Y0132552D01*
X0136592Y0129077D01*
X0137200Y0129077D01*
X0137200Y0126274D01*
X0134641Y0126274D01*
X0133704Y0125337D01*
X0133704Y0117318D01*
X0134641Y0116381D01*
X0143841Y0116381D01*
X0144778Y0117318D01*
X0144778Y0125337D01*
X0143841Y0126274D01*
X0141400Y0126274D01*
X0141400Y0128391D01*
X0142286Y0129277D01*
X0144673Y0129277D01*
X0145867Y0130470D01*
X0145867Y0132574D01*
X0147279Y0132574D01*
X0147019Y0131945D01*
X0147019Y0130513D01*
X0147567Y0129190D01*
X0148027Y0128730D01*
X0148027Y0116156D01*
X0146906Y0116620D01*
X0145474Y0116620D01*
X0144151Y0116072D01*
X0143138Y0115060D01*
X0142590Y0113737D01*
X0142590Y0112390D01*
X0141907Y0111707D01*
X0134641Y0111707D01*
X0133704Y0110770D01*
X0133704Y0102751D01*
X0134641Y0101814D01*
X0137200Y0101814D01*
X0137200Y0098696D01*
X0135725Y0098696D01*
X0135725Y0095222D01*
X0135575Y0095222D01*
X0135575Y0098696D01*
X0134043Y0098696D01*
X0133474Y0098544D01*
X0132964Y0098249D01*
X0132694Y0097979D01*
X0131650Y0098412D01*
X0130304Y0098412D01*
X0127128Y0101587D01*
X0127128Y0149775D01*
X0127713Y0149775D01*
X0128951Y0150288D01*
X0128951Y0149130D01*
X0129103Y0148561D01*
X0129398Y0148051D01*
X0129814Y0147634D01*
X0130325Y0147339D01*
X0130894Y0147187D01*
X0132426Y0147187D01*
X0132426Y0150662D01*
X0132576Y0150662D01*
X0132576Y0147187D01*
X0134108Y0147187D01*
X0134677Y0147339D01*
X0135187Y0147634D01*
X0135604Y0148051D01*
X0135632Y0148099D01*
X0136344Y0147387D01*
X0139145Y0147387D01*
X0139145Y0146753D01*
X0139693Y0145430D01*
X0140706Y0144417D01*
X0142029Y0143869D01*
X0143461Y0143869D01*
X0144090Y0144130D01*
X0144090Y0143155D01*
X0145320Y0141924D01*
X0146035Y0141210D01*
X0146035Y0139863D01*
X0146583Y0138540D01*
X0147595Y0137528D01*
X0148919Y0136980D01*
X0150351Y0136980D01*
X0151674Y0137528D01*
X0152687Y0138540D01*
X0153235Y0139863D01*
X0153235Y0141296D01*
X0152687Y0142619D01*
X0151674Y0143631D01*
X0150351Y0144180D01*
X0149004Y0144180D01*
X0148290Y0144894D01*
X0148290Y0161627D01*
X0142613Y0167304D01*
X0142613Y0172581D01*
X0141675Y0173518D01*
X0139924Y0173518D01*
X0139924Y0175655D01*
X0140736Y0175655D01*
X0141930Y0176848D01*
X0141930Y0181161D01*
X0140736Y0182355D01*
X0136423Y0182355D01*
X0135711Y0181642D01*
X0135682Y0181691D01*
X0135266Y0182108D01*
X0134756Y0182402D01*
X0134187Y0182555D01*
X0132655Y0182555D01*
X0132655Y0179080D01*
X0132505Y0179080D01*
X0132505Y0182555D01*
X0131065Y0182555D01*
X0131065Y0221403D01*
X0139654Y0229991D01*
X0141000Y0229991D01*
X0142323Y0230539D01*
X0143336Y0231552D01*
X0143884Y0232875D01*
X0143884Y0234307D01*
X0143336Y0235631D01*
X0142323Y0236643D01*
X0141000Y0237191D01*
X0139568Y0237191D01*
X0138245Y0236643D01*
X0137232Y0235631D01*
X0136684Y0234307D01*
X0136684Y0232961D01*
X0126865Y0223142D01*
X0126865Y0214055D01*
X0125898Y0215022D01*
X0121739Y0219182D01*
X0121739Y0220528D01*
X0121191Y0221851D01*
X0120178Y0222864D01*
X0118855Y0223412D01*
X0117422Y0223412D01*
X0116099Y0222864D01*
X0115087Y0221851D01*
X0114539Y0220528D01*
X0114539Y0219096D01*
X0115087Y0217773D01*
X0116099Y0216760D01*
X0117422Y0216212D01*
X0118769Y0216212D01*
X0122928Y0212052D01*
X0122928Y0197069D01*
X0122300Y0197329D01*
X0120867Y0197329D01*
X0119544Y0196781D01*
X0119369Y0196606D01*
X0118701Y0197273D01*
X0117378Y0197821D01*
X0115946Y0197821D01*
X0114623Y0197273D01*
X0113610Y0196260D01*
X0113062Y0194937D01*
X0113062Y0193505D01*
X0113610Y0192182D01*
X0114562Y0191230D01*
X0114562Y0125710D01*
X0113933Y0125971D01*
X0112501Y0125971D01*
X0111178Y0125423D01*
X0110165Y0124410D01*
X0109617Y0123087D01*
X0109617Y0121741D01*
X0106459Y0118582D01*
X0106459Y0123665D01*
X0107660Y0123665D01*
X0108597Y0124602D01*
X0108597Y0128290D01*
X0107660Y0129227D01*
X0101610Y0129227D01*
X0100672Y0128290D01*
X0100672Y0124602D01*
X0101610Y0123665D01*
X0102259Y0123665D01*
X0102259Y0112748D01*
X0101541Y0112748D01*
X0100829Y0112036D01*
X0100801Y0112085D01*
X0100384Y0112501D01*
X0099874Y0112796D01*
X0099305Y0112948D01*
X0097773Y0112948D01*
X0097773Y0109473D01*
X0097623Y0109473D01*
X0097623Y0109323D01*
X0097773Y0109323D01*
X0097773Y0105848D01*
X0099305Y0105848D01*
X0099874Y0106001D01*
X0100384Y0106295D01*
X0100801Y0106712D01*
X0100829Y0106761D01*
X0101541Y0106048D01*
X0104720Y0106048D01*
X0104720Y0105032D01*
X0099320Y0099632D01*
X0099045Y0100296D01*
X0098032Y0101309D01*
X0096709Y0101857D01*
X0095363Y0101857D01*
X0080868Y0116351D01*
X0080868Y0126392D01*
X0081804Y0126392D01*
X0081804Y0129867D01*
X0081954Y0129867D01*
X0081954Y0130017D01*
X0085429Y0130017D01*
X0085429Y0131549D01*
X0085276Y0132118D01*
X0084982Y0132628D01*
X0084565Y0133045D01*
X0084516Y0133073D01*
X0085002Y0133558D01*
X0089464Y0133558D01*
X0089464Y0125930D01*
X0090694Y0124700D01*
X0091617Y0124700D01*
X0091617Y0124602D01*
X0092555Y0123665D01*
X0098604Y0123665D01*
X0099542Y0124602D01*
X0099542Y0128176D01*
X0099619Y0128310D01*
X0099742Y0128768D01*
X0099742Y0130186D01*
X0099742Y0131604D01*
X0099619Y0132062D01*
X0099542Y0132196D01*
X0099542Y0135770D01*
X0098604Y0136707D01*
X0097422Y0136707D01*
X0096371Y0137758D01*
X0085229Y0137758D01*
X0085229Y0138098D01*
X0084035Y0139292D01*
X0083821Y0139292D01*
X0083821Y0163103D01*
X0082591Y0164333D01*
X0075209Y0164333D01*
X0063085Y0176457D01*
X0063085Y0179786D01*
X0062148Y0180723D01*
X0056492Y0180723D01*
X0055973Y0180204D01*
X0055455Y0180723D01*
X0049799Y0180723D01*
X0048861Y0179786D01*
X0048861Y0179589D01*
X0048164Y0179589D01*
X0048164Y0179746D01*
X0047227Y0180683D01*
X0043539Y0180683D01*
X0042602Y0179746D01*
X0042602Y0176567D01*
X0041471Y0177697D01*
X0041471Y0179746D01*
X0040534Y0180683D01*
X0036846Y0180683D01*
X0035909Y0179746D01*
X0035909Y0175271D01*
X0036846Y0174334D01*
X0038895Y0174334D01*
X0043007Y0170221D01*
X0043007Y0153693D01*
X0042485Y0154955D01*
X0040664Y0156776D01*
X0038284Y0157761D01*
X0035709Y0157761D01*
X0033635Y0156902D01*
X0033635Y0167045D01*
X0033513Y0167503D01*
X0033276Y0167913D01*
X0032941Y0168248D01*
X0032530Y0168485D01*
X0032072Y0168608D01*
X0029135Y0168608D01*
X0029135Y0144608D01*
X0033635Y0144608D01*
X0033635Y0145674D01*
X0034609Y0145271D01*
X0034609Y0142345D01*
X0033635Y0141942D01*
X0033635Y0143008D01*
X0029135Y0143008D01*
X0029135Y0143949D02*
X0034609Y0143949D01*
X0034609Y0142350D02*
X0033635Y0142350D01*
X0033635Y0145547D02*
X0033941Y0145547D01*
X0029135Y0145547D02*
X0027535Y0145547D01*
X0027535Y0147146D02*
X0029135Y0147146D01*
X0029135Y0148745D02*
X0027535Y0148745D01*
X0027535Y0150343D02*
X0029135Y0150343D01*
X0029135Y0151942D02*
X0027535Y0151942D01*
X0027535Y0153540D02*
X0029135Y0153540D01*
X0029135Y0155139D02*
X0027535Y0155139D01*
X0027535Y0156737D02*
X0029135Y0156737D01*
X0029135Y0158336D02*
X0027535Y0158336D01*
X0027535Y0159934D02*
X0029135Y0159934D01*
X0029135Y0161533D02*
X0027535Y0161533D01*
X0027535Y0163131D02*
X0029135Y0163131D01*
X0029135Y0164730D02*
X0027535Y0164730D01*
X0027535Y0166328D02*
X0029135Y0166328D01*
X0029135Y0167927D02*
X0027535Y0167927D01*
X0024329Y0169525D02*
X0043007Y0169525D01*
X0043007Y0167927D02*
X0033262Y0167927D01*
X0033635Y0166328D02*
X0043007Y0166328D01*
X0043007Y0164730D02*
X0033635Y0164730D01*
X0033635Y0163131D02*
X0043007Y0163131D01*
X0043007Y0161533D02*
X0033635Y0161533D01*
X0033635Y0159934D02*
X0043007Y0159934D01*
X0043007Y0158336D02*
X0033635Y0158336D01*
X0040702Y0156737D02*
X0043007Y0156737D01*
X0043007Y0155139D02*
X0042301Y0155139D01*
X0043492Y0137555D02*
X0043745Y0137555D01*
X0043470Y0135956D02*
X0045343Y0135956D01*
X0046942Y0134358D02*
X0043188Y0134358D01*
X0042525Y0132759D02*
X0048540Y0132759D01*
X0049452Y0131161D02*
X0040985Y0131161D01*
X0056526Y0127964D02*
X0056602Y0127964D01*
X0063219Y0127964D02*
X0073006Y0127964D01*
X0080868Y0126365D02*
X0089464Y0126365D01*
X0089464Y0127964D02*
X0085329Y0127964D01*
X0085276Y0127766D02*
X0085429Y0128335D01*
X0085429Y0129867D01*
X0081954Y0129867D01*
X0081954Y0126392D01*
X0083486Y0126392D01*
X0084055Y0126544D01*
X0084565Y0126839D01*
X0084982Y0127255D01*
X0085276Y0127766D01*
X0085429Y0129562D02*
X0089464Y0129562D01*
X0089464Y0131161D02*
X0085429Y0131161D01*
X0084850Y0132759D02*
X0089464Y0132759D01*
X0095580Y0130186D02*
X0099742Y0130186D01*
X0095580Y0130186D01*
X0095580Y0130186D01*
X0099742Y0129562D02*
X0114562Y0129562D01*
X0114562Y0127964D02*
X0108597Y0127964D01*
X0108597Y0126365D02*
X0114562Y0126365D01*
X0110522Y0124767D02*
X0108597Y0124767D01*
X0109651Y0123168D02*
X0106459Y0123168D01*
X0106459Y0121570D02*
X0109446Y0121570D01*
X0107848Y0119971D02*
X0106459Y0119971D01*
X0102259Y0119971D02*
X0080868Y0119971D01*
X0080868Y0118373D02*
X0102259Y0118373D01*
X0102259Y0116774D02*
X0080868Y0116774D01*
X0082044Y0115176D02*
X0102259Y0115176D01*
X0102259Y0113577D02*
X0083642Y0113577D01*
X0085241Y0111979D02*
X0094533Y0111979D01*
X0094595Y0112085D02*
X0094300Y0111575D01*
X0094148Y0111005D01*
X0094148Y0109473D01*
X0097623Y0109473D01*
X0097623Y0112948D01*
X0096091Y0112948D01*
X0095521Y0112796D01*
X0095011Y0112501D01*
X0094595Y0112085D01*
X0094148Y0110380D02*
X0086839Y0110380D01*
X0088438Y0108782D02*
X0094148Y0108782D01*
X0094148Y0109323D02*
X0094148Y0107791D01*
X0094300Y0107222D01*
X0094595Y0106712D01*
X0095011Y0106295D01*
X0095521Y0106001D01*
X0096091Y0105848D01*
X0097623Y0105848D01*
X0097623Y0109323D01*
X0094148Y0109323D01*
X0094323Y0107183D02*
X0090036Y0107183D01*
X0091635Y0105585D02*
X0104720Y0105585D01*
X0103674Y0103986D02*
X0093233Y0103986D01*
X0094832Y0102388D02*
X0102075Y0102388D01*
X0100477Y0100789D02*
X0098552Y0100789D01*
X0101621Y0095994D02*
X0126782Y0095994D01*
X0127334Y0095442D02*
X0127334Y0094096D01*
X0127882Y0092773D01*
X0128895Y0091760D01*
X0130218Y0091212D01*
X0131650Y0091212D01*
X0132973Y0091760D01*
X0133150Y0091936D01*
X0133474Y0091749D01*
X0134043Y0091596D01*
X0135575Y0091596D01*
X0135575Y0095071D01*
X0135725Y0095071D01*
X0135725Y0091596D01*
X0137257Y0091596D01*
X0137827Y0091749D01*
X0138337Y0092044D01*
X0138753Y0092460D01*
X0138781Y0092509D01*
X0139494Y0091796D01*
X0143807Y0091796D01*
X0145000Y0092990D01*
X0145000Y0097303D01*
X0143807Y0098496D01*
X0141400Y0098496D01*
X0141400Y0101814D01*
X0143841Y0101814D01*
X0144778Y0102751D01*
X0144778Y0108639D01*
X0145560Y0109420D01*
X0146906Y0109420D01*
X0148027Y0109885D01*
X0148027Y0062370D01*
X0147075Y0061418D01*
X0146527Y0060095D01*
X0146527Y0058663D01*
X0147075Y0057339D01*
X0147365Y0057050D01*
X0129907Y0057050D01*
X0129907Y0057883D01*
X0129907Y0059620D01*
X0129784Y0060077D01*
X0129547Y0060488D01*
X0129212Y0060823D01*
X0128802Y0061060D01*
X0128344Y0061183D01*
X0125107Y0061183D01*
X0121870Y0061183D01*
X0121412Y0061060D01*
X0121002Y0060823D01*
X0120667Y0060488D01*
X0120430Y0060077D01*
X0120307Y0059620D01*
X0120307Y0057883D01*
X0125107Y0057883D01*
X0125107Y0061183D01*
X0125107Y0057883D01*
X0125107Y0057883D01*
X0125107Y0057883D01*
X0129907Y0057883D01*
X0125107Y0057883D01*
X0125107Y0057883D01*
X0120307Y0057883D01*
X0120307Y0057050D01*
X0109907Y0057050D01*
X0109907Y0057883D01*
X0109907Y0059620D01*
X0109784Y0060077D01*
X0109547Y0060488D01*
X0109212Y0060823D01*
X0108802Y0061060D01*
X0108344Y0061183D01*
X0105107Y0061183D01*
X0102522Y0061183D01*
X0102522Y0069783D01*
X0108770Y0069783D01*
X0109707Y0070720D01*
X0109707Y0071058D01*
X0120507Y0071058D01*
X0120507Y0070720D01*
X0121444Y0069783D01*
X0123420Y0069783D01*
X0123420Y0067859D01*
X0124651Y0066629D01*
X0136796Y0066629D01*
X0136796Y0066305D01*
X0137509Y0065593D01*
X0137460Y0065564D01*
X0137044Y0065148D01*
X0136749Y0064638D01*
X0136596Y0064068D01*
X0136596Y0062536D01*
X0140071Y0062536D01*
X0140071Y0062386D01*
X0136596Y0062386D01*
X0136596Y0060854D01*
X0136749Y0060285D01*
X0137044Y0059775D01*
X0137460Y0059358D01*
X0137970Y0059064D01*
X0138539Y0058911D01*
X0140071Y0058911D01*
X0140071Y0062386D01*
X0140221Y0062386D01*
X0140221Y0058911D01*
X0141754Y0058911D01*
X0142323Y0059064D01*
X0142833Y0059358D01*
X0143249Y0059775D01*
X0143544Y0060285D01*
X0143696Y0060854D01*
X0143696Y0062386D01*
X0140222Y0062386D01*
X0140222Y0062536D01*
X0143696Y0062536D01*
X0143696Y0064068D01*
X0143544Y0064638D01*
X0143249Y0065148D01*
X0142833Y0065564D01*
X0142784Y0065593D01*
X0143496Y0066305D01*
X0143496Y0070618D01*
X0142303Y0071811D01*
X0137990Y0071811D01*
X0137008Y0070829D01*
X0129707Y0070829D01*
X0129707Y0075045D01*
X0128770Y0075983D01*
X0121444Y0075983D01*
X0120720Y0075258D01*
X0109494Y0075258D01*
X0108770Y0075983D01*
X0103520Y0075983D01*
X0102768Y0076735D01*
X0101797Y0077705D01*
X0102461Y0077980D01*
X0103474Y0078993D01*
X0104022Y0080316D01*
X0104022Y0081748D01*
X0103766Y0082365D01*
X0104510Y0082365D01*
X0105447Y0083303D01*
X0105447Y0088565D01*
X0104510Y0089502D01*
X0098854Y0089502D01*
X0098335Y0088984D01*
X0097817Y0089502D01*
X0095130Y0089502D01*
X0108920Y0103292D01*
X0108920Y0115103D01*
X0112587Y0118771D01*
X0113933Y0118771D01*
X0114917Y0119178D01*
X0115792Y0118302D01*
X0117983Y0116111D01*
X0117983Y0114765D01*
X0118532Y0113442D01*
X0119544Y0112429D01*
X0120867Y0111881D01*
X0122300Y0111881D01*
X0122928Y0112142D01*
X0122928Y0099847D01*
X0124158Y0098617D01*
X0127334Y0095442D01*
X0127334Y0094395D02*
X0100022Y0094395D01*
X0098424Y0092797D02*
X0127872Y0092797D01*
X0125184Y0097592D02*
X0103219Y0097592D01*
X0104818Y0099191D02*
X0123585Y0099191D01*
X0122928Y0100789D02*
X0106416Y0100789D01*
X0108015Y0102388D02*
X0122928Y0102388D01*
X0122928Y0103986D02*
X0108920Y0103986D01*
X0108920Y0105585D02*
X0122928Y0105585D01*
X0122928Y0107183D02*
X0108920Y0107183D01*
X0108920Y0108782D02*
X0122928Y0108782D01*
X0122928Y0110380D02*
X0108920Y0110380D01*
X0108920Y0111979D02*
X0120632Y0111979D01*
X0122535Y0111979D02*
X0122928Y0111979D01*
X0127128Y0111979D02*
X0142178Y0111979D01*
X0142590Y0113577D02*
X0127128Y0113577D01*
X0127128Y0115176D02*
X0143254Y0115176D01*
X0144234Y0116774D02*
X0148027Y0116774D01*
X0148027Y0118373D02*
X0144778Y0118373D01*
X0144778Y0119971D02*
X0148027Y0119971D01*
X0148027Y0121570D02*
X0144778Y0121570D01*
X0144778Y0123168D02*
X0148027Y0123168D01*
X0148027Y0124767D02*
X0144778Y0124767D01*
X0148027Y0126365D02*
X0141400Y0126365D01*
X0141400Y0127964D02*
X0148027Y0127964D01*
X0147413Y0129562D02*
X0144959Y0129562D01*
X0145867Y0131161D02*
X0147019Y0131161D01*
X0147568Y0137555D02*
X0127128Y0137555D01*
X0127128Y0139153D02*
X0146329Y0139153D01*
X0146035Y0140752D02*
X0127128Y0140752D01*
X0127128Y0142350D02*
X0144894Y0142350D01*
X0144090Y0143949D02*
X0143653Y0143949D01*
X0141836Y0143949D02*
X0127128Y0143949D01*
X0127128Y0145547D02*
X0139644Y0145547D01*
X0139145Y0147146D02*
X0127128Y0147146D01*
X0127128Y0148745D02*
X0129054Y0148745D01*
X0132426Y0148745D02*
X0132576Y0148745D01*
X0132576Y0150343D02*
X0132426Y0150343D01*
X0132426Y0150812D02*
X0132426Y0154287D01*
X0130894Y0154287D01*
X0130873Y0154282D01*
X0131065Y0154473D01*
X0131065Y0157273D01*
X0132017Y0158225D01*
X0132326Y0158971D01*
X0132326Y0156295D01*
X0133263Y0155357D01*
X0135724Y0155357D01*
X0135724Y0153466D01*
X0135632Y0153375D01*
X0135604Y0153423D01*
X0135187Y0153840D01*
X0134677Y0154135D01*
X0134108Y0154287D01*
X0132576Y0154287D01*
X0132576Y0150812D01*
X0132426Y0150812D01*
X0132426Y0151942D02*
X0132576Y0151942D01*
X0132576Y0153540D02*
X0132426Y0153540D01*
X0131065Y0155139D02*
X0135724Y0155139D01*
X0135724Y0153540D02*
X0135487Y0153540D01*
X0132326Y0156737D02*
X0131065Y0156737D01*
X0132063Y0158336D02*
X0132326Y0158336D01*
X0132326Y0161558D02*
X0132017Y0162304D01*
X0131005Y0163316D01*
X0129681Y0163865D01*
X0128249Y0163865D01*
X0126926Y0163316D01*
X0125913Y0162304D01*
X0125652Y0161673D01*
X0125652Y0172190D01*
X0129628Y0176166D01*
X0129893Y0175902D01*
X0130403Y0175607D01*
X0130972Y0175455D01*
X0132505Y0175455D01*
X0132505Y0178930D01*
X0132655Y0178930D01*
X0132655Y0175455D01*
X0134187Y0175455D01*
X0134756Y0175607D01*
X0135266Y0175902D01*
X0135682Y0176318D01*
X0135711Y0176367D01*
X0135724Y0176354D01*
X0135724Y0173518D01*
X0133263Y0173518D01*
X0132326Y0172581D01*
X0132326Y0166137D01*
X0133263Y0165200D01*
X0138777Y0165200D01*
X0140301Y0163676D01*
X0133263Y0163676D01*
X0132326Y0162738D01*
X0132326Y0161558D01*
X0132719Y0163131D02*
X0131190Y0163131D01*
X0132326Y0166328D02*
X0125652Y0166328D01*
X0125652Y0164730D02*
X0139247Y0164730D01*
X0143588Y0166328D02*
X0148519Y0166328D01*
X0148519Y0164730D02*
X0145187Y0164730D01*
X0146785Y0163131D02*
X0148519Y0163131D01*
X0148519Y0161533D02*
X0148290Y0161533D01*
X0148290Y0159934D02*
X0148519Y0159934D01*
X0148290Y0158336D02*
X0149086Y0158336D01*
X0148290Y0156737D02*
X0150684Y0156737D01*
X0152283Y0155139D02*
X0148290Y0155139D01*
X0148290Y0153540D02*
X0153881Y0153540D01*
X0154424Y0151942D02*
X0148290Y0151942D01*
X0148290Y0150343D02*
X0154401Y0150343D01*
X0154799Y0148745D02*
X0148290Y0148745D01*
X0148290Y0147146D02*
X0154653Y0147146D01*
X0153259Y0145547D02*
X0148290Y0145547D01*
X0150907Y0143949D02*
X0152924Y0143949D01*
X0152798Y0142350D02*
X0153321Y0142350D01*
X0153235Y0140752D02*
X0154424Y0140752D01*
X0154489Y0139153D02*
X0152941Y0139153D01*
X0151701Y0137555D02*
X0163031Y0137555D01*
X0140340Y0135956D02*
X0138810Y0135956D01*
X0136592Y0135956D02*
X0136442Y0135956D01*
X0136442Y0134358D02*
X0136592Y0134358D01*
X0136592Y0132759D02*
X0136442Y0132759D01*
X0136442Y0131161D02*
X0136592Y0131161D01*
X0136592Y0129562D02*
X0136442Y0129562D01*
X0137200Y0127964D02*
X0127128Y0127964D01*
X0127128Y0129562D02*
X0133792Y0129562D01*
X0132967Y0131161D02*
X0127128Y0131161D01*
X0127128Y0132759D02*
X0132967Y0132759D01*
X0133000Y0134358D02*
X0127128Y0134358D01*
X0127128Y0135956D02*
X0134223Y0135956D01*
X0137200Y0126365D02*
X0127128Y0126365D01*
X0127128Y0124767D02*
X0133704Y0124767D01*
X0133704Y0123168D02*
X0127128Y0123168D01*
X0127128Y0121570D02*
X0133704Y0121570D01*
X0133704Y0119971D02*
X0127128Y0119971D01*
X0127128Y0118373D02*
X0133704Y0118373D01*
X0134248Y0116774D02*
X0127128Y0116774D01*
X0127128Y0110380D02*
X0133704Y0110380D01*
X0133704Y0108782D02*
X0127128Y0108782D01*
X0127128Y0107183D02*
X0133704Y0107183D01*
X0133704Y0105585D02*
X0127128Y0105585D01*
X0127128Y0103986D02*
X0133704Y0103986D01*
X0134068Y0102388D02*
X0127128Y0102388D01*
X0127926Y0100789D02*
X0137200Y0100789D01*
X0137200Y0099191D02*
X0129525Y0099191D01*
X0135575Y0097592D02*
X0135725Y0097592D01*
X0135725Y0095994D02*
X0135575Y0095994D01*
X0135575Y0094395D02*
X0135725Y0094395D01*
X0135725Y0092797D02*
X0135575Y0092797D01*
X0141400Y0099191D02*
X0148027Y0099191D01*
X0148027Y0100789D02*
X0141400Y0100789D01*
X0144414Y0102388D02*
X0148027Y0102388D01*
X0148027Y0103986D02*
X0144778Y0103986D01*
X0144778Y0105585D02*
X0148027Y0105585D01*
X0148027Y0107183D02*
X0144778Y0107183D01*
X0144921Y0108782D02*
X0148027Y0108782D01*
X0148027Y0097592D02*
X0144711Y0097592D01*
X0145000Y0095994D02*
X0148027Y0095994D01*
X0148027Y0094395D02*
X0145000Y0094395D01*
X0144807Y0092797D02*
X0148027Y0092797D01*
X0148027Y0091198D02*
X0096825Y0091198D01*
X0095227Y0089600D02*
X0148027Y0089600D01*
X0148027Y0088001D02*
X0105447Y0088001D01*
X0105447Y0086403D02*
X0148027Y0086403D01*
X0148027Y0084804D02*
X0105447Y0084804D01*
X0105350Y0083206D02*
X0148027Y0083206D01*
X0148027Y0081607D02*
X0104022Y0081607D01*
X0103895Y0080009D02*
X0148027Y0080009D01*
X0148027Y0078410D02*
X0102891Y0078410D01*
X0102691Y0076811D02*
X0148027Y0076811D01*
X0148027Y0075213D02*
X0129540Y0075213D01*
X0129707Y0073614D02*
X0148027Y0073614D01*
X0148027Y0072016D02*
X0129707Y0072016D01*
X0123420Y0068819D02*
X0102522Y0068819D01*
X0102522Y0067220D02*
X0124059Y0067220D01*
X0120810Y0070417D02*
X0109405Y0070417D01*
X0102522Y0065622D02*
X0137479Y0065622D01*
X0136596Y0064023D02*
X0102522Y0064023D01*
X0102522Y0062425D02*
X0140071Y0062425D01*
X0140222Y0062425D02*
X0148027Y0062425D01*
X0148027Y0064023D02*
X0143696Y0064023D01*
X0142813Y0065622D02*
X0148027Y0065622D01*
X0148027Y0067220D02*
X0143496Y0067220D01*
X0143496Y0068819D02*
X0148027Y0068819D01*
X0148027Y0070417D02*
X0143496Y0070417D01*
X0143689Y0060826D02*
X0146830Y0060826D01*
X0146527Y0059228D02*
X0142607Y0059228D01*
X0140221Y0059228D02*
X0140071Y0059228D01*
X0140071Y0060826D02*
X0140221Y0060826D01*
X0137686Y0059228D02*
X0129907Y0059228D01*
X0129907Y0057629D02*
X0146955Y0057629D01*
X0136604Y0060826D02*
X0129207Y0060826D01*
X0125107Y0060826D02*
X0125107Y0060826D01*
X0125107Y0059228D02*
X0125107Y0059228D01*
X0121008Y0060826D02*
X0109207Y0060826D01*
X0109907Y0059228D02*
X0120307Y0059228D01*
X0120307Y0057629D02*
X0109907Y0057629D01*
X0109907Y0057883D02*
X0105107Y0057883D01*
X0105107Y0061183D01*
X0105107Y0057883D01*
X0105107Y0057883D01*
X0109907Y0057883D01*
X0105107Y0057883D02*
X0105107Y0057883D01*
X0105107Y0059228D02*
X0105107Y0059228D01*
X0105107Y0060826D02*
X0105107Y0060826D01*
X0102768Y0076735D02*
X0102768Y0076735D01*
X0097773Y0107183D02*
X0097623Y0107183D01*
X0097623Y0108782D02*
X0097773Y0108782D01*
X0097773Y0110380D02*
X0097623Y0110380D01*
X0097623Y0111979D02*
X0097773Y0111979D01*
X0102259Y0121570D02*
X0080868Y0121570D01*
X0080868Y0123168D02*
X0102259Y0123168D01*
X0100672Y0124767D02*
X0099542Y0124767D01*
X0099542Y0126365D02*
X0100672Y0126365D01*
X0100672Y0127964D02*
X0099542Y0127964D01*
X0099742Y0131161D02*
X0101594Y0131161D01*
X0101610Y0131145D02*
X0100672Y0132082D01*
X0100672Y0135770D01*
X0101610Y0136707D01*
X0102751Y0136707D01*
X0102751Y0148489D01*
X0102628Y0148489D01*
X0101434Y0149683D01*
X0101434Y0151853D01*
X0091926Y0161361D01*
X0089700Y0161361D01*
X0088763Y0162299D01*
X0088763Y0166104D01*
X0089700Y0167042D01*
X0094293Y0167042D01*
X0095231Y0166104D01*
X0095231Y0163997D01*
X0104038Y0155189D01*
X0106941Y0155189D01*
X0107653Y0154477D01*
X0107681Y0154526D01*
X0108098Y0154942D01*
X0108608Y0155237D01*
X0109177Y0155389D01*
X0110709Y0155389D01*
X0110709Y0151914D01*
X0110859Y0151914D01*
X0114334Y0151914D01*
X0114334Y0153446D01*
X0114182Y0154016D01*
X0113887Y0154526D01*
X0113471Y0154942D01*
X0112960Y0155237D01*
X0112391Y0155389D01*
X0110859Y0155389D01*
X0110859Y0151914D01*
X0110859Y0151764D01*
X0110859Y0148289D01*
X0112391Y0148289D01*
X0112960Y0148442D01*
X0113471Y0148736D01*
X0113887Y0149153D01*
X0114182Y0149663D01*
X0114334Y0150232D01*
X0114334Y0151764D01*
X0110859Y0151764D01*
X0110709Y0151764D01*
X0110709Y0148289D01*
X0109177Y0148289D01*
X0108608Y0148442D01*
X0108098Y0148736D01*
X0107681Y0149153D01*
X0107653Y0149202D01*
X0106951Y0148500D01*
X0106951Y0136707D01*
X0107660Y0136707D01*
X0108597Y0135770D01*
X0108597Y0132082D01*
X0107660Y0131145D01*
X0101610Y0131145D01*
X0100672Y0132759D02*
X0099542Y0132759D01*
X0099542Y0134358D02*
X0100672Y0134358D01*
X0100859Y0135956D02*
X0099355Y0135956D01*
X0096574Y0137555D02*
X0102751Y0137555D01*
X0102751Y0139153D02*
X0084173Y0139153D01*
X0083821Y0140752D02*
X0102751Y0140752D01*
X0102751Y0142350D02*
X0083821Y0142350D01*
X0083821Y0143949D02*
X0102751Y0143949D01*
X0102751Y0145547D02*
X0083821Y0145547D01*
X0083821Y0147146D02*
X0102751Y0147146D01*
X0102373Y0148745D02*
X0093009Y0148745D01*
X0093139Y0148875D02*
X0093687Y0150198D01*
X0093687Y0151630D01*
X0093407Y0152306D01*
X0094293Y0152306D01*
X0095231Y0153244D01*
X0095231Y0157049D01*
X0094293Y0157987D01*
X0089700Y0157987D01*
X0088763Y0157049D01*
X0088763Y0155020D01*
X0087987Y0154245D01*
X0087987Y0153905D01*
X0087035Y0152953D01*
X0086487Y0151630D01*
X0086487Y0150198D01*
X0087035Y0148875D01*
X0088048Y0147862D01*
X0089371Y0147314D01*
X0090803Y0147314D01*
X0092127Y0147862D01*
X0093139Y0148875D01*
X0093687Y0150343D02*
X0101434Y0150343D01*
X0101346Y0151942D02*
X0093558Y0151942D01*
X0095231Y0153540D02*
X0099748Y0153540D01*
X0098149Y0155139D02*
X0095231Y0155139D01*
X0095231Y0156737D02*
X0096551Y0156737D01*
X0094952Y0158336D02*
X0083821Y0158336D01*
X0083821Y0159934D02*
X0093354Y0159934D01*
X0089529Y0161533D02*
X0083821Y0161533D01*
X0083793Y0163131D02*
X0088763Y0163131D01*
X0088763Y0164730D02*
X0074813Y0164730D01*
X0073214Y0166328D02*
X0088987Y0166328D01*
X0095007Y0166328D02*
X0114562Y0166328D01*
X0114562Y0164730D02*
X0095231Y0164730D01*
X0096096Y0163131D02*
X0114562Y0163131D01*
X0114562Y0161533D02*
X0097695Y0161533D01*
X0099293Y0159934D02*
X0114562Y0159934D01*
X0114562Y0158336D02*
X0100892Y0158336D01*
X0102490Y0156737D02*
X0114562Y0156737D01*
X0114562Y0155139D02*
X0113131Y0155139D01*
X0114309Y0153540D02*
X0114562Y0153540D01*
X0114562Y0151942D02*
X0114334Y0151942D01*
X0114334Y0150343D02*
X0114562Y0150343D01*
X0114562Y0148745D02*
X0113479Y0148745D01*
X0114562Y0147146D02*
X0106951Y0147146D01*
X0106951Y0145547D02*
X0114562Y0145547D01*
X0114562Y0143949D02*
X0106951Y0143949D01*
X0106951Y0142350D02*
X0114562Y0142350D01*
X0114562Y0140752D02*
X0106951Y0140752D01*
X0106951Y0139153D02*
X0114562Y0139153D01*
X0114562Y0137555D02*
X0106951Y0137555D01*
X0108410Y0135956D02*
X0114562Y0135956D01*
X0114562Y0134358D02*
X0108597Y0134358D01*
X0108597Y0132759D02*
X0114562Y0132759D01*
X0114562Y0131161D02*
X0107676Y0131161D01*
X0112189Y0118373D02*
X0115722Y0118373D01*
X0117320Y0116774D02*
X0110591Y0116774D01*
X0108992Y0115176D02*
X0117983Y0115176D01*
X0118475Y0113577D02*
X0108920Y0113577D01*
X0090627Y0124767D02*
X0080868Y0124767D01*
X0081804Y0127964D02*
X0081954Y0127964D01*
X0081954Y0129562D02*
X0081804Y0129562D01*
X0083821Y0148745D02*
X0087166Y0148745D01*
X0086487Y0150343D02*
X0083821Y0150343D01*
X0083821Y0151942D02*
X0086616Y0151942D01*
X0087622Y0153540D02*
X0083821Y0153540D01*
X0083821Y0155139D02*
X0088763Y0155139D01*
X0088763Y0156737D02*
X0083821Y0156737D01*
X0071616Y0167927D02*
X0114562Y0167927D01*
X0114562Y0169525D02*
X0070017Y0169525D01*
X0068419Y0171124D02*
X0114562Y0171124D01*
X0114562Y0172722D02*
X0066820Y0172722D01*
X0065222Y0174321D02*
X0114562Y0174321D01*
X0114562Y0175919D02*
X0063623Y0175919D01*
X0063085Y0177518D02*
X0114562Y0177518D01*
X0114562Y0179116D02*
X0063085Y0179116D01*
X0062156Y0180715D02*
X0114562Y0180715D01*
X0114562Y0182313D02*
X0024329Y0182313D01*
X0024329Y0180715D02*
X0049791Y0180715D01*
X0055463Y0180715D02*
X0056484Y0180715D01*
X0042602Y0179116D02*
X0041471Y0179116D01*
X0041651Y0177518D02*
X0042602Y0177518D01*
X0038908Y0174321D02*
X0024329Y0174321D01*
X0024329Y0175919D02*
X0035909Y0175919D01*
X0035909Y0177518D02*
X0024329Y0177518D01*
X0024329Y0179116D02*
X0035909Y0179116D01*
X0040506Y0172722D02*
X0024329Y0172722D01*
X0024329Y0171124D02*
X0042105Y0171124D01*
X0024329Y0183912D02*
X0114562Y0183912D01*
X0114562Y0185510D02*
X0024329Y0185510D01*
X0024329Y0187109D02*
X0114562Y0187109D01*
X0114562Y0188707D02*
X0024329Y0188707D01*
X0024329Y0190306D02*
X0114562Y0190306D01*
X0113888Y0191904D02*
X0024329Y0191904D01*
X0024329Y0193503D02*
X0113063Y0193503D01*
X0113130Y0195101D02*
X0024329Y0195101D01*
X0024329Y0196700D02*
X0090884Y0196700D01*
X0091001Y0196583D02*
X0089988Y0197595D01*
X0089440Y0198919D01*
X0089440Y0200351D01*
X0089988Y0201674D01*
X0091001Y0202687D01*
X0092324Y0203235D01*
X0093670Y0203235D01*
X0102728Y0212292D01*
X0102728Y0213638D01*
X0103276Y0214961D01*
X0104288Y0215974D01*
X0105611Y0216522D01*
X0107044Y0216522D01*
X0108367Y0215974D01*
X0109379Y0214961D01*
X0109928Y0213638D01*
X0109928Y0212206D01*
X0109379Y0210883D01*
X0108367Y0209870D01*
X0107044Y0209322D01*
X0105697Y0209322D01*
X0096640Y0200265D01*
X0096640Y0198919D01*
X0096092Y0197595D01*
X0095079Y0196583D01*
X0093756Y0196035D01*
X0092324Y0196035D01*
X0091001Y0196583D01*
X0089697Y0198298D02*
X0024329Y0198298D01*
X0024329Y0199897D02*
X0034461Y0199897D01*
X0033986Y0200094D02*
X0036655Y0198988D01*
X0039543Y0198988D01*
X0042212Y0200094D01*
X0044254Y0202136D01*
X0045360Y0204805D01*
X0045360Y0207693D01*
X0044254Y0210362D01*
X0042212Y0212404D01*
X0039543Y0213509D01*
X0036655Y0213509D01*
X0033986Y0212404D01*
X0031944Y0210362D01*
X0030839Y0207693D01*
X0030839Y0204805D01*
X0031944Y0202136D01*
X0033986Y0200094D01*
X0032585Y0201495D02*
X0024329Y0201495D01*
X0024329Y0203094D02*
X0031547Y0203094D01*
X0030885Y0204692D02*
X0024329Y0204692D01*
X0024329Y0206291D02*
X0030839Y0206291D01*
X0030920Y0207889D02*
X0024329Y0207889D01*
X0024329Y0209488D02*
X0031582Y0209488D01*
X0032669Y0211086D02*
X0024329Y0211086D01*
X0024329Y0212685D02*
X0034665Y0212685D01*
X0041534Y0212685D02*
X0102728Y0212685D01*
X0102995Y0214283D02*
X0024329Y0214283D01*
X0024329Y0215882D02*
X0104196Y0215882D01*
X0108459Y0215882D02*
X0119099Y0215882D01*
X0120697Y0214283D02*
X0109660Y0214283D01*
X0109928Y0212685D02*
X0122296Y0212685D01*
X0122928Y0211086D02*
X0109464Y0211086D01*
X0107444Y0209488D02*
X0122928Y0209488D01*
X0122928Y0207889D02*
X0104265Y0207889D01*
X0102666Y0206291D02*
X0122928Y0206291D01*
X0122928Y0204692D02*
X0101068Y0204692D01*
X0099469Y0203094D02*
X0122928Y0203094D01*
X0122928Y0201495D02*
X0097871Y0201495D01*
X0096640Y0199897D02*
X0122928Y0199897D01*
X0122928Y0198298D02*
X0096383Y0198298D01*
X0095197Y0196700D02*
X0114050Y0196700D01*
X0119275Y0196700D02*
X0119463Y0196700D01*
X0131065Y0196700D02*
X0139756Y0196700D01*
X0139637Y0196414D02*
X0139637Y0195067D01*
X0137470Y0192900D01*
X0136123Y0192900D01*
X0134800Y0192352D01*
X0133787Y0191339D01*
X0133239Y0190016D01*
X0133239Y0188584D01*
X0133787Y0187261D01*
X0134800Y0186248D01*
X0136123Y0185700D01*
X0137555Y0185700D01*
X0138879Y0186248D01*
X0139891Y0187261D01*
X0140439Y0188584D01*
X0140439Y0189930D01*
X0142607Y0192098D01*
X0143953Y0192098D01*
X0145276Y0192646D01*
X0146289Y0193658D01*
X0146837Y0194982D01*
X0146837Y0196414D01*
X0146289Y0197737D01*
X0145276Y0198750D01*
X0143953Y0199298D01*
X0142521Y0199298D01*
X0141198Y0198750D01*
X0140185Y0197737D01*
X0139637Y0196414D01*
X0139637Y0195101D02*
X0131065Y0195101D01*
X0131065Y0193503D02*
X0138072Y0193503D01*
X0134353Y0191904D02*
X0131065Y0191904D01*
X0131065Y0190306D02*
X0133359Y0190306D01*
X0133239Y0188707D02*
X0131065Y0188707D01*
X0131065Y0187109D02*
X0133939Y0187109D01*
X0131065Y0185510D02*
X0148519Y0185510D01*
X0148519Y0183912D02*
X0131065Y0183912D01*
X0132505Y0182313D02*
X0132655Y0182313D01*
X0132655Y0180715D02*
X0132505Y0180715D01*
X0132505Y0179116D02*
X0132655Y0179116D01*
X0132504Y0179080D02*
X0131065Y0179080D01*
X0131065Y0178930D01*
X0132504Y0178930D01*
X0132504Y0179080D01*
X0132505Y0177518D02*
X0132655Y0177518D01*
X0132655Y0175919D02*
X0132505Y0175919D01*
X0129876Y0175919D02*
X0129381Y0175919D01*
X0127783Y0174321D02*
X0135724Y0174321D01*
X0135724Y0175919D02*
X0135283Y0175919D01*
X0132467Y0172722D02*
X0126184Y0172722D01*
X0125652Y0171124D02*
X0132326Y0171124D01*
X0132326Y0169525D02*
X0125652Y0169525D01*
X0125652Y0167927D02*
X0132326Y0167927D01*
X0126741Y0163131D02*
X0125652Y0163131D01*
X0110859Y0155139D02*
X0110709Y0155139D01*
X0110709Y0153540D02*
X0110859Y0153540D01*
X0110859Y0151942D02*
X0110709Y0151942D01*
X0110709Y0150343D02*
X0110859Y0150343D01*
X0110859Y0148745D02*
X0110709Y0148745D01*
X0108090Y0148745D02*
X0107196Y0148745D01*
X0106992Y0155139D02*
X0108438Y0155139D01*
X0139924Y0174321D02*
X0148519Y0174321D01*
X0148519Y0175919D02*
X0141000Y0175919D01*
X0141930Y0177518D02*
X0148519Y0177518D01*
X0148519Y0179116D02*
X0141930Y0179116D01*
X0141930Y0180715D02*
X0148519Y0180715D01*
X0148519Y0182313D02*
X0140777Y0182313D01*
X0136382Y0182313D02*
X0134910Y0182313D01*
X0139739Y0187109D02*
X0148519Y0187109D01*
X0148519Y0188707D02*
X0140439Y0188707D01*
X0140815Y0190306D02*
X0148519Y0190306D01*
X0148519Y0191904D02*
X0142414Y0191904D01*
X0146133Y0193503D02*
X0148519Y0193503D01*
X0148519Y0195101D02*
X0146837Y0195101D01*
X0146718Y0196700D02*
X0148519Y0196700D01*
X0148519Y0198298D02*
X0145727Y0198298D01*
X0148519Y0199897D02*
X0131065Y0199897D01*
X0131065Y0201495D02*
X0148519Y0201495D01*
X0148519Y0203094D02*
X0131065Y0203094D01*
X0131065Y0204692D02*
X0148519Y0204692D01*
X0148519Y0206291D02*
X0131065Y0206291D01*
X0131065Y0207889D02*
X0148519Y0207889D01*
X0148519Y0209488D02*
X0131065Y0209488D01*
X0131065Y0211086D02*
X0148519Y0211086D01*
X0148519Y0212685D02*
X0131065Y0212685D01*
X0131065Y0214283D02*
X0148519Y0214283D01*
X0148519Y0215882D02*
X0131065Y0215882D01*
X0131065Y0217480D02*
X0148519Y0217480D01*
X0148519Y0219079D02*
X0131065Y0219079D01*
X0131065Y0220678D02*
X0148519Y0220678D01*
X0148519Y0222276D02*
X0131939Y0222276D01*
X0133537Y0223875D02*
X0148519Y0223875D01*
X0148519Y0225473D02*
X0135136Y0225473D01*
X0136734Y0227072D02*
X0148519Y0227072D01*
X0148519Y0228670D02*
X0138333Y0228670D01*
X0141670Y0230269D02*
X0148519Y0230269D01*
X0148519Y0231867D02*
X0143467Y0231867D01*
X0143884Y0233466D02*
X0148519Y0233466D01*
X0148519Y0235064D02*
X0143571Y0235064D01*
X0142277Y0236663D02*
X0148519Y0236663D01*
X0148519Y0238261D02*
X0045360Y0238261D01*
X0045360Y0239189D02*
X0045360Y0236301D01*
X0044254Y0233632D01*
X0042212Y0231590D01*
X0039543Y0230484D01*
X0036655Y0230484D01*
X0033986Y0231590D01*
X0031944Y0233632D01*
X0030839Y0236301D01*
X0030839Y0239189D01*
X0031944Y0241858D01*
X0033986Y0243900D01*
X0036655Y0245005D01*
X0039543Y0245005D01*
X0042212Y0243900D01*
X0044254Y0241858D01*
X0045360Y0239189D01*
X0045082Y0239860D02*
X0148996Y0239860D01*
X0150595Y0241458D02*
X0044420Y0241458D01*
X0043055Y0243057D02*
X0152193Y0243057D01*
X0151182Y0244319D02*
X0152194Y0245332D01*
X0152743Y0246655D01*
X0152743Y0248087D01*
X0152194Y0249410D01*
X0151182Y0250423D01*
X0149859Y0250971D01*
X0148512Y0250971D01*
X0145853Y0253630D01*
X0145853Y0254977D01*
X0145305Y0256300D01*
X0144292Y0257313D01*
X0142969Y0257861D01*
X0141537Y0257861D01*
X0140214Y0257313D01*
X0139201Y0256300D01*
X0138653Y0254977D01*
X0138653Y0253545D01*
X0139201Y0252221D01*
X0140214Y0251209D01*
X0141537Y0250661D01*
X0142883Y0250661D01*
X0145543Y0248001D01*
X0145543Y0246655D01*
X0146091Y0245332D01*
X0147103Y0244319D01*
X0148426Y0243771D01*
X0149859Y0243771D01*
X0151182Y0244319D01*
X0151518Y0244655D02*
X0153792Y0244655D01*
X0152576Y0246254D02*
X0155390Y0246254D01*
X0156989Y0247852D02*
X0152743Y0247852D01*
X0152154Y0249451D02*
X0158587Y0249451D01*
X0160186Y0251049D02*
X0148434Y0251049D01*
X0146835Y0252648D02*
X0161784Y0252648D01*
X0163383Y0254246D02*
X0145853Y0254246D01*
X0145493Y0255845D02*
X0175667Y0255845D01*
X0179704Y0255845D02*
X0181042Y0255845D01*
X0180978Y0257443D02*
X0143976Y0257443D01*
X0140529Y0257443D02*
X0024329Y0257443D01*
X0024329Y0255845D02*
X0139012Y0255845D01*
X0138653Y0254246D02*
X0024329Y0254246D01*
X0024329Y0252648D02*
X0139024Y0252648D01*
X0140599Y0251049D02*
X0024329Y0251049D01*
X0024329Y0249451D02*
X0144093Y0249451D01*
X0145543Y0247852D02*
X0024329Y0247852D01*
X0024329Y0246254D02*
X0145709Y0246254D01*
X0146767Y0244655D02*
X0040389Y0244655D01*
X0035809Y0244655D02*
X0024329Y0244655D01*
X0024329Y0243057D02*
X0033143Y0243057D01*
X0031778Y0241458D02*
X0024329Y0241458D01*
X0024329Y0239860D02*
X0031116Y0239860D01*
X0030839Y0238261D02*
X0024329Y0238261D01*
X0024329Y0236663D02*
X0030839Y0236663D01*
X0031351Y0235064D02*
X0024329Y0235064D01*
X0024329Y0233466D02*
X0032110Y0233466D01*
X0033709Y0231867D02*
X0024329Y0231867D01*
X0024329Y0230269D02*
X0133992Y0230269D01*
X0135590Y0231867D02*
X0042489Y0231867D01*
X0044088Y0233466D02*
X0136684Y0233466D01*
X0136998Y0235064D02*
X0044848Y0235064D01*
X0045360Y0236663D02*
X0138292Y0236663D01*
X0132393Y0228670D02*
X0024329Y0228670D01*
X0024329Y0227072D02*
X0130795Y0227072D01*
X0129196Y0225473D02*
X0024329Y0225473D01*
X0024329Y0223875D02*
X0127598Y0223875D01*
X0126865Y0222276D02*
X0120766Y0222276D01*
X0121677Y0220678D02*
X0126865Y0220678D01*
X0126865Y0219079D02*
X0121841Y0219079D01*
X0123440Y0217480D02*
X0126865Y0217480D01*
X0126865Y0215882D02*
X0125038Y0215882D01*
X0126637Y0214283D02*
X0126865Y0214283D01*
X0115379Y0217480D02*
X0024329Y0217480D01*
X0024329Y0219079D02*
X0114545Y0219079D01*
X0114601Y0220678D02*
X0024329Y0220678D01*
X0024329Y0222276D02*
X0115512Y0222276D01*
X0101522Y0211086D02*
X0043530Y0211086D01*
X0044616Y0209488D02*
X0099924Y0209488D01*
X0098325Y0207889D02*
X0045278Y0207889D01*
X0045360Y0206291D02*
X0096727Y0206291D01*
X0095128Y0204692D02*
X0045313Y0204692D01*
X0044651Y0203094D02*
X0091984Y0203094D01*
X0089914Y0201495D02*
X0043614Y0201495D01*
X0041737Y0199897D02*
X0089440Y0199897D01*
X0131065Y0198298D02*
X0140747Y0198298D01*
X0161085Y0204692D02*
X0161669Y0204692D01*
X0163191Y0204692D02*
X0163775Y0204692D01*
X0163775Y0206291D02*
X0161085Y0206291D01*
X0161085Y0207889D02*
X0163775Y0207889D01*
X0163775Y0209488D02*
X0161085Y0209488D01*
X0161085Y0211086D02*
X0163775Y0211086D01*
X0163775Y0212685D02*
X0161085Y0212685D01*
X0161085Y0214283D02*
X0163775Y0214283D01*
X0163775Y0215882D02*
X0161085Y0215882D01*
X0161085Y0217480D02*
X0163775Y0217480D01*
X0163775Y0219079D02*
X0161102Y0219079D01*
X0161085Y0220678D02*
X0163775Y0220678D01*
X0163733Y0222276D02*
X0161085Y0222276D01*
X0161085Y0223875D02*
X0162538Y0223875D01*
X0162275Y0225473D02*
X0161085Y0225473D01*
X0161085Y0227072D02*
X0162743Y0227072D01*
X0161085Y0228670D02*
X0164784Y0228670D01*
X0166965Y0228670D02*
X0172141Y0228670D01*
X0172141Y0227072D02*
X0169007Y0227072D01*
X0169475Y0225473D02*
X0172141Y0225473D01*
X0172141Y0223875D02*
X0169212Y0223875D01*
X0168017Y0222276D02*
X0172141Y0222276D01*
X0172141Y0220678D02*
X0167975Y0220678D01*
X0167975Y0219079D02*
X0172141Y0219079D01*
X0168830Y0217480D02*
X0167975Y0217480D01*
X0176341Y0217480D02*
X0182476Y0217480D01*
X0182476Y0215882D02*
X0176341Y0215882D01*
X0176341Y0214283D02*
X0182476Y0214283D01*
X0180724Y0212685D02*
X0176341Y0212685D01*
X0176341Y0211086D02*
X0179665Y0211086D01*
X0179499Y0209488D02*
X0176861Y0209488D01*
X0178064Y0207889D02*
X0180088Y0207889D01*
X0178333Y0206291D02*
X0182476Y0206291D01*
X0182476Y0204692D02*
X0177871Y0204692D01*
X0175858Y0203094D02*
X0182476Y0203094D01*
X0182476Y0201495D02*
X0172896Y0201495D01*
X0172896Y0199897D02*
X0182476Y0199897D01*
X0182476Y0198298D02*
X0172896Y0198298D01*
X0172896Y0196700D02*
X0182476Y0196700D01*
X0179728Y0195101D02*
X0172896Y0195101D01*
X0172896Y0193503D02*
X0179728Y0193503D01*
X0179728Y0191904D02*
X0172896Y0191904D01*
X0176850Y0190306D02*
X0179728Y0190306D01*
X0177772Y0188707D02*
X0182476Y0188707D01*
X0178770Y0187109D02*
X0177841Y0187109D01*
X0177703Y0185510D02*
X0177325Y0185510D01*
X0177325Y0183912D02*
X0177531Y0183912D01*
X0177554Y0182313D02*
X0177325Y0182313D01*
X0177325Y0180715D02*
X0177554Y0180715D01*
X0177554Y0179116D02*
X0177325Y0179116D01*
X0177325Y0177518D02*
X0177554Y0177518D01*
X0177554Y0175919D02*
X0177325Y0175919D01*
X0177325Y0174321D02*
X0177554Y0174321D01*
X0177554Y0172722D02*
X0177325Y0172722D01*
X0177325Y0171124D02*
X0177554Y0171124D01*
X0177554Y0169525D02*
X0177325Y0169525D01*
X0148519Y0169525D02*
X0142613Y0169525D01*
X0142613Y0167927D02*
X0148519Y0167927D01*
X0148519Y0171124D02*
X0142613Y0171124D01*
X0142471Y0172722D02*
X0148519Y0172722D01*
X0172896Y0203094D02*
X0173608Y0203094D01*
X0176341Y0219079D02*
X0182476Y0219079D01*
X0182476Y0220678D02*
X0176341Y0220678D01*
X0176341Y0222276D02*
X0182476Y0222276D01*
X0182476Y0223875D02*
X0176341Y0223875D01*
X0176341Y0225473D02*
X0182476Y0225473D01*
X0182476Y0227072D02*
X0176341Y0227072D01*
X0176341Y0228670D02*
X0182476Y0228670D01*
X0182476Y0230269D02*
X0176341Y0230269D01*
X0176341Y0231867D02*
X0182476Y0231867D01*
X0182476Y0233466D02*
X0176341Y0233466D01*
X0176341Y0235064D02*
X0182476Y0235064D01*
X0182476Y0236663D02*
X0176341Y0236663D01*
X0177422Y0238261D02*
X0182476Y0238261D01*
X0182476Y0239860D02*
X0177841Y0239860D01*
X0177529Y0241458D02*
X0182476Y0241458D01*
X0182476Y0243057D02*
X0176242Y0243057D01*
X0172240Y0243057D02*
X0163054Y0243057D01*
X0164653Y0244655D02*
X0182476Y0244655D01*
X0182476Y0246254D02*
X0168325Y0246254D01*
X0169648Y0247852D02*
X0182476Y0247852D01*
X0182476Y0249451D02*
X0179045Y0249451D01*
X0180864Y0251049D02*
X0182476Y0251049D01*
X0182476Y0252648D02*
X0181286Y0252648D01*
X0180977Y0254246D02*
X0181959Y0254246D01*
X0186676Y0253730D02*
X0186676Y0246773D01*
X0187304Y0247034D01*
X0188737Y0247034D01*
X0190060Y0246486D01*
X0191072Y0245473D01*
X0191620Y0244150D01*
X0191620Y0242718D01*
X0191072Y0241395D01*
X0190120Y0240443D01*
X0190120Y0231661D01*
X0191072Y0230709D01*
X0191620Y0229386D01*
X0191620Y0228040D01*
X0192089Y0227571D01*
X0192089Y0214929D01*
X0192549Y0214469D01*
X0193097Y0213146D01*
X0193097Y0211714D01*
X0192549Y0210391D01*
X0192089Y0209931D01*
X0192089Y0196313D01*
X0192846Y0196313D01*
X0192787Y0196458D01*
X0192787Y0197890D01*
X0193335Y0199213D01*
X0194347Y0200226D01*
X0195671Y0200774D01*
X0197103Y0200774D01*
X0198426Y0200226D01*
X0199439Y0199213D01*
X0199987Y0197890D01*
X0199987Y0197494D01*
X0201669Y0197494D01*
X0201669Y0198612D01*
X0200717Y0199564D01*
X0200169Y0200887D01*
X0200169Y0201741D01*
X0199208Y0202702D01*
X0199208Y0209090D01*
X0198579Y0208830D01*
X0197147Y0208830D01*
X0195824Y0209378D01*
X0194811Y0210391D01*
X0194263Y0211714D01*
X0194263Y0213146D01*
X0194811Y0214469D01*
X0195763Y0215421D01*
X0195763Y0220266D01*
X0194811Y0221217D01*
X0194263Y0222541D01*
X0194263Y0223973D01*
X0194811Y0225296D01*
X0195824Y0226309D01*
X0197147Y0226857D01*
X0198579Y0226857D01*
X0199208Y0226596D01*
X0199208Y0251762D01*
X0198256Y0252714D01*
X0197708Y0254037D01*
X0197708Y0255469D01*
X0198256Y0256792D01*
X0199269Y0257805D01*
X0200592Y0258353D01*
X0202024Y0258353D01*
X0203347Y0257805D01*
X0204360Y0256792D01*
X0204908Y0255469D01*
X0204908Y0254037D01*
X0204360Y0252714D01*
X0203408Y0251762D01*
X0203408Y0217738D01*
X0204037Y0217998D01*
X0205113Y0217998D01*
X0205113Y0249717D01*
X0214932Y0259536D01*
X0214932Y0260882D01*
X0215480Y0262205D01*
X0215680Y0262405D01*
X0212712Y0262405D01*
X0211775Y0263342D01*
X0211775Y0273329D01*
X0212712Y0274266D01*
X0219877Y0274266D01*
X0219877Y0281705D01*
X0221107Y0282935D01*
X0256312Y0282935D01*
X0257542Y0281705D01*
X0263447Y0275800D01*
X0263447Y0268687D01*
X0264032Y0268687D01*
X0265355Y0268139D01*
X0266368Y0267127D01*
X0266916Y0265803D01*
X0266916Y0264371D01*
X0266368Y0263048D01*
X0265355Y0262035D01*
X0264724Y0261774D01*
X0270549Y0261774D01*
X0270074Y0262249D01*
X0270074Y0274399D01*
X0269122Y0275351D01*
X0268574Y0276674D01*
X0268574Y0278107D01*
X0269122Y0279430D01*
X0270135Y0280442D01*
X0271458Y0280991D01*
X0272890Y0280991D01*
X0274213Y0280442D01*
X0275226Y0279430D01*
X0275774Y0278107D01*
X0275774Y0276674D01*
X0275226Y0275351D01*
X0274274Y0274399D01*
X0274274Y0274266D01*
X0279401Y0274266D01*
X0279401Y0275154D01*
X0279949Y0276477D01*
X0280962Y0277490D01*
X0282285Y0278038D01*
X0283717Y0278038D01*
X0285040Y0277490D01*
X0285964Y0276566D01*
X0285964Y0358405D01*
X0208581Y0358405D01*
X0208581Y0264466D01*
X0207729Y0262407D01*
X0206153Y0260832D01*
X0204095Y0259980D01*
X0186117Y0259980D01*
X0186615Y0259773D01*
X0187628Y0258760D01*
X0188176Y0257437D01*
X0188176Y0256005D01*
X0187628Y0254682D01*
X0186676Y0253730D01*
X0187192Y0254246D02*
X0197708Y0254246D01*
X0197864Y0255845D02*
X0188109Y0255845D01*
X0188173Y0257443D02*
X0198907Y0257443D01*
X0203709Y0257443D02*
X0212840Y0257443D01*
X0214438Y0259042D02*
X0187346Y0259042D01*
X0181805Y0259042D02*
X0024329Y0259042D01*
X0161085Y0239860D02*
X0170641Y0239860D01*
X0170953Y0241458D02*
X0161456Y0241458D01*
X0161085Y0238261D02*
X0171060Y0238261D01*
X0172141Y0236663D02*
X0161085Y0236663D01*
X0161085Y0235064D02*
X0172141Y0235064D01*
X0172141Y0233466D02*
X0161085Y0233466D01*
X0161085Y0231867D02*
X0172141Y0231867D01*
X0172141Y0230269D02*
X0161085Y0230269D01*
X0169967Y0249451D02*
X0176326Y0249451D01*
X0186676Y0249451D02*
X0199208Y0249451D01*
X0199208Y0251049D02*
X0186676Y0251049D01*
X0186676Y0252648D02*
X0198322Y0252648D01*
X0199208Y0247852D02*
X0186676Y0247852D01*
X0190292Y0246254D02*
X0199208Y0246254D01*
X0199208Y0244655D02*
X0191411Y0244655D01*
X0191620Y0243057D02*
X0199208Y0243057D01*
X0199208Y0241458D02*
X0191099Y0241458D01*
X0190120Y0239860D02*
X0199208Y0239860D01*
X0199208Y0238261D02*
X0190120Y0238261D01*
X0190120Y0236663D02*
X0199208Y0236663D01*
X0199208Y0235064D02*
X0190120Y0235064D01*
X0190120Y0233466D02*
X0199208Y0233466D01*
X0199208Y0231867D02*
X0190120Y0231867D01*
X0191255Y0230269D02*
X0199208Y0230269D01*
X0199208Y0228670D02*
X0191620Y0228670D01*
X0192089Y0227072D02*
X0199208Y0227072D01*
X0203408Y0227072D02*
X0205113Y0227072D01*
X0205113Y0228670D02*
X0203408Y0228670D01*
X0203408Y0230269D02*
X0205113Y0230269D01*
X0205113Y0231867D02*
X0203408Y0231867D01*
X0203408Y0233466D02*
X0205113Y0233466D01*
X0205113Y0235064D02*
X0203408Y0235064D01*
X0203408Y0236663D02*
X0205113Y0236663D01*
X0205113Y0238261D02*
X0203408Y0238261D01*
X0203408Y0239860D02*
X0205113Y0239860D01*
X0205113Y0241458D02*
X0203408Y0241458D01*
X0203408Y0243057D02*
X0205113Y0243057D01*
X0205113Y0244655D02*
X0203408Y0244655D01*
X0203408Y0246254D02*
X0205113Y0246254D01*
X0205113Y0247852D02*
X0203408Y0247852D01*
X0203408Y0249451D02*
X0205113Y0249451D01*
X0206446Y0251049D02*
X0203408Y0251049D01*
X0204294Y0252648D02*
X0208044Y0252648D01*
X0209643Y0254246D02*
X0204908Y0254246D01*
X0204752Y0255845D02*
X0211241Y0255845D01*
X0214932Y0260640D02*
X0205690Y0260640D01*
X0207560Y0262239D02*
X0215514Y0262239D01*
X0211775Y0263837D02*
X0208321Y0263837D01*
X0208581Y0265436D02*
X0211775Y0265436D01*
X0211775Y0267034D02*
X0208581Y0267034D01*
X0208581Y0268633D02*
X0211775Y0268633D01*
X0211775Y0270231D02*
X0208581Y0270231D01*
X0208581Y0271830D02*
X0211775Y0271830D01*
X0211874Y0273428D02*
X0208581Y0273428D01*
X0208581Y0275027D02*
X0219877Y0275027D01*
X0219877Y0276625D02*
X0208581Y0276625D01*
X0208581Y0278224D02*
X0219877Y0278224D01*
X0219877Y0279822D02*
X0208581Y0279822D01*
X0208581Y0281421D02*
X0219877Y0281421D01*
X0224077Y0278735D02*
X0250626Y0278735D01*
X0250365Y0278107D01*
X0250365Y0276674D01*
X0250913Y0275351D01*
X0251865Y0274399D01*
X0251865Y0271909D01*
X0251604Y0272540D01*
X0250591Y0273553D01*
X0249268Y0274101D01*
X0247836Y0274101D01*
X0246513Y0273553D01*
X0245500Y0272540D01*
X0244952Y0271217D01*
X0244952Y0269785D01*
X0245500Y0268462D01*
X0246513Y0267449D01*
X0247836Y0266901D01*
X0247928Y0266901D01*
X0247928Y0259699D01*
X0245450Y0259699D01*
X0245754Y0260434D01*
X0245754Y0261866D01*
X0245206Y0263190D01*
X0244194Y0264202D01*
X0242870Y0264750D01*
X0241438Y0264750D01*
X0240115Y0264202D01*
X0239694Y0263781D01*
X0239272Y0264202D01*
X0237949Y0264750D01*
X0236517Y0264750D01*
X0235194Y0264202D01*
X0234772Y0263781D01*
X0234351Y0264202D01*
X0233028Y0264750D01*
X0231596Y0264750D01*
X0230273Y0264202D01*
X0229851Y0263781D01*
X0229430Y0264202D01*
X0228107Y0264750D01*
X0226674Y0264750D01*
X0225351Y0264202D01*
X0224339Y0263190D01*
X0224077Y0262558D01*
X0224077Y0278735D01*
X0224077Y0278224D02*
X0250414Y0278224D01*
X0250386Y0276625D02*
X0224077Y0276625D01*
X0224077Y0275027D02*
X0251238Y0275027D01*
X0250716Y0273428D02*
X0251865Y0273428D01*
X0246388Y0273428D02*
X0224077Y0273428D01*
X0224077Y0271830D02*
X0245206Y0271830D01*
X0244952Y0270231D02*
X0224077Y0270231D01*
X0224077Y0268633D02*
X0245429Y0268633D01*
X0247513Y0267034D02*
X0224077Y0267034D01*
X0224077Y0265436D02*
X0247928Y0265436D01*
X0247928Y0263837D02*
X0244559Y0263837D01*
X0245600Y0262239D02*
X0247928Y0262239D01*
X0247928Y0260640D02*
X0245754Y0260640D01*
X0239750Y0263837D02*
X0239637Y0263837D01*
X0234829Y0263837D02*
X0234716Y0263837D01*
X0229908Y0263837D02*
X0229795Y0263837D01*
X0224986Y0263837D02*
X0224077Y0263837D01*
X0226367Y0252096D02*
X0226367Y0252096D01*
X0226367Y0251181D01*
X0227194Y0251181D01*
X0227259Y0251198D01*
X0227259Y0233872D01*
X0227235Y0233815D01*
X0227235Y0232383D01*
X0227259Y0232326D01*
X0227259Y0223371D01*
X0228243Y0222387D01*
X0228243Y0221865D01*
X0227786Y0221865D01*
X0227652Y0221942D01*
X0227194Y0222065D01*
X0226367Y0222065D01*
X0226367Y0221149D01*
X0226367Y0221149D01*
X0226367Y0221149D01*
X0226367Y0222065D01*
X0225539Y0222065D01*
X0225082Y0221942D01*
X0224948Y0221865D01*
X0224077Y0221865D01*
X0224077Y0236430D01*
X0223585Y0236922D01*
X0223585Y0240595D01*
X0224077Y0241088D01*
X0224077Y0251381D01*
X0224948Y0251381D01*
X0225082Y0251304D01*
X0225539Y0251181D01*
X0226367Y0251181D01*
X0226367Y0252096D01*
X0226367Y0252096D01*
X0227259Y0251049D02*
X0224077Y0251049D01*
X0224077Y0249451D02*
X0227259Y0249451D01*
X0227259Y0247852D02*
X0224077Y0247852D01*
X0224077Y0246254D02*
X0227259Y0246254D01*
X0227259Y0244655D02*
X0224077Y0244655D01*
X0224077Y0243057D02*
X0227259Y0243057D01*
X0227259Y0241458D02*
X0224077Y0241458D01*
X0223585Y0239860D02*
X0227259Y0239860D01*
X0227259Y0238261D02*
X0223585Y0238261D01*
X0223844Y0236663D02*
X0227259Y0236663D01*
X0227259Y0235064D02*
X0224077Y0235064D01*
X0224077Y0233466D02*
X0227235Y0233466D01*
X0227259Y0231867D02*
X0224077Y0231867D01*
X0224077Y0230269D02*
X0227259Y0230269D01*
X0227259Y0228670D02*
X0224077Y0228670D01*
X0224077Y0227072D02*
X0227259Y0227072D01*
X0227259Y0225473D02*
X0224077Y0225473D01*
X0224077Y0223875D02*
X0227259Y0223875D01*
X0228243Y0222276D02*
X0224077Y0222276D01*
X0205113Y0222276D02*
X0203408Y0222276D01*
X0203408Y0220678D02*
X0205113Y0220678D01*
X0205113Y0219079D02*
X0203408Y0219079D01*
X0203408Y0223875D02*
X0205113Y0223875D01*
X0205113Y0225473D02*
X0203408Y0225473D01*
X0194988Y0225473D02*
X0192089Y0225473D01*
X0192089Y0223875D02*
X0194263Y0223875D01*
X0194373Y0222276D02*
X0192089Y0222276D01*
X0192089Y0220678D02*
X0195351Y0220678D01*
X0195763Y0219079D02*
X0192089Y0219079D01*
X0192089Y0217480D02*
X0195763Y0217480D01*
X0195763Y0215882D02*
X0192089Y0215882D01*
X0192626Y0214283D02*
X0194734Y0214283D01*
X0194263Y0212685D02*
X0193097Y0212685D01*
X0192837Y0211086D02*
X0194523Y0211086D01*
X0195714Y0209488D02*
X0192089Y0209488D01*
X0192089Y0207889D02*
X0199208Y0207889D01*
X0199208Y0206291D02*
X0192089Y0206291D01*
X0192089Y0204692D02*
X0199208Y0204692D01*
X0199208Y0203094D02*
X0192089Y0203094D01*
X0192089Y0201495D02*
X0200169Y0201495D01*
X0200579Y0199897D02*
X0198755Y0199897D01*
X0199818Y0198298D02*
X0201669Y0198298D01*
X0194018Y0199897D02*
X0192089Y0199897D01*
X0192089Y0198298D02*
X0192956Y0198298D01*
X0192787Y0196700D02*
X0192089Y0196700D01*
X0221417Y0157180D02*
X0226256Y0157180D01*
X0226224Y0157148D01*
X0226224Y0155345D01*
X0226146Y0155211D01*
X0226024Y0154754D01*
X0226024Y0153926D01*
X0226024Y0153866D01*
X0225646Y0154022D01*
X0224214Y0154022D01*
X0223609Y0153771D01*
X0223609Y0154583D01*
X0223061Y0155906D01*
X0222048Y0156919D01*
X0221417Y0157180D01*
X0222230Y0156737D02*
X0226224Y0156737D01*
X0226127Y0155139D02*
X0223379Y0155139D01*
X0226024Y0153926D02*
X0226939Y0153926D01*
X0226939Y0153926D01*
X0226939Y0153926D01*
X0226024Y0153926D01*
X0263217Y0136052D02*
X0263217Y0132677D01*
X0261479Y0132677D01*
X0261479Y0101816D01*
X0260958Y0101295D01*
X0261683Y0101295D01*
X0262252Y0101142D01*
X0262762Y0100848D01*
X0263179Y0100431D01*
X0263473Y0099921D01*
X0263626Y0099352D01*
X0263626Y0097820D01*
X0260151Y0097820D01*
X0260151Y0097670D01*
X0263626Y0097670D01*
X0263626Y0096138D01*
X0263473Y0095569D01*
X0263179Y0095059D01*
X0262762Y0094642D01*
X0262252Y0094347D01*
X0261683Y0094195D01*
X0260151Y0094195D01*
X0260151Y0097670D01*
X0260001Y0097670D01*
X0260001Y0094195D01*
X0258469Y0094195D01*
X0257899Y0094347D01*
X0257389Y0094642D01*
X0256973Y0095059D01*
X0256944Y0095107D01*
X0256232Y0094395D01*
X0252128Y0094395D01*
X0252128Y0092246D01*
X0252757Y0092506D01*
X0254189Y0092506D01*
X0255512Y0091958D01*
X0256525Y0090946D01*
X0257073Y0089622D01*
X0257073Y0088190D01*
X0256525Y0086867D01*
X0255573Y0085915D01*
X0255573Y0085268D01*
X0256626Y0085268D01*
X0257338Y0084556D01*
X0257366Y0084604D01*
X0257783Y0085021D01*
X0258293Y0085316D01*
X0258862Y0085468D01*
X0260394Y0085468D01*
X0260394Y0081993D01*
X0260544Y0081993D01*
X0260544Y0085468D01*
X0262076Y0085468D01*
X0262645Y0085316D01*
X0263156Y0085021D01*
X0263572Y0084604D01*
X0263867Y0084094D01*
X0264019Y0083525D01*
X0264019Y0081993D01*
X0260544Y0081993D01*
X0260544Y0081843D01*
X0260544Y0078368D01*
X0262076Y0078368D01*
X0262645Y0078521D01*
X0263156Y0078815D01*
X0263572Y0079232D01*
X0263867Y0079742D01*
X0264019Y0080311D01*
X0264019Y0081843D01*
X0260544Y0081843D01*
X0260394Y0081843D01*
X0260394Y0078368D01*
X0258862Y0078368D01*
X0258293Y0078521D01*
X0257783Y0078815D01*
X0257366Y0079232D01*
X0257338Y0079281D01*
X0256626Y0078568D01*
X0252313Y0078568D01*
X0252128Y0078753D01*
X0252128Y0070091D01*
X0282886Y0039333D01*
X0313381Y0039333D01*
X0313381Y0107001D01*
X0336743Y0130363D01*
X0336080Y0130638D01*
X0335067Y0131651D01*
X0334519Y0132974D01*
X0334519Y0134406D01*
X0335067Y0135729D01*
X0336080Y0136742D01*
X0337003Y0137124D01*
X0337003Y0221666D01*
X0338932Y0223595D01*
X0338932Y0227209D01*
X0341627Y0229904D01*
X0345438Y0229904D01*
X0346846Y0228496D01*
X0346846Y0231508D01*
X0348932Y0233595D01*
X0348932Y0237209D01*
X0351627Y0239904D01*
X0355438Y0239904D01*
X0358132Y0237209D01*
X0358132Y0233399D01*
X0355438Y0230704D01*
X0351981Y0230704D01*
X0351046Y0229769D01*
X0351046Y0229323D01*
X0351627Y0229904D01*
X0355438Y0229904D01*
X0358132Y0227209D01*
X0358132Y0223399D01*
X0355438Y0220704D01*
X0351627Y0220704D01*
X0351046Y0221285D01*
X0351046Y0219323D01*
X0351627Y0219904D01*
X0355438Y0219904D01*
X0358132Y0217209D01*
X0358132Y0213399D01*
X0355438Y0210704D01*
X0352158Y0210704D01*
X0349077Y0207623D01*
X0349077Y0160750D01*
X0349438Y0160933D01*
X0350156Y0161167D01*
X0350903Y0161285D01*
X0354080Y0161285D01*
X0354080Y0156685D01*
X0354480Y0156685D01*
X0354480Y0161285D01*
X0357658Y0161285D01*
X0358404Y0161167D01*
X0359123Y0160933D01*
X0359796Y0160590D01*
X0360407Y0160146D01*
X0360942Y0159612D01*
X0361386Y0159001D01*
X0361729Y0158328D01*
X0361962Y0157609D01*
X0362080Y0156863D01*
X0362080Y0156685D01*
X0354480Y0156685D01*
X0354480Y0156285D01*
X0354480Y0151685D01*
X0357658Y0151685D01*
X0358404Y0151803D01*
X0359123Y0152037D01*
X0359796Y0152380D01*
X0360407Y0152824D01*
X0360942Y0153358D01*
X0361386Y0153969D01*
X0361729Y0154642D01*
X0361962Y0155361D01*
X0362080Y0156107D01*
X0362080Y0156285D01*
X0354480Y0156285D01*
X0354080Y0156285D01*
X0354080Y0151685D01*
X0350903Y0151685D01*
X0350156Y0151803D01*
X0349438Y0152037D01*
X0349077Y0152220D01*
X0349077Y0150551D01*
X0350365Y0151085D01*
X0358195Y0151085D01*
X0359886Y0150385D01*
X0361180Y0149091D01*
X0361880Y0147400D01*
X0361880Y0145570D01*
X0361180Y0143879D01*
X0359886Y0142585D01*
X0358195Y0141885D01*
X0350365Y0141885D01*
X0349077Y0142419D01*
X0349077Y0140551D01*
X0350365Y0141085D01*
X0358195Y0141085D01*
X0359886Y0140385D01*
X0361180Y0139091D01*
X0361880Y0137400D01*
X0361880Y0135570D01*
X0361180Y0133879D01*
X0359886Y0132585D01*
X0358195Y0131885D01*
X0350365Y0131885D01*
X0348675Y0132585D01*
X0347851Y0133409D01*
X0347048Y0132606D01*
X0345725Y0132058D01*
X0344293Y0132058D01*
X0343664Y0132319D01*
X0343664Y0131344D01*
X0342434Y0130113D01*
X0317581Y0105261D01*
X0317581Y0071577D01*
X0318210Y0071837D01*
X0319556Y0071837D01*
X0351767Y0104048D01*
X0351767Y0121885D01*
X0350365Y0121885D01*
X0348675Y0122585D01*
X0347381Y0123879D01*
X0346680Y0125570D01*
X0346680Y0127400D01*
X0347381Y0129091D01*
X0348675Y0130385D01*
X0350365Y0131085D01*
X0358195Y0131085D01*
X0359886Y0130385D01*
X0361180Y0129091D01*
X0361880Y0127400D01*
X0361880Y0125570D01*
X0361180Y0123879D01*
X0359886Y0122585D01*
X0358195Y0121885D01*
X0355967Y0121885D01*
X0355967Y0102308D01*
X0354737Y0101078D01*
X0322526Y0068867D01*
X0322526Y0067521D01*
X0321978Y0066198D01*
X0321026Y0065246D01*
X0321026Y0058925D01*
X0321978Y0057973D01*
X0322526Y0056650D01*
X0322526Y0055218D01*
X0321978Y0053895D01*
X0320965Y0052882D01*
X0319642Y0052334D01*
X0318210Y0052334D01*
X0317581Y0052594D01*
X0317581Y0036363D01*
X0316351Y0035133D01*
X0281147Y0035133D01*
X0279917Y0036363D01*
X0247928Y0068351D01*
X0247928Y0083344D01*
X0242309Y0077725D01*
X0242309Y0076379D01*
X0241761Y0075056D01*
X0240749Y0074043D01*
X0239426Y0073495D01*
X0237993Y0073495D01*
X0237365Y0073756D01*
X0237365Y0041701D01*
X0238316Y0040749D01*
X0238865Y0039426D01*
X0238865Y0037993D01*
X0238316Y0036670D01*
X0237304Y0035658D01*
X0235981Y0035109D01*
X0234548Y0035109D01*
X0233225Y0035658D01*
X0232712Y0036171D01*
X0232712Y0035804D01*
X0229237Y0035804D01*
X0229237Y0035654D01*
X0229237Y0032179D01*
X0230769Y0032179D01*
X0231338Y0032332D01*
X0231849Y0032626D01*
X0232265Y0033043D01*
X0232560Y0033553D01*
X0232712Y0034122D01*
X0232712Y0035654D01*
X0229237Y0035654D01*
X0229087Y0035654D01*
X0225612Y0035654D01*
X0225612Y0034122D01*
X0225765Y0033553D01*
X0226059Y0033043D01*
X0226476Y0032626D01*
X0226986Y0032332D01*
X0227555Y0032179D01*
X0229087Y0032179D01*
X0229087Y0035654D01*
X0229087Y0035804D01*
X0225612Y0035804D01*
X0225612Y0037336D01*
X0225765Y0037905D01*
X0226059Y0038415D01*
X0226476Y0038832D01*
X0226525Y0038860D01*
X0225812Y0039573D01*
X0225812Y0040054D01*
X0215977Y0040054D01*
X0215977Y0039888D01*
X0215264Y0039175D01*
X0215313Y0039147D01*
X0215730Y0038730D01*
X0216024Y0038220D01*
X0216177Y0037651D01*
X0216177Y0036119D01*
X0212702Y0036119D01*
X0212702Y0035969D01*
X0216177Y0035969D01*
X0216177Y0034437D01*
X0216024Y0033868D01*
X0215730Y0033358D01*
X0215313Y0032941D01*
X0214803Y0032647D01*
X0214234Y0032494D01*
X0212702Y0032494D01*
X0212702Y0035969D01*
X0212552Y0035969D01*
X0212552Y0032494D01*
X0211020Y0032494D01*
X0210451Y0032647D01*
X0209940Y0032941D01*
X0209524Y0033358D01*
X0209229Y0033868D01*
X0209077Y0034437D01*
X0209077Y0035969D01*
X0212552Y0035969D01*
X0212552Y0036119D01*
X0209077Y0036119D01*
X0209077Y0037651D01*
X0209229Y0038220D01*
X0209524Y0038730D01*
X0209940Y0039147D01*
X0209989Y0039175D01*
X0209277Y0039888D01*
X0209277Y0044201D01*
X0210470Y0045394D01*
X0214783Y0045394D01*
X0215923Y0044254D01*
X0219361Y0044254D01*
X0219361Y0044839D01*
X0219909Y0046162D01*
X0220922Y0047175D01*
X0222245Y0047723D01*
X0223677Y0047723D01*
X0225001Y0047175D01*
X0226013Y0046162D01*
X0226561Y0044839D01*
X0226561Y0044635D01*
X0227006Y0045079D01*
X0228330Y0045079D01*
X0229720Y0046469D01*
X0229720Y0049502D01*
X0228686Y0049502D01*
X0228686Y0052977D01*
X0228536Y0052977D01*
X0225061Y0052977D01*
X0225061Y0051445D01*
X0225214Y0050876D01*
X0225508Y0050366D01*
X0225925Y0049949D01*
X0226435Y0049654D01*
X0227004Y0049502D01*
X0228536Y0049502D01*
X0228536Y0052977D01*
X0228536Y0053127D01*
X0225061Y0053127D01*
X0225061Y0054659D01*
X0225214Y0055228D01*
X0225508Y0055738D01*
X0225925Y0056155D01*
X0225973Y0056183D01*
X0225261Y0056895D01*
X0225261Y0057279D01*
X0215494Y0057279D01*
X0215107Y0056892D01*
X0215156Y0056864D01*
X0215572Y0056447D01*
X0215867Y0055937D01*
X0216019Y0055368D01*
X0216019Y0053836D01*
X0212544Y0053836D01*
X0212544Y0053686D01*
X0216019Y0053686D01*
X0216019Y0052154D01*
X0215867Y0051584D01*
X0215572Y0051074D01*
X0215156Y0050658D01*
X0214645Y0050363D01*
X0214076Y0050211D01*
X0212544Y0050211D01*
X0212544Y0053686D01*
X0212394Y0053686D01*
X0208919Y0053686D01*
X0208919Y0052154D01*
X0209072Y0051584D01*
X0209366Y0051074D01*
X0209783Y0050658D01*
X0210293Y0050363D01*
X0210862Y0050211D01*
X0212394Y0050211D01*
X0212394Y0053686D01*
X0212394Y0053836D01*
X0208919Y0053836D01*
X0208919Y0055368D01*
X0209072Y0055937D01*
X0209366Y0056447D01*
X0209783Y0056864D01*
X0209832Y0056892D01*
X0209119Y0057604D01*
X0209119Y0059916D01*
X0203522Y0065513D01*
X0198811Y0060802D01*
X0198811Y0058077D01*
X0198099Y0057364D01*
X0198148Y0057336D01*
X0198564Y0056919D01*
X0198859Y0056409D01*
X0199011Y0055840D01*
X0199011Y0054308D01*
X0195536Y0054308D01*
X0195536Y0056883D01*
X0195386Y0056883D01*
X0195386Y0054308D01*
X0195386Y0054158D01*
X0191911Y0054158D01*
X0191911Y0052626D01*
X0192064Y0052057D01*
X0192307Y0051636D01*
X0182126Y0051636D01*
X0182323Y0051978D01*
X0182476Y0052547D01*
X0182476Y0054079D01*
X0179001Y0054079D01*
X0179001Y0054229D01*
X0182476Y0054229D01*
X0182476Y0055761D01*
X0182323Y0056330D01*
X0182029Y0056841D01*
X0181612Y0057257D01*
X0181564Y0057285D01*
X0182276Y0057998D01*
X0182276Y0058263D01*
X0192111Y0058263D01*
X0192111Y0058077D01*
X0192824Y0057364D01*
X0192775Y0057336D01*
X0192358Y0056919D01*
X0192064Y0056409D01*
X0191911Y0055840D01*
X0191911Y0054308D01*
X0195386Y0054308D01*
X0195536Y0054308D01*
X0195536Y0054158D01*
X0199011Y0054158D01*
X0199011Y0052626D01*
X0198880Y0052134D01*
X0199439Y0051575D01*
X0199987Y0050252D01*
X0199987Y0048820D01*
X0199439Y0047497D01*
X0198426Y0046484D01*
X0197103Y0045936D01*
X0195671Y0045936D01*
X0194347Y0046484D01*
X0193395Y0047436D01*
X0182597Y0047436D01*
X0182214Y0046513D01*
X0181201Y0045500D01*
X0180946Y0045394D01*
X0181240Y0045394D01*
X0182380Y0044254D01*
X0185029Y0044254D01*
X0185489Y0044714D01*
X0186812Y0045262D01*
X0188244Y0045262D01*
X0189568Y0044714D01*
X0190027Y0044254D01*
X0192269Y0044254D01*
X0192269Y0044279D01*
X0193462Y0045473D01*
X0197775Y0045473D01*
X0198969Y0044279D01*
X0198969Y0039966D01*
X0198256Y0039254D01*
X0198305Y0039226D01*
X0198722Y0038809D01*
X0199016Y0038299D01*
X0199169Y0037730D01*
X0199169Y0036198D01*
X0195694Y0036198D01*
X0195694Y0036048D01*
X0199169Y0036048D01*
X0199169Y0034516D01*
X0199016Y0033947D01*
X0198722Y0033436D01*
X0198305Y0033020D01*
X0197795Y0032725D01*
X0197226Y0032573D01*
X0195694Y0032573D01*
X0195694Y0036048D01*
X0195544Y0036048D01*
X0192069Y0036048D01*
X0192069Y0034516D01*
X0192221Y0033947D01*
X0192507Y0033451D01*
X0191241Y0033451D01*
X0189918Y0032903D01*
X0188966Y0031951D01*
X0165514Y0031951D01*
X0165514Y0065475D01*
X0166235Y0064754D01*
X0166235Y0052603D01*
X0167466Y0051373D01*
X0175733Y0043105D01*
X0175733Y0039888D01*
X0176446Y0039175D01*
X0176397Y0039147D01*
X0175981Y0038730D01*
X0175686Y0038220D01*
X0175533Y0037651D01*
X0175533Y0036119D01*
X0179008Y0036119D01*
X0179008Y0035969D01*
X0175533Y0035969D01*
X0175533Y0034437D01*
X0175686Y0033868D01*
X0175981Y0033358D01*
X0176397Y0032941D01*
X0176907Y0032647D01*
X0177476Y0032494D01*
X0179008Y0032494D01*
X0179008Y0035969D01*
X0179158Y0035969D01*
X0179158Y0032494D01*
X0180691Y0032494D01*
X0181260Y0032647D01*
X0181770Y0032941D01*
X0182186Y0033358D01*
X0182481Y0033868D01*
X0182633Y0034437D01*
X0182633Y0035969D01*
X0179159Y0035969D01*
X0179159Y0036119D01*
X0182633Y0036119D01*
X0182633Y0037651D01*
X0182481Y0038220D01*
X0182186Y0038730D01*
X0181770Y0039147D01*
X0181721Y0039175D01*
X0182433Y0039888D01*
X0182433Y0040054D01*
X0184298Y0040054D01*
X0184476Y0039623D01*
X0185489Y0038610D01*
X0186812Y0038062D01*
X0188244Y0038062D01*
X0189568Y0038610D01*
X0190580Y0039623D01*
X0190759Y0040054D01*
X0192269Y0040054D01*
X0192269Y0039966D01*
X0192981Y0039254D01*
X0192933Y0039226D01*
X0192516Y0038809D01*
X0192221Y0038299D01*
X0192069Y0037730D01*
X0192069Y0036198D01*
X0195544Y0036198D01*
X0195544Y0036048D01*
X0195544Y0032573D01*
X0194327Y0032573D01*
X0195009Y0031890D01*
X0195557Y0030567D01*
X0195557Y0029135D01*
X0195009Y0027812D01*
X0193997Y0026799D01*
X0192674Y0026251D01*
X0191241Y0026251D01*
X0189918Y0026799D01*
X0188966Y0027751D01*
X0165514Y0027751D01*
X0165514Y0020615D01*
X0164284Y0019385D01*
X0158648Y0019385D01*
X0158648Y0019293D01*
X0158100Y0017969D01*
X0157810Y0017680D01*
X0187151Y0017680D01*
X0198692Y0029221D01*
X0198692Y0030567D01*
X0199240Y0031890D01*
X0200253Y0032903D01*
X0201576Y0033451D01*
X0203008Y0033451D01*
X0204331Y0032903D01*
X0205344Y0031890D01*
X0205892Y0030567D01*
X0205892Y0029135D01*
X0205344Y0027812D01*
X0204331Y0026799D01*
X0203008Y0026251D01*
X0201662Y0026251D01*
X0190685Y0015274D01*
X0367460Y0015274D01*
X0367460Y0259980D01*
X0304719Y0259980D01*
X0305217Y0259773D01*
X0306230Y0258760D01*
X0306778Y0257437D01*
X0306778Y0256218D01*
X0307016Y0256792D01*
X0308028Y0257805D01*
X0309352Y0258353D01*
X0310784Y0258353D01*
X0312107Y0257805D01*
X0313120Y0256792D01*
X0313668Y0255469D01*
X0313668Y0254037D01*
X0313120Y0252714D01*
X0312168Y0251762D01*
X0312168Y0080655D01*
X0297920Y0066407D01*
X0297920Y0065060D01*
X0297372Y0063737D01*
X0296950Y0063316D01*
X0297372Y0062894D01*
X0297920Y0061571D01*
X0297920Y0060139D01*
X0297372Y0058816D01*
X0296359Y0057803D01*
X0295036Y0057255D01*
X0293604Y0057255D01*
X0292280Y0057803D01*
X0291268Y0058816D01*
X0290720Y0060139D01*
X0290720Y0061485D01*
X0284099Y0068106D01*
X0282869Y0069336D01*
X0282869Y0072388D01*
X0282438Y0072567D01*
X0281425Y0073580D01*
X0280877Y0074903D01*
X0280877Y0076335D01*
X0281425Y0077658D01*
X0282438Y0078671D01*
X0282869Y0078849D01*
X0282869Y0111506D01*
X0281917Y0112458D01*
X0281369Y0113781D01*
X0281369Y0115213D01*
X0281757Y0116148D01*
X0281462Y0116443D01*
X0281225Y0116853D01*
X0281102Y0117311D01*
X0281102Y0119910D01*
X0284477Y0119910D01*
X0284477Y0118097D01*
X0284477Y0118097D01*
X0284477Y0119910D01*
X0284477Y0119910D01*
X0284477Y0119910D01*
X0281102Y0119910D01*
X0281102Y0122509D01*
X0281225Y0122967D01*
X0281462Y0123378D01*
X0281797Y0123713D01*
X0282208Y0123950D01*
X0282665Y0124072D01*
X0284477Y0124072D01*
X0284477Y0119910D01*
X0284477Y0119910D01*
X0284477Y0124072D01*
X0286289Y0124072D01*
X0286747Y0123950D01*
X0287157Y0123713D01*
X0287492Y0123378D01*
X0287729Y0122967D01*
X0287852Y0122509D01*
X0287852Y0120349D01*
X0296517Y0129015D01*
X0284346Y0141186D01*
X0284346Y0156213D01*
X0285330Y0157197D01*
X0285330Y0160608D01*
X0284855Y0160133D01*
X0283715Y0158993D01*
X0283715Y0155862D01*
X0282778Y0154924D01*
X0277515Y0154924D01*
X0276578Y0155862D01*
X0276578Y0161518D01*
X0276955Y0161895D01*
X0276738Y0162112D01*
X0276501Y0162523D01*
X0276378Y0162980D01*
X0276378Y0165198D01*
X0279962Y0165198D01*
X0280331Y0165198D01*
X0280331Y0162455D01*
X0279962Y0162455D01*
X0279962Y0165198D01*
X0279962Y0165567D01*
X0276378Y0165567D01*
X0276378Y0167785D01*
X0276501Y0168243D01*
X0276733Y0168645D01*
X0273145Y0165057D01*
X0273145Y0152082D01*
X0273750Y0151477D01*
X0274298Y0150154D01*
X0274298Y0148722D01*
X0273750Y0147399D01*
X0272737Y0146386D01*
X0271788Y0145993D01*
X0272737Y0145600D01*
X0273750Y0144587D01*
X0274298Y0143264D01*
X0274298Y0141832D01*
X0273750Y0140509D01*
X0272737Y0139496D01*
X0271414Y0138948D01*
X0271321Y0138948D01*
X0271321Y0137066D01*
X0271583Y0137698D01*
X0272595Y0138710D01*
X0273919Y0139258D01*
X0275351Y0139258D01*
X0276347Y0138846D01*
X0277122Y0139620D01*
X0283171Y0139620D01*
X0284109Y0138683D01*
X0284109Y0134208D01*
X0283171Y0133271D01*
X0277338Y0133271D01*
X0276674Y0132606D01*
X0275351Y0132058D01*
X0273919Y0132058D01*
X0272595Y0132606D01*
X0271583Y0133619D01*
X0271321Y0134250D01*
X0271321Y0116397D01*
X0271583Y0117028D01*
X0272535Y0117980D01*
X0272535Y0118319D01*
X0273765Y0119550D01*
X0274216Y0120001D01*
X0274216Y0122935D01*
X0275153Y0123872D01*
X0279628Y0123872D01*
X0280565Y0122935D01*
X0280565Y0116885D01*
X0279628Y0115948D01*
X0278134Y0115948D01*
X0278235Y0115705D01*
X0278235Y0114273D01*
X0277687Y0112950D01*
X0276674Y0111937D01*
X0275351Y0111389D01*
X0273919Y0111389D01*
X0272595Y0111937D01*
X0271583Y0112950D01*
X0271321Y0113581D01*
X0271321Y0102232D01*
X0272273Y0101280D01*
X0272821Y0099957D01*
X0272821Y0098525D01*
X0272273Y0097202D01*
X0271260Y0096189D01*
X0269937Y0095641D01*
X0268505Y0095641D01*
X0267182Y0096189D01*
X0266169Y0097202D01*
X0265621Y0098525D01*
X0265621Y0099957D01*
X0266169Y0101280D01*
X0267121Y0102232D01*
X0267121Y0133548D01*
X0267020Y0133372D01*
X0266685Y0133037D01*
X0266274Y0132800D01*
X0265816Y0132677D01*
X0263217Y0132677D01*
X0263217Y0136052D01*
X0263217Y0136052D01*
X0263217Y0135956D02*
X0263217Y0135956D01*
X0263217Y0134358D02*
X0263217Y0134358D01*
X0263217Y0132759D02*
X0263217Y0132759D01*
X0261479Y0131161D02*
X0267121Y0131161D01*
X0267121Y0132759D02*
X0266123Y0132759D01*
X0267121Y0129562D02*
X0261479Y0129562D01*
X0261479Y0127964D02*
X0267121Y0127964D01*
X0267121Y0126365D02*
X0261479Y0126365D01*
X0261479Y0124767D02*
X0267121Y0124767D01*
X0267121Y0123168D02*
X0261479Y0123168D01*
X0261479Y0121570D02*
X0267121Y0121570D01*
X0267121Y0119971D02*
X0261479Y0119971D01*
X0261479Y0118373D02*
X0267121Y0118373D01*
X0267121Y0116774D02*
X0261479Y0116774D01*
X0261479Y0115176D02*
X0267121Y0115176D01*
X0267121Y0113577D02*
X0261479Y0113577D01*
X0261479Y0111979D02*
X0267121Y0111979D01*
X0267121Y0110380D02*
X0261479Y0110380D01*
X0261479Y0108782D02*
X0267121Y0108782D01*
X0267121Y0107183D02*
X0261479Y0107183D01*
X0261479Y0105585D02*
X0267121Y0105585D01*
X0267121Y0103986D02*
X0261479Y0103986D01*
X0261479Y0102388D02*
X0267121Y0102388D01*
X0265966Y0100789D02*
X0262821Y0100789D01*
X0263626Y0099191D02*
X0265621Y0099191D01*
X0266008Y0097592D02*
X0263626Y0097592D01*
X0263587Y0095994D02*
X0267654Y0095994D01*
X0270789Y0095994D02*
X0282869Y0095994D01*
X0282869Y0097592D02*
X0272435Y0097592D01*
X0272821Y0099191D02*
X0282869Y0099191D01*
X0282869Y0100789D02*
X0272477Y0100789D01*
X0271321Y0102388D02*
X0282869Y0102388D01*
X0282869Y0103986D02*
X0271321Y0103986D01*
X0271321Y0105585D02*
X0282869Y0105585D01*
X0282869Y0107183D02*
X0271321Y0107183D01*
X0271321Y0108782D02*
X0282869Y0108782D01*
X0282869Y0110380D02*
X0271321Y0110380D01*
X0271321Y0111979D02*
X0272554Y0111979D01*
X0271323Y0113577D02*
X0271321Y0113577D01*
X0271321Y0116774D02*
X0271478Y0116774D01*
X0271321Y0118373D02*
X0272588Y0118373D01*
X0271321Y0119971D02*
X0274186Y0119971D01*
X0274216Y0121570D02*
X0271321Y0121570D01*
X0271321Y0123168D02*
X0274449Y0123168D01*
X0271321Y0124767D02*
X0292269Y0124767D01*
X0290671Y0123168D02*
X0287613Y0123168D01*
X0287852Y0121570D02*
X0289072Y0121570D01*
X0293868Y0126365D02*
X0271321Y0126365D01*
X0271321Y0127964D02*
X0295466Y0127964D01*
X0295969Y0129562D02*
X0271321Y0129562D01*
X0271321Y0131161D02*
X0294371Y0131161D01*
X0292772Y0132759D02*
X0276827Y0132759D01*
X0284109Y0134358D02*
X0291174Y0134358D01*
X0289575Y0135956D02*
X0284109Y0135956D01*
X0284109Y0137555D02*
X0287977Y0137555D01*
X0286378Y0139153D02*
X0283638Y0139153D01*
X0283203Y0140280D02*
X0283614Y0140517D01*
X0283949Y0140852D01*
X0284186Y0141263D01*
X0284309Y0141720D01*
X0284309Y0143532D01*
X0280147Y0143532D01*
X0280147Y0143532D01*
X0280147Y0140157D01*
X0282746Y0140157D01*
X0283203Y0140280D01*
X0283849Y0140752D02*
X0284780Y0140752D01*
X0284346Y0142350D02*
X0284309Y0142350D01*
X0284309Y0143532D02*
X0284309Y0145344D01*
X0284186Y0145802D01*
X0283949Y0146212D01*
X0283614Y0146547D01*
X0283203Y0146784D01*
X0282746Y0146907D01*
X0280147Y0146907D01*
X0280147Y0143532D01*
X0280146Y0143532D01*
X0275984Y0143532D01*
X0275984Y0141720D01*
X0276107Y0141263D01*
X0276344Y0140852D01*
X0276679Y0140517D01*
X0277089Y0140280D01*
X0277547Y0140157D01*
X0280146Y0140157D01*
X0280146Y0143532D01*
X0280146Y0143532D01*
X0275984Y0143532D01*
X0275984Y0145344D01*
X0276107Y0145802D01*
X0276344Y0146212D01*
X0276679Y0146547D01*
X0277089Y0146784D01*
X0277547Y0146907D01*
X0280146Y0146907D01*
X0280146Y0143532D01*
X0280147Y0143532D01*
X0284309Y0143532D01*
X0284309Y0143949D02*
X0284346Y0143949D01*
X0284346Y0145547D02*
X0284254Y0145547D01*
X0284346Y0147146D02*
X0273497Y0147146D01*
X0272789Y0145547D02*
X0276039Y0145547D01*
X0275984Y0143949D02*
X0274014Y0143949D01*
X0274298Y0142350D02*
X0275984Y0142350D01*
X0276444Y0140752D02*
X0273850Y0140752D01*
X0273665Y0139153D02*
X0271910Y0139153D01*
X0271524Y0137555D02*
X0271321Y0137555D01*
X0275604Y0139153D02*
X0276654Y0139153D01*
X0280146Y0140752D02*
X0280147Y0140752D01*
X0280146Y0142350D02*
X0280147Y0142350D01*
X0280146Y0143949D02*
X0280147Y0143949D01*
X0280146Y0145547D02*
X0280147Y0145547D01*
X0284346Y0148745D02*
X0274298Y0148745D01*
X0274219Y0150343D02*
X0284346Y0150343D01*
X0284346Y0151942D02*
X0273285Y0151942D01*
X0273145Y0153540D02*
X0284346Y0153540D01*
X0284346Y0155139D02*
X0282992Y0155139D01*
X0283715Y0156737D02*
X0284870Y0156737D01*
X0285330Y0158336D02*
X0283715Y0158336D01*
X0284656Y0159934D02*
X0285330Y0159934D01*
X0280331Y0163131D02*
X0279962Y0163131D01*
X0279962Y0164730D02*
X0280331Y0164730D01*
X0280331Y0165567D02*
X0279962Y0165567D01*
X0279962Y0169348D01*
X0277941Y0169348D01*
X0277483Y0169225D01*
X0277081Y0168993D01*
X0278654Y0170566D01*
X0279884Y0171796D01*
X0279884Y0204737D01*
X0275636Y0208985D01*
X0276735Y0210084D01*
X0276735Y0214776D01*
X0275504Y0216006D01*
X0274274Y0217237D01*
X0274274Y0224570D01*
X0281360Y0224570D01*
X0282298Y0225507D01*
X0282298Y0226949D01*
X0283269Y0226546D01*
X0284701Y0226546D01*
X0285330Y0226807D01*
X0285330Y0219706D01*
X0284701Y0219967D01*
X0283269Y0219967D01*
X0281946Y0219419D01*
X0280933Y0218406D01*
X0280385Y0217083D01*
X0280385Y0215651D01*
X0280933Y0214328D01*
X0281885Y0213376D01*
X0281885Y0169348D01*
X0280331Y0169348D01*
X0280331Y0165567D01*
X0280331Y0166328D02*
X0279962Y0166328D01*
X0279962Y0167927D02*
X0280331Y0167927D01*
X0281885Y0169525D02*
X0277613Y0169525D01*
X0276416Y0167927D02*
X0276015Y0167927D01*
X0276378Y0166328D02*
X0274416Y0166328D01*
X0273145Y0164730D02*
X0276378Y0164730D01*
X0276378Y0163131D02*
X0273145Y0163131D01*
X0273145Y0161533D02*
X0276593Y0161533D01*
X0276578Y0159934D02*
X0273145Y0159934D01*
X0273145Y0158336D02*
X0276578Y0158336D01*
X0276578Y0156737D02*
X0273145Y0156737D01*
X0273145Y0155139D02*
X0277301Y0155139D01*
X0293372Y0154870D02*
X0294552Y0156050D01*
X0294611Y0155830D01*
X0294848Y0155419D01*
X0295183Y0155084D01*
X0295593Y0154847D01*
X0296051Y0154724D01*
X0298650Y0154724D01*
X0298650Y0158099D01*
X0298650Y0158099D01*
X0298650Y0154724D01*
X0300586Y0154724D01*
X0300586Y0146907D01*
X0298257Y0146907D01*
X0298257Y0143532D01*
X0298257Y0140157D01*
X0300586Y0140157D01*
X0300586Y0139620D01*
X0298249Y0139620D01*
X0297712Y0140157D01*
X0298257Y0140157D01*
X0298257Y0143532D01*
X0298257Y0143532D01*
X0298257Y0143532D01*
X0298257Y0146907D01*
X0296420Y0146907D01*
X0296420Y0150308D01*
X0295190Y0151538D01*
X0293491Y0153237D01*
X0293491Y0154583D01*
X0293372Y0154870D01*
X0293640Y0155139D02*
X0295128Y0155139D01*
X0293491Y0153540D02*
X0300586Y0153540D01*
X0300586Y0151942D02*
X0294786Y0151942D01*
X0296384Y0150343D02*
X0300586Y0150343D01*
X0300586Y0148745D02*
X0296420Y0148745D01*
X0296420Y0147146D02*
X0300586Y0147146D01*
X0298257Y0145547D02*
X0298257Y0145547D01*
X0298257Y0143949D02*
X0298257Y0143949D01*
X0298257Y0142350D02*
X0298257Y0142350D01*
X0298257Y0140752D02*
X0298257Y0140752D01*
X0312168Y0140752D02*
X0324897Y0140752D01*
X0324897Y0142350D02*
X0312168Y0142350D01*
X0312168Y0143949D02*
X0324897Y0143949D01*
X0324897Y0145547D02*
X0312168Y0145547D01*
X0312168Y0147146D02*
X0324897Y0147146D01*
X0324897Y0148745D02*
X0312168Y0148745D01*
X0312168Y0150343D02*
X0324897Y0150343D01*
X0324897Y0151942D02*
X0312168Y0151942D01*
X0312168Y0153540D02*
X0324897Y0153540D01*
X0324897Y0155139D02*
X0312168Y0155139D01*
X0312168Y0156737D02*
X0324897Y0156737D01*
X0324897Y0158336D02*
X0312168Y0158336D01*
X0312168Y0159934D02*
X0324897Y0159934D01*
X0324897Y0161533D02*
X0312168Y0161533D01*
X0312168Y0163131D02*
X0324897Y0163131D01*
X0324897Y0164730D02*
X0312168Y0164730D01*
X0312168Y0166328D02*
X0324897Y0166328D01*
X0324897Y0167927D02*
X0312168Y0167927D01*
X0312168Y0169525D02*
X0324897Y0169525D01*
X0324897Y0171124D02*
X0312168Y0171124D01*
X0312168Y0172722D02*
X0323750Y0172722D01*
X0323961Y0172212D02*
X0324897Y0171277D01*
X0324897Y0137709D01*
X0318553Y0131365D01*
X0317229Y0131365D01*
X0315913Y0130820D01*
X0314906Y0129813D01*
X0314361Y0128497D01*
X0314361Y0127072D01*
X0314906Y0125756D01*
X0315913Y0124748D01*
X0317229Y0124203D01*
X0318654Y0124203D01*
X0319970Y0124748D01*
X0320978Y0125756D01*
X0321523Y0127072D01*
X0321523Y0128396D01*
X0327867Y0134739D01*
X0329097Y0135970D01*
X0329097Y0171277D01*
X0330033Y0172212D01*
X0330578Y0173529D01*
X0330578Y0174953D01*
X0330033Y0176269D01*
X0329025Y0177277D01*
X0327709Y0177822D01*
X0326285Y0177822D01*
X0324968Y0177277D01*
X0323961Y0176269D01*
X0323416Y0174953D01*
X0323416Y0173529D01*
X0323961Y0172212D01*
X0323416Y0174321D02*
X0312168Y0174321D01*
X0312168Y0175919D02*
X0323816Y0175919D01*
X0325550Y0177518D02*
X0312168Y0177518D01*
X0312168Y0179116D02*
X0337003Y0179116D01*
X0337003Y0177518D02*
X0328444Y0177518D01*
X0330178Y0175919D02*
X0337003Y0175919D01*
X0337003Y0174321D02*
X0330578Y0174321D01*
X0330244Y0172722D02*
X0337003Y0172722D01*
X0337003Y0171124D02*
X0329097Y0171124D01*
X0329097Y0169525D02*
X0337003Y0169525D01*
X0337003Y0167927D02*
X0329097Y0167927D01*
X0329097Y0166328D02*
X0337003Y0166328D01*
X0337003Y0164730D02*
X0329097Y0164730D01*
X0329097Y0163131D02*
X0337003Y0163131D01*
X0337003Y0161533D02*
X0329097Y0161533D01*
X0329097Y0159934D02*
X0337003Y0159934D01*
X0337003Y0158336D02*
X0329097Y0158336D01*
X0329097Y0156737D02*
X0337003Y0156737D01*
X0337003Y0155139D02*
X0329097Y0155139D01*
X0329097Y0153540D02*
X0337003Y0153540D01*
X0337003Y0151942D02*
X0329097Y0151942D01*
X0329097Y0150343D02*
X0337003Y0150343D01*
X0337003Y0148745D02*
X0329097Y0148745D01*
X0329097Y0147146D02*
X0337003Y0147146D01*
X0337003Y0145547D02*
X0329097Y0145547D01*
X0329097Y0143949D02*
X0337003Y0143949D01*
X0337003Y0142350D02*
X0329097Y0142350D01*
X0329097Y0140752D02*
X0337003Y0140752D01*
X0337003Y0139153D02*
X0329097Y0139153D01*
X0329097Y0137555D02*
X0337003Y0137555D01*
X0335294Y0135956D02*
X0329084Y0135956D01*
X0327867Y0134739D02*
X0327867Y0134739D01*
X0327485Y0134358D02*
X0334519Y0134358D01*
X0334608Y0132759D02*
X0325887Y0132759D01*
X0324288Y0131161D02*
X0335557Y0131161D01*
X0335943Y0129562D02*
X0322690Y0129562D01*
X0321523Y0127964D02*
X0334344Y0127964D01*
X0332746Y0126365D02*
X0321230Y0126365D01*
X0319989Y0124767D02*
X0331147Y0124767D01*
X0329549Y0123168D02*
X0312168Y0123168D01*
X0312168Y0121570D02*
X0327950Y0121570D01*
X0326352Y0119971D02*
X0312168Y0119971D01*
X0312168Y0118373D02*
X0324753Y0118373D01*
X0323155Y0116774D02*
X0312168Y0116774D01*
X0312168Y0115176D02*
X0321556Y0115176D01*
X0319958Y0113577D02*
X0312168Y0113577D01*
X0312168Y0111979D02*
X0318359Y0111979D01*
X0316761Y0110380D02*
X0312168Y0110380D01*
X0312168Y0108782D02*
X0315162Y0108782D01*
X0313564Y0107183D02*
X0312168Y0107183D01*
X0312168Y0105585D02*
X0313381Y0105585D01*
X0313381Y0103986D02*
X0312168Y0103986D01*
X0312168Y0102388D02*
X0313381Y0102388D01*
X0313381Y0100789D02*
X0312168Y0100789D01*
X0312168Y0099191D02*
X0313381Y0099191D01*
X0313381Y0097592D02*
X0312168Y0097592D01*
X0312168Y0095994D02*
X0313381Y0095994D01*
X0313381Y0094395D02*
X0312168Y0094395D01*
X0312168Y0092797D02*
X0313381Y0092797D01*
X0313381Y0091198D02*
X0312168Y0091198D01*
X0312168Y0089600D02*
X0313381Y0089600D01*
X0313381Y0088001D02*
X0312168Y0088001D01*
X0312168Y0086403D02*
X0313381Y0086403D01*
X0313381Y0084804D02*
X0312168Y0084804D01*
X0312168Y0083206D02*
X0313381Y0083206D01*
X0313381Y0081607D02*
X0312168Y0081607D01*
X0311522Y0080009D02*
X0313381Y0080009D01*
X0313381Y0078410D02*
X0309923Y0078410D01*
X0308325Y0076811D02*
X0313381Y0076811D01*
X0313381Y0075213D02*
X0306726Y0075213D01*
X0305128Y0073614D02*
X0313381Y0073614D01*
X0313381Y0072016D02*
X0303529Y0072016D01*
X0301931Y0070417D02*
X0313381Y0070417D01*
X0313381Y0068819D02*
X0300332Y0068819D01*
X0298734Y0067220D02*
X0313381Y0067220D01*
X0313381Y0065622D02*
X0297920Y0065622D01*
X0297490Y0064023D02*
X0313381Y0064023D01*
X0313381Y0062425D02*
X0297566Y0062425D01*
X0297920Y0060826D02*
X0313381Y0060826D01*
X0313381Y0059228D02*
X0297542Y0059228D01*
X0295939Y0057629D02*
X0313381Y0057629D01*
X0313381Y0056031D02*
X0266189Y0056031D01*
X0267787Y0054432D02*
X0313381Y0054432D01*
X0313381Y0052834D02*
X0269386Y0052834D01*
X0270984Y0051235D02*
X0313381Y0051235D01*
X0313381Y0049637D02*
X0272583Y0049637D01*
X0274181Y0048038D02*
X0313381Y0048038D01*
X0313381Y0046440D02*
X0275780Y0046440D01*
X0277378Y0044841D02*
X0313381Y0044841D01*
X0313381Y0043243D02*
X0278977Y0043243D01*
X0280575Y0041644D02*
X0313381Y0041644D01*
X0313381Y0040046D02*
X0282174Y0040046D01*
X0279431Y0036849D02*
X0238390Y0036849D01*
X0238865Y0038447D02*
X0277833Y0038447D01*
X0276234Y0040046D02*
X0238608Y0040046D01*
X0237421Y0041644D02*
X0274636Y0041644D01*
X0273037Y0043243D02*
X0237365Y0043243D01*
X0237365Y0044841D02*
X0271438Y0044841D01*
X0269840Y0046440D02*
X0237365Y0046440D01*
X0237365Y0048038D02*
X0268241Y0048038D01*
X0266643Y0049637D02*
X0237365Y0049637D01*
X0237365Y0051235D02*
X0265044Y0051235D01*
X0263446Y0052834D02*
X0237365Y0052834D01*
X0237365Y0054432D02*
X0261847Y0054432D01*
X0260249Y0056031D02*
X0237365Y0056031D01*
X0237365Y0057629D02*
X0258650Y0057629D01*
X0257052Y0059228D02*
X0237365Y0059228D01*
X0237365Y0060826D02*
X0255453Y0060826D01*
X0253855Y0062425D02*
X0237365Y0062425D01*
X0237365Y0064023D02*
X0252256Y0064023D01*
X0250658Y0065622D02*
X0237365Y0065622D01*
X0237365Y0067220D02*
X0249059Y0067220D01*
X0247928Y0068819D02*
X0237365Y0068819D01*
X0237365Y0070417D02*
X0247928Y0070417D01*
X0247928Y0072016D02*
X0237365Y0072016D01*
X0237365Y0073614D02*
X0237706Y0073614D01*
X0239713Y0073614D02*
X0247928Y0073614D01*
X0247928Y0075213D02*
X0241826Y0075213D01*
X0242309Y0076811D02*
X0247928Y0076811D01*
X0247928Y0078410D02*
X0242994Y0078410D01*
X0244593Y0080009D02*
X0247928Y0080009D01*
X0247928Y0081607D02*
X0246191Y0081607D01*
X0247790Y0083206D02*
X0247928Y0083206D01*
X0252128Y0078410D02*
X0258706Y0078410D01*
X0260394Y0078410D02*
X0260544Y0078410D01*
X0260544Y0080009D02*
X0260394Y0080009D01*
X0260394Y0081607D02*
X0260544Y0081607D01*
X0260544Y0083206D02*
X0260394Y0083206D01*
X0260394Y0084804D02*
X0260544Y0084804D01*
X0263373Y0084804D02*
X0282869Y0084804D01*
X0282869Y0083206D02*
X0264019Y0083206D01*
X0264019Y0081607D02*
X0282869Y0081607D01*
X0282869Y0080009D02*
X0263938Y0080009D01*
X0262233Y0078410D02*
X0282177Y0078410D01*
X0281075Y0076811D02*
X0252128Y0076811D01*
X0252128Y0075213D02*
X0280877Y0075213D01*
X0281411Y0073614D02*
X0252128Y0073614D01*
X0252128Y0072016D02*
X0282869Y0072016D01*
X0282869Y0070417D02*
X0252128Y0070417D01*
X0253401Y0068819D02*
X0283386Y0068819D01*
X0284985Y0067220D02*
X0254999Y0067220D01*
X0256598Y0065622D02*
X0286583Y0065622D01*
X0288182Y0064023D02*
X0258196Y0064023D01*
X0259795Y0062425D02*
X0289780Y0062425D01*
X0290720Y0060826D02*
X0261393Y0060826D01*
X0262992Y0059228D02*
X0291097Y0059228D01*
X0292700Y0057629D02*
X0264590Y0057629D01*
X0270098Y0035912D02*
X0264184Y0029998D01*
X0264184Y0021634D01*
X0270098Y0015720D01*
X0278462Y0015720D01*
X0284376Y0021634D01*
X0284376Y0029998D01*
X0278462Y0035912D01*
X0270098Y0035912D01*
X0269437Y0035250D02*
X0236320Y0035250D01*
X0234209Y0035250D02*
X0232712Y0035250D01*
X0232586Y0033652D02*
X0267838Y0033652D01*
X0266240Y0032053D02*
X0205181Y0032053D01*
X0205892Y0030455D02*
X0264641Y0030455D01*
X0264184Y0028856D02*
X0205777Y0028856D01*
X0204790Y0027258D02*
X0264184Y0027258D01*
X0264184Y0025659D02*
X0201070Y0025659D01*
X0199471Y0024061D02*
X0264184Y0024061D01*
X0264184Y0022462D02*
X0197873Y0022462D01*
X0196274Y0020864D02*
X0264954Y0020864D01*
X0266553Y0019265D02*
X0194676Y0019265D01*
X0193077Y0017667D02*
X0268152Y0017667D01*
X0269750Y0016068D02*
X0191479Y0016068D01*
X0188736Y0019265D02*
X0158637Y0019265D01*
X0154424Y0024061D02*
X0138707Y0024061D01*
X0138707Y0025659D02*
X0154424Y0025659D01*
X0154424Y0027258D02*
X0138707Y0027258D01*
X0138707Y0028856D02*
X0154424Y0028856D01*
X0154424Y0030455D02*
X0138250Y0030455D01*
X0136652Y0032053D02*
X0154424Y0032053D01*
X0154424Y0033652D02*
X0135053Y0033652D01*
X0133455Y0035250D02*
X0154424Y0035250D01*
X0154424Y0036849D02*
X0058219Y0036849D01*
X0058021Y0035250D02*
X0123767Y0035250D01*
X0122169Y0033652D02*
X0057133Y0033652D01*
X0054560Y0032053D02*
X0120570Y0032053D01*
X0118972Y0030455D02*
X0056312Y0030455D01*
X0057681Y0028856D02*
X0118515Y0028856D01*
X0118515Y0027258D02*
X0058219Y0027258D01*
X0058191Y0025659D02*
X0118515Y0025659D01*
X0118515Y0024061D02*
X0057528Y0024061D01*
X0055547Y0022462D02*
X0118515Y0022462D01*
X0119285Y0020864D02*
X0052817Y0020864D01*
X0052817Y0019265D02*
X0120884Y0019265D01*
X0136338Y0019265D02*
X0151459Y0019265D01*
X0151506Y0020864D02*
X0137937Y0020864D01*
X0138707Y0022462D02*
X0152410Y0022462D01*
X0165514Y0022462D02*
X0191933Y0022462D01*
X0190335Y0020864D02*
X0165514Y0020864D01*
X0165514Y0024061D02*
X0193532Y0024061D01*
X0195130Y0025659D02*
X0165514Y0025659D01*
X0165514Y0027258D02*
X0189460Y0027258D01*
X0189068Y0032053D02*
X0165514Y0032053D01*
X0165514Y0033652D02*
X0175811Y0033652D01*
X0175533Y0035250D02*
X0165514Y0035250D01*
X0165514Y0036849D02*
X0175533Y0036849D01*
X0175817Y0038447D02*
X0165514Y0038447D01*
X0165514Y0040046D02*
X0175733Y0040046D01*
X0175733Y0041644D02*
X0165514Y0041644D01*
X0165514Y0043243D02*
X0175596Y0043243D01*
X0173998Y0044841D02*
X0165514Y0044841D01*
X0165514Y0046440D02*
X0172399Y0046440D01*
X0170801Y0048038D02*
X0165514Y0048038D01*
X0165514Y0049637D02*
X0169202Y0049637D01*
X0167603Y0051235D02*
X0165514Y0051235D01*
X0165514Y0052834D02*
X0166235Y0052834D01*
X0166235Y0054432D02*
X0165514Y0054432D01*
X0165514Y0056031D02*
X0166235Y0056031D01*
X0166235Y0057629D02*
X0165514Y0057629D01*
X0165514Y0059228D02*
X0166235Y0059228D01*
X0166235Y0060826D02*
X0165514Y0060826D01*
X0165514Y0062425D02*
X0166235Y0062425D01*
X0166235Y0064023D02*
X0165514Y0064023D01*
X0174865Y0068123D02*
X0174865Y0096224D01*
X0176207Y0096224D01*
X0176341Y0096146D01*
X0176799Y0096024D01*
X0177554Y0096024D01*
X0177554Y0077210D01*
X0184936Y0069828D01*
X0186166Y0068598D01*
X0197256Y0068598D01*
X0198089Y0069430D01*
X0198539Y0068980D01*
X0201049Y0068980D01*
X0195653Y0063583D01*
X0193305Y0063583D01*
X0192185Y0062463D01*
X0182124Y0062463D01*
X0181082Y0063504D01*
X0179483Y0063504D01*
X0174865Y0068123D01*
X0174865Y0068819D02*
X0185945Y0068819D01*
X0184347Y0070417D02*
X0174865Y0070417D01*
X0174865Y0072016D02*
X0182748Y0072016D01*
X0181150Y0073614D02*
X0174865Y0073614D01*
X0174865Y0075213D02*
X0179551Y0075213D01*
X0177953Y0076811D02*
X0174865Y0076811D01*
X0174865Y0078410D02*
X0177554Y0078410D01*
X0177554Y0080009D02*
X0174865Y0080009D01*
X0174865Y0081607D02*
X0177554Y0081607D01*
X0177554Y0083206D02*
X0174865Y0083206D01*
X0174865Y0084804D02*
X0177554Y0084804D01*
X0177554Y0086403D02*
X0174865Y0086403D01*
X0174865Y0088001D02*
X0177554Y0088001D01*
X0177554Y0089600D02*
X0174865Y0089600D01*
X0174865Y0091198D02*
X0177554Y0091198D01*
X0177554Y0092797D02*
X0174865Y0092797D01*
X0174865Y0094395D02*
X0177554Y0094395D01*
X0177554Y0095994D02*
X0174865Y0095994D01*
X0197478Y0068819D02*
X0200888Y0068819D01*
X0199290Y0067220D02*
X0175767Y0067220D01*
X0177365Y0065622D02*
X0197691Y0065622D01*
X0196093Y0064023D02*
X0178964Y0064023D01*
X0181907Y0057629D02*
X0192559Y0057629D01*
X0191963Y0056031D02*
X0182404Y0056031D01*
X0182476Y0054432D02*
X0191911Y0054432D01*
X0191911Y0052834D02*
X0182476Y0052834D01*
X0182141Y0046440D02*
X0194455Y0046440D01*
X0192831Y0044841D02*
X0189261Y0044841D01*
X0185796Y0044841D02*
X0181793Y0044841D01*
X0182433Y0040046D02*
X0184301Y0040046D01*
X0185883Y0038447D02*
X0182350Y0038447D01*
X0182633Y0036849D02*
X0192069Y0036849D01*
X0192069Y0035250D02*
X0182633Y0035250D01*
X0182356Y0033652D02*
X0192392Y0033652D01*
X0194847Y0032053D02*
X0199403Y0032053D01*
X0198846Y0033652D02*
X0209354Y0033652D01*
X0209077Y0035250D02*
X0199169Y0035250D01*
X0199169Y0036849D02*
X0209077Y0036849D01*
X0209360Y0038447D02*
X0198931Y0038447D01*
X0198969Y0040046D02*
X0209277Y0040046D01*
X0209277Y0041644D02*
X0198969Y0041644D01*
X0198969Y0043243D02*
X0209277Y0043243D01*
X0209917Y0044841D02*
X0198407Y0044841D01*
X0198318Y0046440D02*
X0220187Y0046440D01*
X0219362Y0044841D02*
X0215336Y0044841D01*
X0215977Y0040046D02*
X0225812Y0040046D01*
X0226091Y0038447D02*
X0215893Y0038447D01*
X0216177Y0036849D02*
X0225612Y0036849D01*
X0225612Y0035250D02*
X0216177Y0035250D01*
X0215899Y0033652D02*
X0225738Y0033652D01*
X0229087Y0033652D02*
X0229237Y0033652D01*
X0229237Y0035250D02*
X0229087Y0035250D01*
X0226768Y0044841D02*
X0226560Y0044841D01*
X0225736Y0046440D02*
X0229690Y0046440D01*
X0229720Y0048038D02*
X0199663Y0048038D01*
X0199987Y0049637D02*
X0226501Y0049637D01*
X0228536Y0049637D02*
X0228686Y0049637D01*
X0228686Y0051235D02*
X0228536Y0051235D01*
X0228536Y0052834D02*
X0228686Y0052834D01*
X0225061Y0052834D02*
X0216019Y0052834D01*
X0216019Y0054432D02*
X0225061Y0054432D01*
X0225801Y0056031D02*
X0215812Y0056031D01*
X0212544Y0052834D02*
X0212394Y0052834D01*
X0212394Y0051235D02*
X0212544Y0051235D01*
X0215665Y0051235D02*
X0225117Y0051235D01*
X0209273Y0051235D02*
X0199579Y0051235D01*
X0199011Y0052834D02*
X0208919Y0052834D01*
X0208919Y0054432D02*
X0199011Y0054432D01*
X0198960Y0056031D02*
X0209126Y0056031D01*
X0209119Y0057629D02*
X0198364Y0057629D01*
X0198811Y0059228D02*
X0209119Y0059228D01*
X0208209Y0060826D02*
X0198836Y0060826D01*
X0200434Y0062425D02*
X0206611Y0062425D01*
X0205012Y0064023D02*
X0202033Y0064023D01*
X0195536Y0056031D02*
X0195386Y0056031D01*
X0195386Y0054432D02*
X0195536Y0054432D01*
X0192269Y0040046D02*
X0190755Y0040046D01*
X0192307Y0038447D02*
X0189174Y0038447D01*
X0195544Y0035250D02*
X0195694Y0035250D01*
X0195694Y0033652D02*
X0195544Y0033652D01*
X0195557Y0030455D02*
X0198692Y0030455D01*
X0198327Y0028856D02*
X0195442Y0028856D01*
X0194455Y0027258D02*
X0196729Y0027258D01*
X0212552Y0033652D02*
X0212702Y0033652D01*
X0212702Y0035250D02*
X0212552Y0035250D01*
X0179158Y0035250D02*
X0179008Y0035250D01*
X0179008Y0033652D02*
X0179158Y0033652D01*
X0154424Y0038447D02*
X0057850Y0038447D01*
X0252128Y0092797D02*
X0282869Y0092797D01*
X0282869Y0094395D02*
X0262334Y0094395D01*
X0260151Y0094395D02*
X0260001Y0094395D01*
X0260001Y0095994D02*
X0260151Y0095994D01*
X0260151Y0097592D02*
X0260001Y0097592D01*
X0257817Y0094395D02*
X0256232Y0094395D01*
X0256273Y0091198D02*
X0282869Y0091198D01*
X0282869Y0089600D02*
X0257073Y0089600D01*
X0256995Y0088001D02*
X0282869Y0088001D01*
X0282869Y0086403D02*
X0256061Y0086403D01*
X0257090Y0084804D02*
X0257566Y0084804D01*
X0276716Y0111979D02*
X0282396Y0111979D01*
X0281454Y0113577D02*
X0277946Y0113577D01*
X0278235Y0115176D02*
X0281369Y0115176D01*
X0281271Y0116774D02*
X0280454Y0116774D01*
X0280565Y0118373D02*
X0281102Y0118373D01*
X0281102Y0119971D02*
X0280565Y0119971D01*
X0280565Y0121570D02*
X0281102Y0121570D01*
X0281341Y0123168D02*
X0280332Y0123168D01*
X0284477Y0123168D02*
X0284477Y0123168D01*
X0284477Y0121570D02*
X0284477Y0121570D01*
X0284477Y0119971D02*
X0284477Y0119971D01*
X0284477Y0118373D02*
X0284477Y0118373D01*
X0272442Y0132759D02*
X0271321Y0132759D01*
X0298650Y0155139D02*
X0298650Y0155139D01*
X0298650Y0156737D02*
X0298650Y0156737D01*
X0298650Y0158099D02*
X0298650Y0161474D01*
X0296420Y0161474D01*
X0296420Y0162011D01*
X0298954Y0162011D01*
X0299491Y0161474D01*
X0298650Y0161474D01*
X0298650Y0158099D01*
X0298650Y0158099D01*
X0298650Y0158336D02*
X0298650Y0158336D01*
X0298650Y0159934D02*
X0298650Y0159934D01*
X0299432Y0161533D02*
X0296420Y0161533D01*
X0281885Y0171124D02*
X0279212Y0171124D01*
X0279884Y0172722D02*
X0281885Y0172722D01*
X0281885Y0174321D02*
X0279884Y0174321D01*
X0279884Y0175919D02*
X0281885Y0175919D01*
X0281885Y0177518D02*
X0279884Y0177518D01*
X0279884Y0179116D02*
X0281885Y0179116D01*
X0281885Y0180715D02*
X0279884Y0180715D01*
X0279884Y0182313D02*
X0281885Y0182313D01*
X0281885Y0183912D02*
X0279884Y0183912D01*
X0279884Y0185510D02*
X0281885Y0185510D01*
X0281885Y0187109D02*
X0279884Y0187109D01*
X0279884Y0188707D02*
X0281885Y0188707D01*
X0281885Y0190306D02*
X0279884Y0190306D01*
X0279884Y0191904D02*
X0281885Y0191904D01*
X0281885Y0193503D02*
X0279884Y0193503D01*
X0279884Y0195101D02*
X0281885Y0195101D01*
X0281885Y0196700D02*
X0279884Y0196700D01*
X0279884Y0198298D02*
X0281885Y0198298D01*
X0281885Y0199897D02*
X0279884Y0199897D01*
X0279884Y0201495D02*
X0281885Y0201495D01*
X0281885Y0203094D02*
X0279884Y0203094D01*
X0279884Y0204692D02*
X0281885Y0204692D01*
X0281885Y0206291D02*
X0278330Y0206291D01*
X0276732Y0207889D02*
X0281885Y0207889D01*
X0281885Y0209488D02*
X0276139Y0209488D01*
X0276735Y0211086D02*
X0281885Y0211086D01*
X0281885Y0212685D02*
X0276735Y0212685D01*
X0276735Y0214283D02*
X0280977Y0214283D01*
X0280385Y0215882D02*
X0275629Y0215882D01*
X0274274Y0217480D02*
X0280550Y0217480D01*
X0281606Y0219079D02*
X0274274Y0219079D01*
X0274274Y0220678D02*
X0285330Y0220678D01*
X0285330Y0222276D02*
X0274274Y0222276D01*
X0274274Y0223875D02*
X0285330Y0223875D01*
X0285330Y0225473D02*
X0282263Y0225473D01*
X0312168Y0225473D02*
X0338932Y0225473D01*
X0338932Y0223875D02*
X0312168Y0223875D01*
X0312168Y0222276D02*
X0337613Y0222276D01*
X0337003Y0220678D02*
X0312168Y0220678D01*
X0312168Y0219079D02*
X0337003Y0219079D01*
X0337003Y0217480D02*
X0312168Y0217480D01*
X0312168Y0215882D02*
X0337003Y0215882D01*
X0337003Y0214283D02*
X0312168Y0214283D01*
X0312168Y0212685D02*
X0337003Y0212685D01*
X0337003Y0211086D02*
X0312168Y0211086D01*
X0312168Y0209488D02*
X0337003Y0209488D01*
X0337003Y0207889D02*
X0312168Y0207889D01*
X0312168Y0206291D02*
X0337003Y0206291D01*
X0337003Y0204692D02*
X0312168Y0204692D01*
X0312168Y0203094D02*
X0337003Y0203094D01*
X0337003Y0201495D02*
X0312168Y0201495D01*
X0312168Y0199897D02*
X0337003Y0199897D01*
X0337003Y0198298D02*
X0312168Y0198298D01*
X0312168Y0196700D02*
X0337003Y0196700D01*
X0337003Y0195101D02*
X0312168Y0195101D01*
X0312168Y0193503D02*
X0337003Y0193503D01*
X0337003Y0191904D02*
X0312168Y0191904D01*
X0312168Y0190306D02*
X0337003Y0190306D01*
X0337003Y0188707D02*
X0312168Y0188707D01*
X0312168Y0187109D02*
X0337003Y0187109D01*
X0337003Y0185510D02*
X0312168Y0185510D01*
X0312168Y0183912D02*
X0337003Y0183912D01*
X0337003Y0182313D02*
X0312168Y0182313D01*
X0312168Y0180715D02*
X0337003Y0180715D01*
X0349077Y0180715D02*
X0367460Y0180715D01*
X0367460Y0182313D02*
X0349077Y0182313D01*
X0349077Y0183912D02*
X0367460Y0183912D01*
X0367460Y0185510D02*
X0349077Y0185510D01*
X0349077Y0187109D02*
X0367460Y0187109D01*
X0367460Y0188707D02*
X0349077Y0188707D01*
X0349077Y0190306D02*
X0367460Y0190306D01*
X0367460Y0191904D02*
X0349077Y0191904D01*
X0349077Y0193503D02*
X0367460Y0193503D01*
X0367460Y0195101D02*
X0349077Y0195101D01*
X0349077Y0196700D02*
X0367460Y0196700D01*
X0367460Y0198298D02*
X0349077Y0198298D01*
X0349077Y0199897D02*
X0367460Y0199897D01*
X0367460Y0201495D02*
X0349077Y0201495D01*
X0349077Y0203094D02*
X0367460Y0203094D01*
X0367460Y0204692D02*
X0349077Y0204692D01*
X0349077Y0206291D02*
X0367460Y0206291D01*
X0367460Y0207889D02*
X0349344Y0207889D01*
X0350942Y0209488D02*
X0367460Y0209488D01*
X0367460Y0211086D02*
X0355820Y0211086D01*
X0357419Y0212685D02*
X0367460Y0212685D01*
X0367460Y0214283D02*
X0358132Y0214283D01*
X0358132Y0215882D02*
X0367460Y0215882D01*
X0367460Y0217480D02*
X0357861Y0217480D01*
X0356263Y0219079D02*
X0367460Y0219079D01*
X0367460Y0220678D02*
X0351046Y0220678D01*
X0357010Y0222276D02*
X0367460Y0222276D01*
X0367460Y0223875D02*
X0358132Y0223875D01*
X0358132Y0225473D02*
X0367460Y0225473D01*
X0367460Y0227072D02*
X0358132Y0227072D01*
X0356672Y0228670D02*
X0367460Y0228670D01*
X0367460Y0230269D02*
X0351545Y0230269D01*
X0348803Y0233466D02*
X0348132Y0233466D01*
X0348132Y0233399D02*
X0345438Y0230704D01*
X0341627Y0230704D01*
X0338932Y0233399D01*
X0338932Y0237209D01*
X0341627Y0239904D01*
X0345438Y0239904D01*
X0348132Y0237209D01*
X0348132Y0233399D01*
X0348132Y0235064D02*
X0348932Y0235064D01*
X0348932Y0236663D02*
X0348132Y0236663D01*
X0347080Y0238261D02*
X0349984Y0238261D01*
X0351583Y0239860D02*
X0345482Y0239860D01*
X0345438Y0240704D02*
X0348132Y0243399D01*
X0348132Y0247209D01*
X0345438Y0249904D01*
X0341627Y0249904D01*
X0338932Y0247209D01*
X0338932Y0243399D01*
X0341627Y0240704D01*
X0345438Y0240704D01*
X0346192Y0241458D02*
X0350590Y0241458D01*
X0351544Y0240504D02*
X0348732Y0243316D01*
X0348732Y0245104D01*
X0353332Y0245104D01*
X0353332Y0245504D01*
X0348732Y0245504D01*
X0348732Y0247292D01*
X0351544Y0250104D01*
X0353332Y0250104D01*
X0353332Y0245504D01*
X0353732Y0245504D01*
X0353732Y0250104D01*
X0355520Y0250104D01*
X0358332Y0247292D01*
X0358332Y0245504D01*
X0353732Y0245504D01*
X0353732Y0245104D01*
X0353732Y0240504D01*
X0355520Y0240504D01*
X0358332Y0243316D01*
X0358332Y0245104D01*
X0353732Y0245104D01*
X0353332Y0245104D01*
X0353332Y0240504D01*
X0351544Y0240504D01*
X0353332Y0241458D02*
X0353732Y0241458D01*
X0353732Y0243057D02*
X0353332Y0243057D01*
X0353332Y0244655D02*
X0353732Y0244655D01*
X0353732Y0246254D02*
X0353332Y0246254D01*
X0353332Y0247852D02*
X0353732Y0247852D01*
X0353732Y0249451D02*
X0353332Y0249451D01*
X0350891Y0249451D02*
X0345891Y0249451D01*
X0347489Y0247852D02*
X0349292Y0247852D01*
X0348732Y0246254D02*
X0348132Y0246254D01*
X0348132Y0244655D02*
X0348732Y0244655D01*
X0348991Y0243057D02*
X0347790Y0243057D01*
X0341583Y0239860D02*
X0312168Y0239860D01*
X0312168Y0241458D02*
X0340873Y0241458D01*
X0339274Y0243057D02*
X0312168Y0243057D01*
X0312168Y0244655D02*
X0338932Y0244655D01*
X0338932Y0246254D02*
X0312168Y0246254D01*
X0312168Y0247852D02*
X0339575Y0247852D01*
X0341174Y0249451D02*
X0312168Y0249451D01*
X0312168Y0251049D02*
X0367460Y0251049D01*
X0367460Y0249451D02*
X0356174Y0249451D01*
X0357772Y0247852D02*
X0367460Y0247852D01*
X0367460Y0246254D02*
X0358332Y0246254D01*
X0358332Y0244655D02*
X0367460Y0244655D01*
X0367460Y0243057D02*
X0358073Y0243057D01*
X0356475Y0241458D02*
X0367460Y0241458D01*
X0367460Y0239860D02*
X0355482Y0239860D01*
X0357080Y0238261D02*
X0367460Y0238261D01*
X0367460Y0236663D02*
X0358132Y0236663D01*
X0358132Y0235064D02*
X0367460Y0235064D01*
X0367460Y0233466D02*
X0358132Y0233466D01*
X0356601Y0231867D02*
X0367460Y0231867D01*
X0347204Y0231867D02*
X0346601Y0231867D01*
X0346846Y0230269D02*
X0312168Y0230269D01*
X0312168Y0231867D02*
X0340464Y0231867D01*
X0338932Y0233466D02*
X0312168Y0233466D01*
X0312168Y0235064D02*
X0338932Y0235064D01*
X0338932Y0236663D02*
X0312168Y0236663D01*
X0312168Y0238261D02*
X0339984Y0238261D01*
X0340393Y0228670D02*
X0312168Y0228670D01*
X0312168Y0227072D02*
X0338932Y0227072D01*
X0346672Y0228670D02*
X0346846Y0228670D01*
X0367460Y0252648D02*
X0313054Y0252648D01*
X0313668Y0254246D02*
X0367460Y0254246D01*
X0367460Y0255845D02*
X0313512Y0255845D01*
X0312468Y0257443D02*
X0367460Y0257443D01*
X0367460Y0259042D02*
X0305949Y0259042D01*
X0306775Y0257443D02*
X0307667Y0257443D01*
X0285964Y0276625D02*
X0285904Y0276625D01*
X0285964Y0278224D02*
X0275725Y0278224D01*
X0275754Y0276625D02*
X0280097Y0276625D01*
X0279401Y0275027D02*
X0274902Y0275027D01*
X0274833Y0279822D02*
X0285964Y0279822D01*
X0285964Y0281421D02*
X0257826Y0281421D01*
X0259425Y0279822D02*
X0269515Y0279822D01*
X0268623Y0278224D02*
X0261023Y0278224D01*
X0262622Y0276625D02*
X0268594Y0276625D01*
X0269446Y0275027D02*
X0263447Y0275027D01*
X0263447Y0273428D02*
X0270074Y0273428D01*
X0270074Y0271830D02*
X0263447Y0271830D01*
X0263447Y0270231D02*
X0270074Y0270231D01*
X0270074Y0268633D02*
X0264164Y0268633D01*
X0266406Y0267034D02*
X0270074Y0267034D01*
X0270074Y0265436D02*
X0266916Y0265436D01*
X0266695Y0263837D02*
X0270074Y0263837D01*
X0270084Y0262239D02*
X0265558Y0262239D01*
X0285964Y0283019D02*
X0208581Y0283019D01*
X0208581Y0284618D02*
X0285964Y0284618D01*
X0285964Y0286216D02*
X0208581Y0286216D01*
X0208581Y0287815D02*
X0285964Y0287815D01*
X0285964Y0289413D02*
X0208581Y0289413D01*
X0208581Y0291012D02*
X0285964Y0291012D01*
X0285964Y0292611D02*
X0208581Y0292611D01*
X0208581Y0294209D02*
X0285964Y0294209D01*
X0285964Y0295808D02*
X0208581Y0295808D01*
X0208581Y0297406D02*
X0285964Y0297406D01*
X0285964Y0299005D02*
X0208581Y0299005D01*
X0208581Y0300603D02*
X0285964Y0300603D01*
X0285964Y0302202D02*
X0208581Y0302202D01*
X0208581Y0303800D02*
X0285964Y0303800D01*
X0285964Y0305399D02*
X0208581Y0305399D01*
X0208581Y0306997D02*
X0285964Y0306997D01*
X0285964Y0308596D02*
X0208581Y0308596D01*
X0208581Y0310194D02*
X0285964Y0310194D01*
X0285964Y0311793D02*
X0208581Y0311793D01*
X0208581Y0313391D02*
X0285964Y0313391D01*
X0285964Y0314990D02*
X0208581Y0314990D01*
X0208581Y0316588D02*
X0285964Y0316588D01*
X0285964Y0318187D02*
X0208581Y0318187D01*
X0208581Y0319785D02*
X0285964Y0319785D01*
X0285964Y0321384D02*
X0208581Y0321384D01*
X0208581Y0322982D02*
X0285964Y0322982D01*
X0285964Y0324581D02*
X0208581Y0324581D01*
X0208581Y0326179D02*
X0285964Y0326179D01*
X0285964Y0327778D02*
X0208581Y0327778D01*
X0208581Y0329376D02*
X0285964Y0329376D01*
X0285964Y0330975D02*
X0208581Y0330975D01*
X0208581Y0332573D02*
X0285964Y0332573D01*
X0285964Y0334172D02*
X0208581Y0334172D01*
X0208581Y0335770D02*
X0285964Y0335770D01*
X0285964Y0337369D02*
X0208581Y0337369D01*
X0208581Y0338967D02*
X0285964Y0338967D01*
X0285964Y0340566D02*
X0208581Y0340566D01*
X0208581Y0342164D02*
X0285964Y0342164D01*
X0285964Y0343763D02*
X0208581Y0343763D01*
X0208581Y0345361D02*
X0285964Y0345361D01*
X0285964Y0346960D02*
X0208581Y0346960D01*
X0208581Y0348558D02*
X0285964Y0348558D01*
X0285964Y0350157D02*
X0208581Y0350157D01*
X0208581Y0351755D02*
X0285964Y0351755D01*
X0285964Y0353354D02*
X0208581Y0353354D01*
X0208581Y0354952D02*
X0285964Y0354952D01*
X0285964Y0356551D02*
X0208581Y0356551D01*
X0208581Y0358149D02*
X0285964Y0358149D01*
X0349077Y0179116D02*
X0367460Y0179116D01*
X0367460Y0177518D02*
X0349077Y0177518D01*
X0349077Y0175919D02*
X0367460Y0175919D01*
X0367460Y0174321D02*
X0349077Y0174321D01*
X0349077Y0172722D02*
X0367460Y0172722D01*
X0367460Y0171124D02*
X0349077Y0171124D01*
X0349077Y0169525D02*
X0367460Y0169525D01*
X0367460Y0167927D02*
X0349077Y0167927D01*
X0349077Y0166328D02*
X0367460Y0166328D01*
X0367460Y0164730D02*
X0349077Y0164730D01*
X0349077Y0163131D02*
X0367460Y0163131D01*
X0367460Y0161533D02*
X0349077Y0161533D01*
X0354080Y0159934D02*
X0354480Y0159934D01*
X0354480Y0158336D02*
X0354080Y0158336D01*
X0354080Y0156737D02*
X0354480Y0156737D01*
X0354480Y0155139D02*
X0354080Y0155139D01*
X0354080Y0153540D02*
X0354480Y0153540D01*
X0354480Y0151942D02*
X0354080Y0151942D01*
X0349731Y0151942D02*
X0349077Y0151942D01*
X0358830Y0151942D02*
X0367460Y0151942D01*
X0367460Y0153540D02*
X0361074Y0153540D01*
X0361890Y0155139D02*
X0367460Y0155139D01*
X0367460Y0156737D02*
X0362080Y0156737D01*
X0361725Y0158336D02*
X0367460Y0158336D01*
X0367460Y0159934D02*
X0360619Y0159934D01*
X0359928Y0150343D02*
X0367460Y0150343D01*
X0367460Y0148745D02*
X0361323Y0148745D01*
X0361880Y0147146D02*
X0367460Y0147146D01*
X0367460Y0145547D02*
X0361871Y0145547D01*
X0361209Y0143949D02*
X0367460Y0143949D01*
X0367460Y0142350D02*
X0359319Y0142350D01*
X0358999Y0140752D02*
X0367460Y0140752D01*
X0367460Y0139153D02*
X0361117Y0139153D01*
X0361816Y0137555D02*
X0367460Y0137555D01*
X0367460Y0135956D02*
X0361880Y0135956D01*
X0361378Y0134358D02*
X0367460Y0134358D01*
X0367460Y0132759D02*
X0360060Y0132759D01*
X0360708Y0129562D02*
X0367460Y0129562D01*
X0367460Y0127964D02*
X0361647Y0127964D01*
X0361880Y0126365D02*
X0367460Y0126365D01*
X0367460Y0124767D02*
X0361548Y0124767D01*
X0360469Y0123168D02*
X0367460Y0123168D01*
X0367460Y0121570D02*
X0355967Y0121570D01*
X0355967Y0119971D02*
X0367460Y0119971D01*
X0367460Y0118373D02*
X0355967Y0118373D01*
X0355967Y0116774D02*
X0367460Y0116774D01*
X0367460Y0115176D02*
X0355967Y0115176D01*
X0355967Y0113577D02*
X0367460Y0113577D01*
X0367460Y0111979D02*
X0355967Y0111979D01*
X0355967Y0110380D02*
X0367460Y0110380D01*
X0367460Y0108782D02*
X0355967Y0108782D01*
X0355967Y0107183D02*
X0367460Y0107183D01*
X0367460Y0105585D02*
X0355967Y0105585D01*
X0355967Y0103986D02*
X0367460Y0103986D01*
X0367460Y0102388D02*
X0355967Y0102388D01*
X0354448Y0100789D02*
X0367460Y0100789D01*
X0367460Y0099191D02*
X0352849Y0099191D01*
X0351251Y0097592D02*
X0367460Y0097592D01*
X0367460Y0095994D02*
X0349652Y0095994D01*
X0348054Y0094395D02*
X0367460Y0094395D01*
X0367460Y0092797D02*
X0346455Y0092797D01*
X0344857Y0091198D02*
X0367460Y0091198D01*
X0367460Y0089600D02*
X0343258Y0089600D01*
X0341660Y0088001D02*
X0367460Y0088001D01*
X0367460Y0086403D02*
X0340061Y0086403D01*
X0338463Y0084804D02*
X0367460Y0084804D01*
X0367460Y0083206D02*
X0336864Y0083206D01*
X0335266Y0081607D02*
X0367460Y0081607D01*
X0367460Y0080009D02*
X0333667Y0080009D01*
X0332069Y0078410D02*
X0367460Y0078410D01*
X0367460Y0076811D02*
X0330470Y0076811D01*
X0328872Y0075213D02*
X0367460Y0075213D01*
X0367460Y0073614D02*
X0327273Y0073614D01*
X0325675Y0072016D02*
X0367460Y0072016D01*
X0367460Y0070417D02*
X0324076Y0070417D01*
X0322526Y0068819D02*
X0367460Y0068819D01*
X0367460Y0067220D02*
X0322402Y0067220D01*
X0321402Y0065622D02*
X0367460Y0065622D01*
X0367460Y0064023D02*
X0321026Y0064023D01*
X0321026Y0062425D02*
X0367460Y0062425D01*
X0367460Y0060826D02*
X0321026Y0060826D01*
X0321026Y0059228D02*
X0367460Y0059228D01*
X0367460Y0057629D02*
X0322120Y0057629D01*
X0322526Y0056031D02*
X0367460Y0056031D01*
X0367460Y0054432D02*
X0322201Y0054432D01*
X0320849Y0052834D02*
X0367460Y0052834D01*
X0367460Y0051235D02*
X0317581Y0051235D01*
X0317581Y0049637D02*
X0367460Y0049637D01*
X0367460Y0048038D02*
X0317581Y0048038D01*
X0317581Y0046440D02*
X0367460Y0046440D01*
X0367460Y0044841D02*
X0317581Y0044841D01*
X0317581Y0043243D02*
X0367460Y0043243D01*
X0367460Y0041644D02*
X0317581Y0041644D01*
X0317581Y0040046D02*
X0367460Y0040046D01*
X0367460Y0038447D02*
X0317581Y0038447D01*
X0317581Y0036849D02*
X0367460Y0036849D01*
X0367460Y0035250D02*
X0316468Y0035250D01*
X0284376Y0028856D02*
X0367460Y0028856D01*
X0367460Y0027258D02*
X0284376Y0027258D01*
X0284376Y0025659D02*
X0367460Y0025659D01*
X0367460Y0024061D02*
X0284376Y0024061D01*
X0284376Y0022462D02*
X0367460Y0022462D01*
X0367460Y0020864D02*
X0283606Y0020864D01*
X0282008Y0019265D02*
X0367460Y0019265D01*
X0367460Y0017667D02*
X0280409Y0017667D01*
X0278811Y0016068D02*
X0367460Y0016068D01*
X0367460Y0030455D02*
X0283919Y0030455D01*
X0282321Y0032053D02*
X0367460Y0032053D01*
X0367460Y0033652D02*
X0280722Y0033652D01*
X0281030Y0035250D02*
X0279124Y0035250D01*
X0317581Y0072016D02*
X0319735Y0072016D01*
X0321334Y0073614D02*
X0317581Y0073614D01*
X0317581Y0075213D02*
X0322932Y0075213D01*
X0324531Y0076811D02*
X0317581Y0076811D01*
X0317581Y0078410D02*
X0326129Y0078410D01*
X0327728Y0080009D02*
X0317581Y0080009D01*
X0317581Y0081607D02*
X0329326Y0081607D01*
X0330925Y0083206D02*
X0317581Y0083206D01*
X0317581Y0084804D02*
X0332523Y0084804D01*
X0334122Y0086403D02*
X0317581Y0086403D01*
X0317581Y0088001D02*
X0335720Y0088001D01*
X0337319Y0089600D02*
X0317581Y0089600D01*
X0317581Y0091198D02*
X0338917Y0091198D01*
X0340516Y0092797D02*
X0317581Y0092797D01*
X0317581Y0094395D02*
X0342114Y0094395D01*
X0343713Y0095994D02*
X0317581Y0095994D01*
X0317581Y0097592D02*
X0345311Y0097592D01*
X0346910Y0099191D02*
X0317581Y0099191D01*
X0317581Y0100789D02*
X0348508Y0100789D01*
X0350107Y0102388D02*
X0317581Y0102388D01*
X0317581Y0103986D02*
X0351705Y0103986D01*
X0351767Y0105585D02*
X0317905Y0105585D01*
X0319503Y0107183D02*
X0351767Y0107183D01*
X0351767Y0108782D02*
X0321102Y0108782D01*
X0322700Y0110380D02*
X0351767Y0110380D01*
X0351767Y0111979D02*
X0324299Y0111979D01*
X0325897Y0113577D02*
X0351767Y0113577D01*
X0351767Y0115176D02*
X0327496Y0115176D01*
X0329095Y0116774D02*
X0351767Y0116774D01*
X0351767Y0118373D02*
X0330693Y0118373D01*
X0332292Y0119971D02*
X0351767Y0119971D01*
X0351767Y0121570D02*
X0333890Y0121570D01*
X0335489Y0123168D02*
X0348092Y0123168D01*
X0347013Y0124767D02*
X0337087Y0124767D01*
X0338686Y0126365D02*
X0346680Y0126365D01*
X0346914Y0127964D02*
X0340284Y0127964D01*
X0341883Y0129562D02*
X0347852Y0129562D01*
X0347201Y0132759D02*
X0348501Y0132759D01*
X0343481Y0131161D02*
X0367460Y0131161D01*
X0349561Y0140752D02*
X0349077Y0140752D01*
X0349077Y0142350D02*
X0349242Y0142350D01*
X0324897Y0139153D02*
X0312168Y0139153D01*
X0312168Y0137555D02*
X0324743Y0137555D01*
X0323144Y0135956D02*
X0312168Y0135956D01*
X0312168Y0134358D02*
X0321546Y0134358D01*
X0319947Y0132759D02*
X0312168Y0132759D01*
X0312168Y0131161D02*
X0316736Y0131161D01*
X0314802Y0129562D02*
X0312168Y0129562D01*
X0312168Y0127964D02*
X0314361Y0127964D01*
X0314653Y0126365D02*
X0312168Y0126365D01*
X0312168Y0124767D02*
X0315895Y0124767D01*
D33*
X0317942Y0127784D03*
X0303769Y0114005D03*
X0303769Y0084083D03*
X0241202Y0146124D03*
X0244624Y0149438D03*
X0241957Y0169123D03*
X0271879Y0174241D03*
X0269123Y0183690D03*
X0326997Y0174241D03*
D34*
X0274280Y0025816D03*
X0128611Y0025816D03*
M02*
