%
M48
M72
T01C0.02362
T02C0.02400
T03C0.03346
T04C0.04000
T05C0.04921
T06C0.12992
%
T01
X241202Y146124
X244624Y149438
X241957Y169123
X271879Y174241
X269123Y183690
X326997Y174241
X317942Y127784
X303769Y114005
X303769Y84083
T02
X294320Y65776
X294320Y60855
X284477Y75619
X266269Y59871
X283493Y40678
X318926Y55934
X318926Y68237
X269221Y99241
X263808Y112528
X274635Y114989
X284969Y114497
X274635Y135658
X270698Y142548
X270698Y149438
X267745Y153867
X262331Y152883
X256918Y165186
X254950Y176013
X261347Y180934
X255934Y188316
X264792Y191761
X251505Y201603
X244123Y194713
X244615Y188316
X230835Y193237
X233788Y201603
X228375Y209969
X220501Y211938
X220501Y205048
X220993Y216859
X209182Y211938
X204753Y214398
X197863Y212430
X203769Y201603
X196387Y197174
X192450Y187824
X188020Y184379
X181131Y184379
X174241Y187824
X170796Y184379
X167351Y180934
X167351Y170107
X162430Y163709
X170796Y160265
X179654Y157804
X184576Y157804
X189497Y157804
X195402Y153867
X192942Y143532
X197863Y143532
X207706Y150422
X211150Y153867
X220009Y153867
X224930Y155343
X224930Y150422
X220009Y140087
X224438Y132213
X224930Y120894
X220009Y120894
X212135Y106623
X203276Y120402
X203276Y131229
X191465Y114005
X193926Y106623
X187528Y94812
X183099Y92351
X166859Y105146
X157017Y114005
X146190Y113020
X155048Y127784
X150619Y131229
X161938Y127784
X156524Y144024
X161938Y145993
X158001Y150422
X149635Y140580
X142745Y147469
X126997Y153375
X128965Y160265
X125028Y179457
X136839Y189300
X141761Y188808
X143237Y195698
X162430Y201111
X174733Y206524
X170796Y214398
X165875Y225225
X157509Y219812
X154064Y223257
X140284Y233591
X149143Y247371
X142253Y254261
X166367Y249339
X177686Y252784
X184576Y256721
X188020Y243434
X181131Y239989
X174241Y239989
X188020Y228670
X197863Y223257
X189497Y212430
X183099Y209969
X178178Y191269
X183099Y177489
X187528Y169615
X194910Y170107
X200816Y169615
X205737Y169615
X212627Y169615
X209182Y179457
X205737Y188316
X223454Y169615
X236741Y155343
X236741Y141564
X246091Y135658
X249536Y139103
X236741Y127784
X239694Y123847
X238709Y106623
X243631Y106131
X253473Y88906
X238709Y82017
X238709Y77095
X231820Y75127
X226406Y86938
X219517Y88906
X211150Y66761
X196879Y75619
X188513Y74143
X177686Y75127
X168335Y67745
X171780Y55934
X179162Y48552
X187528Y41662
X196387Y49536
X191957Y29851
X202292Y29851
X218532Y35265
X222961Y44123
X235265Y38709
X166859Y36249
X159969Y24930
X155048Y20009
X150127Y59379
X143729Y79064
X130934Y94812
X121583Y115481
X113217Y122371
X121583Y140580
X90087Y150914
X78276Y158788
X78276Y140580
X75324Y130737
X82213Y118926
X60560Y114989
X45796Y105146
X95993Y98257
X100422Y81032
X173749Y140580
X177194Y144024
X173749Y147961
X184083Y147469
X185560Y135658
X121583Y193729
X116662Y194221
X106328Y212922
X118139Y219812
X93040Y199635
X201308Y254753
X218532Y260166
X227391Y261150
X232312Y261150
X237233Y261150
X242154Y261150
X248552Y270501
X248060Y275914
X253965Y277391
X257902Y270501
X263316Y265087
X276111Y258198
X280540Y248847
X287430Y248847
X294320Y241957
X299733Y237528
X288414Y232607
X283985Y230146
X290875Y223257
X283985Y216367
X271190Y212430
X261839Y208985
X266761Y223257
X257902Y230146
X255934Y237036
X261839Y239497
X269221Y239005
X280540Y239497
X256426Y248847
X249536Y249831
X243631Y245402
X247076Y238513
X241662Y236544
X232804Y241957
X224930Y239989
X230835Y233099
X234772Y226702
X246583Y225225
X240678Y211938
X210658Y236052
X214595Y275914
X272174Y277391
X283001Y274438
X303178Y256721
X310068Y254753
X306623Y212430
X303178Y208985
X299733Y188316
X275127Y158296
X289891Y153867
X294812Y153867
X306623Y127784
X338119Y133690
X345009Y135658
T03
X36997Y136328
X36997Y151288
T04
X50619Y26643
X50619Y36643
X50619Y46643
X50619Y56643
X50619Y66643
X50619Y76643
X50619Y86643
X50619Y96643
X343532Y215304
X343532Y225304
X343532Y235304
X343532Y245304
X353532Y245304
X353532Y235304
X353532Y225304
X353532Y215304
X354280Y156485
X354280Y146485
X354280Y136485
X354280Y126485
T05
X38099Y206249
X38099Y237745
T06
X128611Y25816
X274280Y25816
M30
